<svg width="64" height="64" viewBox="0 0 64 64" fill="none" xmlns="http://www.w3.org/2000/svg">
  <defs>
    <linearGradient id="bg-gradient" x1="0%" y1="0%" x2="100%" y2="100%">
      <stop offset="0%" style="stop-color:#1919ef;stop-opacity:1" />
      <stop offset="100%" style="stop-color:#1fc4d9;stop-opacity:1" />
    </linearGradient>
    <linearGradient id="shield-gradient" x1="0%" y1="0%" x2="100%" y2="100%">
      <stop offset="0%" style="stop-color:#ffffff;stop-opacity:0.9" />
      <stop offset="100%" style="stop-color:#ffffff;stop-opacity:0.7" />
    </linearGradient>
  </defs>

  <!-- Background circle -->
  <circle cx="32" cy="32" r="30" fill="url(#bg-gradient)" />

  <!-- Shield icon -->
  <path d="M32 12 L24 16 L24 28 Q24 36 32 44 Q40 36 40 28 L40 16 Z" fill="url(#shield-gradient)" />

  <!-- Lock icon inside shield -->
  <rect x="28" y="26" width="8" height="10" rx="1" fill="#1919ef" opacity="0.8" />
  <path d="M30 26 L30 22 Q30 20 32 20 Q34 20 34 22 L34 26" stroke="#1919ef" stroke-width="1.5" fill="none" opacity="0.8" />

  <!-- Success checkmark -->
  <path d="M29 30 L31 32 L35 28" stroke="#1fc4d9" stroke-width="2" stroke-linecap="round" stroke-linejoin="round" />

  <!-- Chat bubbles for visual novel aspect -->
  <circle cx="20" cy="48" r="6" fill="white" opacity="0.9" />
  <circle cx="44" cy="48" r="4" fill="white" opacity="0.7" />
  <circle cx="17" cy="45" r="1.5" fill="#1919ef" opacity="0.6" />
  <circle cx="20" cy="45" r="1.5" fill="#1919ef" opacity="0.6" />
  <circle cx="23" cy="45" r="1.5" fill="#1919ef" opacity="0.6" />
</svg>