<svg width="31.591" height="28.909" viewBox="0 0 32 29" xmlns="http://www.w3.org/2000/svg"><path d="M1.85 25.207a.615.615 0 0 0-.613.614v1.234a.62.62 0 0 0 .614.614H29.74a.615.615 0 0 0 .613-.614V25.82a.62.62 0 0 0-.613-.614zm27.89 3.702H1.85C.829 28.91 0 28.08 0 27.055V25.82c0-1.024.828-1.854 1.85-1.854h27.89c1.023 0 1.85.83 1.85 1.854v1.234a1.852 1.852 0 0 1-1.85 1.854"/><path d="M16.781 24.977a.622.622 0 0 1-.622-.62v-8.589a.6.6 0 0 0-.308-.535l-5.907-3.422a.602.602 0 0 0-.613 0l-5.88 3.417a.634.634 0 0 0-.307.533v8.59c0 .341-.279.62-.624.62a.62.62 0 0 1-.613-.62v-8.59c0-.657.353-1.277.921-1.606l5.87-3.416a1.86 1.86 0 0 1 1.869 0l5.908 3.422c.566.328.93.95.93 1.612v8.591c0 .34-.28.619-.624.619v-.006M29.815 24.841a.624.624 0 0 1-.624-.621V6.545a.633.633 0 0 0-.307-.54l-8.093-4.688a.619.619 0 0 0-.623 0l-8.047 4.688a.621.621 0 0 0-.317.535v1.345a.62.62 0 0 1-.613.62.623.623 0 0 1-.624-.62V6.54c0-.657.354-1.279.921-1.607L19.535.252a1.862 1.862 0 0 1 1.87 0L29.5 4.94c.566.335.929.95.929 1.612v17.675c0 .341-.279.62-.623.62l.01-.006"/><path d="M21.73 7.836a.641.641 0 0 0-.642.639v11.132c0 .353.29.638.643.638h3.041a.641.641 0 0 0 .643-.638V8.475a.641.641 0 0 0-.643-.639zm3.042 13.644h-3.041a1.885 1.885 0 0 1-1.88-1.88V8.475c0-1.036.846-1.879 1.88-1.879h3.041c1.043 0 1.88.843 1.88 1.879v11.132a1.878 1.878 0 0 1-1.88 1.878v-.005"/><path d="M25.443 14.659h-4.578a.624.624 0 0 1-.624-.622c0-.341.28-.62.624-.62h4.578c.344 0 .622.279.622.62a.623.623 0 0 1-.622.622M13.06 24.977a.622.622 0 0 1-.623-.62v-5.929a.657.657 0 0 0-.652-.657H10a.657.657 0 0 0-.661.657v5.93c0 .34-.279.62-.623.62a.62.62 0 0 1-.613-.62v-5.93c0-1.048.845-1.897 1.897-1.897h1.785c1.043 0 1.899.849 1.899 1.897v5.93c0 .34-.28.62-.624.62"/></svg>