<svg width="32.307" height="32.217" xmlns="http://www.w3.org/2000/svg"><path d="M1.86 28.545a.62.62 0 0 0-.613.62v1.191a.62.62 0 0 0 .613.621h28.577a.622.622 0 0 0 .623-.621v-1.19a.622.622 0 0 0-.623-.62zm28.577 3.672H1.86A1.866 1.866 0 0 1 0 30.356v-1.19c0-1.023.837-1.86 1.86-1.86h28.577c1.024 0 1.86.837 1.86 1.86v1.19a1.865 1.865 0 0 1-1.86 1.861"/><path d="M6.232 28.161a.622.622 0 0 1-.623-.62V12.396H2.548v15.145a.62.62 0 0 1-.613.62.623.623 0 0 1-.624-.62V11.776c0-.341.28-.62.624-.62h4.297c.344 0 .624.279.624.62v15.765c0 .342-.28.62-.624.62"/><path d="M6.065 12.41a.643.643 0 0 1-.317-.082.624.624 0 0 1-.223-.85L6.837 9.21V8.056H1.283v1.116l1.265 2.239a.617.617 0 0 1-.232.842.623.623 0 0 1-.847-.234L.111 9.644a.584.584 0 0 1-.075-.304V7.597c0-.428.345-.781.783-.781H7.3c.428 0 .782.347.782.781v1.78c0 .111-.027.216-.083.31l-1.396 2.418a.608.608 0 0 1-.539.311v-.007M30.456 28.161a.622.622 0 0 1-.623-.62V12.396h-3.061v15.145a.623.623 0 0 1-1.247 0V11.776c0-.341.28-.62.624-.62h4.307a.62.62 0 0 1 .613.62v15.765a.62.62 0 0 1-.613.62"/><path d="M30.279 12.41a.633.633 0 0 1-.307-.082.627.627 0 0 1-.232-.85l1.32-2.269V8.056h-5.563v1.116l1.266 2.239a.617.617 0 0 1-.232.842.623.623 0 0 1-.847-.234l-1.35-2.382a.59.59 0 0 1-.083-.304V7.591c0-.428.354-.782.781-.782h6.493c.428 0 .782.347.782.782v1.78c0 .11-.036.216-.083.309l-1.396 2.419a.632.632 0 0 1-.54.31h-.01M19.721 11.193a.632.632 0 0 1-.308-.08.628.628 0 0 1-.232-.85l1.322-2.27V6.84H11.85v1.116l1.274 2.239a.619.619 0 1 1-1.078.608l-1.35-2.382a.59.59 0 0 1-.084-.302V6.375a.78.78 0 0 1 .782-.782h9.573c.427 0 .781.348.781.782v1.78a.7.7 0 0 1-.084.31l-1.396 2.419a.632.632 0 0 1-.538.31h-.01"/><path d="M19.879 13.023a.622.622 0 0 1-.623-.62v-1.24H13.06v1.24a.623.623 0 0 1-1.247 0v-1.86c0-.342.28-.62.624-.62h7.442c.344 0 .624.278.624.62v1.86c0 .341-.28.62-.624.62M21.759 18.605h-3.684a.624.624 0 0 1-.624-.621v-1.897a.62.62 0 0 0-.614-.62h-1.302a.62.62 0 0 0-.614.62v1.897c0 .341-.28.621-.624.621h-3.684a.623.623 0 0 1-.622-.621v-1.86a.621.621 0 0 0-.615-.621H6.623A.622.622 0 0 1 6 14.884c0-.341.279-.621.623-.621h2.753c1.024 0 1.861.837 1.861 1.861v1.24h2.438v-1.277c0-1.024.837-1.86 1.86-1.86h1.302c1.023 0 1.86.836 1.86 1.86v1.277h2.438v-1.24c0-1.024.837-1.861 1.861-1.861h2.753c.344 0 .623.28.623.621 0 .34-.279.619-.623.619h-2.753a.621.621 0 0 0-.615.621v1.86a.623.623 0 0 1-.622.621M19.897 28.236a.623.623 0 0 1-.622-.621v-2.791a3.1 3.1 0 0 0-3.099-3.1 3.1 3.1 0 0 0-3.097 3.1v2.79a.623.623 0 0 1-1.247 0v-2.79a4.35 4.35 0 0 1 4.344-4.34 4.35 4.35 0 0 1 4.345 4.34v2.79c0 .342-.28.622-.624.622M16.176 6.592a.622.622 0 0 1-.623-.62V.62c0-.341.279-.62.623-.62.345 0 .624.279.624.62v5.352c0 .341-.279.62-.624.62"/><path d="M19.237 3.721H16.41a.622.622 0 0 1-.614-.621c0-.34.28-.62.614-.62h2.828a.622.622 0 0 0 .623-.62.596.596 0 0 0-.604-.601h-2.847a.621.621 0 0 1 0-1.24h2.847c1.023 0 1.841.825 1.841 1.841a1.87 1.87 0 0 1-1.86 1.861"/></svg>