<svg width="32.244" height="25.452" xmlns="http://www.w3.org/2000/svg"><path d="M21.053 25.421a.623.623 0 0 1-.62-.621V8.032a.619.619 0 0 0-.613-.621l-7.424.049a.617.617 0 0 0-.613.621v16.726c0 .341-.28.621-.622.621a.622.622 0 0 1-.618-.621V8.075c0-1.018.83-1.855 1.846-1.862l7.424-.049c.484 0 .967.187 1.32.54.355.353.554.819.554 1.321V24.8a.623.623 0 0 1-.62.621h-.014"/><path d="M5.58 25.452c-.34 0-.62-.28-.62-.62v-9.719c0-.644.341-1.258.893-1.588l4.962-3.006a.616.616 0 0 1 .849.21.615.615 0 0 1-.21.85l-4.962 3.008a.616.616 0 0 0-.297.526v9.719c0 .34-.28.62-.62.62h.005M26.656 25.421a.623.623 0 0 1-.62-.621v-4.377c0-.342-.28-.62-.62-.62h-4.112a.621.621 0 0 1 0-1.24h4.112c1.023 0 1.86.837 1.86 1.86V24.8a.623.623 0 0 1-.62.621"/><path d="M31.63 23.572h-4.76a.621.621 0 0 1 0-1.24h4.76a.62.62 0 0 1 0 1.24M5.252 23.572H.62a.622.622 0 0 1-.62-.619c0-.341.28-.621.62-.621h4.632c.343 0 .621.28.621.621 0 .34-.278.619-.621.619M20.887 14.897h-6.022a.624.624 0 0 1-.621-.621c0-.341.28-.62.621-.62h6.022a.621.621 0 0 1 0 1.241M20.887 18.6h-6.022a.624.624 0 0 1-.621-.621c0-.342.28-.62.621-.62h6.022a.621.621 0 0 1 0 1.241M20.467 22.339h-5.595a.621.621 0 0 1-.62-.62c0-.342.279-.62.62-.62h5.595c.341 0 .62.278.62.62 0 .341-.279.62-.62.62M20.887 11.15h-2.643a.621.621 0 0 1-.62-.62c0-.34.279-.62.62-.62h2.643c.34 0 .62.28.62.62 0 .342-.28.62-.62.62"/><path d="M25.405 16.137a.623.623 0 0 1-.62-.621V1.86a.621.621 0 0 0-.62-.619H17.97a.621.621 0 0 0-.62.619v1.26c0 .34-.28.62-.62.62a.622.622 0 0 1-.62-.62V1.86c0-1.023.836-1.86 1.86-1.86h6.196c1.023 0 1.86.837 1.86 1.86v13.656a.623.623 0 0 1-.62.621"/><path d="M30.376 23.43a.623.623 0 0 1-.62-.62v-9.234c0-.341-.28-.62-.62-.62h-3.548c-.34 0-.62-.28-.62-.621 0-.34.28-.619.62-.619h3.548c1.023 0 1.86.837 1.86 1.86v9.233a.623.623 0 0 1-.62.622M1.85 23.43a.624.624 0 0 1-.622-.62V10.542c0-1.023.837-1.86 1.861-1.86H5c.998 0 1.81.812 1.81 1.81 0 .342-.278.62-.62.62a.622.622 0 0 1-.62-.62.57.57 0 0 0-.57-.57h-1.91a.623.623 0 0 0-.621.62v12.266a.622.622 0 0 1-.619.622"/></svg>