<svg width="31.784" height="31.68" xmlns="http://www.w3.org/2000/svg"><path d="M1.87 27.842a.623.623 0 0 1-.623-.62v-8.596c0-.664.362-1.277.93-1.612l11.116-6.42a1.85 1.85 0 0 1 1.862 0c.576.336.929.936.929 1.614V27.14a.623.623 0 0 1-1.247 0V12.208a.615.615 0 0 0-.306-.54.61.61 0 0 0-.623 0L2.8 18.093a.623.623 0 0 0-.316.54v8.595a.62.62 0 0 1-.613.62v-.006M13.517 1.242a.6.6 0 0 0-.54.31l-.622 1.073a.624.624 0 0 0 .222.844l16.41 9.513c.149.08.317.106.474.062a.635.635 0 0 0 .382-.29l.614-1.074a.607.607 0 0 0-.224-.843L13.824 1.33a.628.628 0 0 0-.307-.087zM29.304 14.31c-.317 0-.643-.087-.93-.253l-16.41-9.508a1.862 1.862 0 0 1-.68-2.543l.624-1.072c.241-.428.65-.739 1.125-.868.475-.13.978-.063 1.414.185l16.41 9.514a1.869 1.869 0 0 1 .679 2.542l-.623 1.074a1.877 1.877 0 0 1-1.136.868 1.872 1.872 0 0 1-.482.061h.009"/><path d="M1.833 27.96a.598.598 0 0 0-.596.594v1.291c0 .328.271.595.596.595H28.55a.591.591 0 0 0 .596-.595v-1.29a.591.591 0 0 0-.596-.595zm26.716 3.72H1.833A1.841 1.841 0 0 1 0 29.845v-1.29a1.84 1.84 0 0 1 1.833-1.835H28.55c1.015 0 1.843.824 1.843 1.834v1.291c0 1.01-.828 1.835-1.843 1.835"/><path d="M11.787 27.761a.622.622 0 0 1-.623-.62v-6.593a.607.607 0 0 0-.605-.608H6.8a.614.614 0 0 0-.613.608v6.481a.62.62 0 0 1-.614.62.622.622 0 0 1-.624-.62v-6.481c0-1.023.828-1.848 1.851-1.848h3.759a1.86 1.86 0 0 1 1.861 1.848v6.593c0 .341-.28.62-.624.62h-.01M21.667 27.761a.622.622 0 0 1-.624-.62V20.53c0-1.023.837-1.86 1.861-1.86h4.781a.62.62 0 0 1 0 1.24h-4.781a.621.621 0 0 0-.615.62v6.612c0 .341-.278.62-.622.62"/><path d="M27.89 27.761a.622.622 0 0 1-.623-.62V13.286c0-.34.278-.62.622-.62.335 0 .615.28.615.62v13.848c0 .342-.28.62-.615.62v.007M24.205 24.257h-.604a.62.62 0 0 1 0-1.24h.604c.344 0 .624.279.624.619 0 .341-.28.621-.624.621M12.401 8.442a.622.622 0 0 1-.624-.62V4.356a.622.622 0 0 1 1.247 0v3.466c0 .342-.279.62-.623.62"/><path d="M27.34 15.593h-4.428a1.83 1.83 0 0 1-1.832-1.83V9.795c0-.34.279-.62.623-.62a.62.62 0 0 1 .614.62v3.97c0 .322.26.588.595.588h4.428c.345 0 .624.28.624.621 0 .341-.279.62-.624.62"/></svg>