<svg width="31.052" height="31.045" xmlns="http://www.w3.org/2000/svg"><path d="M15.525 1.24c-7.878 0-14.278 6.407-14.278 14.283 0 7.876 6.4 14.282 14.278 14.282 7.88 0 14.28-6.406 14.28-14.282S23.405 1.24 15.525 1.24zm0 29.805C6.967 31.045 0 24.081 0 15.523 0 6.964 6.967 0 15.525 0c8.559 0 15.527 6.964 15.527 15.523 0 8.558-6.968 15.522-15.527 15.522"/><path d="M11.787 24.168a.623.623 0 0 1-.624-.62V7.511a.623.623 0 0 1 1.246 0v16.037c0 .34-.278.62-.622.62"/><path d="M18.056 16.763H9.321a.623.623 0 0 1-.624-.62c0-.342.28-.62.624-.62h8.735c2.028 0 3.665-1.668 3.665-3.722 0-2.052-1.637-3.721-3.665-3.721h-6.25a.622.622 0 0 1-.625-.62c0-.34.279-.619.624-.619h6.251c2.707 0 4.912 2.226 4.912 4.96 0 2.736-2.205 4.962-4.912 4.962M18.624 20.484H9.321a.624.624 0 0 1-.624-.62c0-.341.28-.62.624-.62h9.303c.344 0 .623.279.623.62 0 .34-.279.62-.623.62"/></svg>