<svg width="27.301" height="30.388" xmlns="http://www.w3.org/2000/svg"><path d="M11.255 14.227a4.441 4.441 0 0 1-4.434-4.435V3.856c0-.67.341-1.264.918-1.605a1.838 1.838 0 0 1 1.847-.02c1.544.862 3.461 2.296 4.652 3.493 1.265 1.258 1.737 3.67 1.737 4.068 0 .341-.28.62-.621.62a.622.622 0 0 1-.62-.62c-.013-.28-.434-2.258-1.37-3.194-1.123-1.123-2.927-2.474-4.379-3.286a.63.63 0 0 0-.62 0 .609.609 0 0 0-.304.532v5.948a3.198 3.198 0 0 0 3.194 3.194c.34 0 .62.28.62.62 0 .34-.28.62-.62.62"/><path d="M16.01 14.227a.623.623 0 0 1-.62-.62c0-.342.278-.62.62-.62a3.198 3.198 0 0 0 3.193-3.195V3.857a.614.614 0 0 0-.31-.538.6.6 0 0 0-.614-.007c-1.315.732-3.094 1.841-4.13 2.988a.618.618 0 1 1-.918-.83c1.147-1.273 3.052-2.463 4.447-3.245a1.831 1.831 0 0 1 1.841.026c.577.334.919.937.919 1.606v5.935a4.441 4.441 0 0 1-4.435 4.435h.007"/><path d="M16.012 14.227h-4.763c-.341 0-.62-.28-.62-.62 0-.342.279-.62.62-.62h4.763c.34 0 .62.278.62.62 0 .34-.28.62-.62.62"/><path d="M13.654 16.737c-1.37 0-2.48-1.11-2.48-2.48 0-.341.28-.62.62-.62.341 0 .62.279.62.62 0 .683.559 1.24 1.24 1.24.683 0 1.24-.557 1.24-1.24 0-.341.28-.62.62-.62.342 0 .621.279.621.62 0 1.37-1.11 2.48-2.48 2.48M1.845 14.077c-.23 0-.384.13-.434.186a.611.611 0 0 0-.142.645c1.258 3.529 2.337 5.916 2.964 6.544a3.075 3.075 0 0 0 2.183.904c.825 0 1.6-.323 2.183-.904a3.075 3.075 0 0 0 .905-2.184c0-.825-.323-1.6-.905-2.183-.627-.627-3.014-1.712-6.543-2.964a.67.67 0 0 0-.21-.037zm4.578 9.514a4.303 4.303 0 0 1-3.058-1.266c-.788-.788-1.886-3.144-3.256-7.001a1.85 1.85 0 0 1 .44-1.942 1.836 1.836 0 0 1 1.934-.433c3.865 1.376 6.215 2.475 7.003 3.256a4.352 4.352 0 0 1 1.265 3.056 4.306 4.306 0 0 1-1.265 3.058 4.287 4.287 0 0 1-3.058 1.265l-.005.007M16.012 4.601a.618.618 0 0 1-.57-.379 76.736 76.736 0 0 0-1.191-2.629.609.609 0 0 0-.559-.353.608.608 0 0 0-.558.353c-.434.919-.825 1.78-1.166 2.562a.616.616 0 0 1-.813.322.616.616 0 0 1-.322-.812c.341-.8.744-1.674 1.185-2.605.31-.657.955-1.06 1.68-1.06.726 0 1.371.41 1.68 1.06.46.968.87 1.867 1.217 2.673a.615.615 0 0 1-.33.812.564.564 0 0 1-.241.05l-.012.006"/><path d="M13.636 27.101a.638.638 0 0 1-.44-.18l-8.087-8.088a.618.618 0 1 1 .874-.875l8.087 8.088a.618.618 0 0 1-.44 1.055h.006M25.445 16.117a.68.68 0 0 0-.211.038c-3.529 1.26-5.916 2.338-6.542 2.964a3.07 3.07 0 0 0-.906 2.184 3.09 3.09 0 0 0 5.272 2.183c.625-.628 1.71-3.016 2.964-6.543a.617.617 0 0 0-.577-.826zm-4.57 9.514a4.3 4.3 0 0 1-3.058-1.266 4.332 4.332 0 0 1 0-6.12c.787-.788 3.145-1.887 7.001-3.256a1.843 1.843 0 0 1 1.935.435c.515.513.683 1.252.435 1.934-1.377 3.863-2.468 6.22-3.256 7.002a4.319 4.319 0 0 1-3.058 1.264v.007"/><path d="M13.656 29.148a.617.617 0 0 1-.44-1.055l8.087-8.088a.619.619 0 0 1 .874.875l-8.087 8.088a.61.61 0 0 1-.44.18h.006"/><path d="M13.654 30.388a.622.622 0 0 1-.62-.62v-13.65c0-.34.28-.62.62-.62.341 0 .62.28.62.62v13.65c0 .341-.279.62-.62.62"/></svg>