<svg width="32.249" height="32.249" xmlns="http://www.w3.org/2000/svg"><path d="M9.277 15.51a1.266 1.266 0 1 0 0-2.532 1.266 1.266 0 0 0 0 2.531M22.901 15.51a1.264 1.264 0 1 0 0-2.53 1.264 1.264 0 0 0 0 2.53"/><path d="M16.124 1.24C7.919 1.24 1.24 7.919 1.24 16.124c0 8.204 6.679 14.884 14.884 14.884s14.884-6.68 14.884-14.884c0-8.205-6.679-14.884-14.884-14.884zm0 31.01C7.231 32.25 0 25.016 0 16.123S7.23 0 16.124 0c8.893 0 16.125 7.23 16.125 16.124 0 8.893-7.232 16.125-16.125 16.125"/><path d="M16.123 24.807c-3.171 0-6.072-1.458-7.976-4a.625.625 0 0 1 .124-.87.622.622 0 0 1 .868.126 8.633 8.633 0 0 0 6.977 3.497c2.772 0 5.315-1.277 6.983-3.497a.617.617 0 0 1 .868-.126c.273.206.329.596.125.87a9.87 9.87 0 0 1-7.976 4h.007"/></svg>