<svg width="28.103" height="24.403" xmlns="http://www.w3.org/2000/svg"><path d="M7.544 1.24c-4.093 0-6.307 3.85-6.307 7.472 0 3.263 2.604 5.693 4.159 7.152.25.23.464.44.65.625.54.54 1.963 1.595 3.47 2.711 2.325 1.724 3.787 2.84 4.54 3.596.763-.763 2.213-1.872 4.55-3.596 1.497-1.116 2.92-2.164 3.469-2.71.186-.186.409-.391.652-.626 1.544-1.459 4.148-3.896 4.148-7.152 0-3.621-2.214-7.472-6.307-7.472s-5.908 2.94-5.99 3.063a.616.616 0 0 1-.522.28.64.64 0 0 1-.521-.28c-.084-.13-2.066-3.063-5.991-3.063zm6.512 23.163h-.01a.638.638 0 0 1-.567-.366c-.26-.538-2.939-2.524-4.707-3.838-1.61-1.191-2.995-2.222-3.61-2.828-.175-.18-.39-.379-.622-.596C2.847 15.18 0 12.515 0 8.712 0 4.433 2.819 0 7.544 0c3.424 0 5.581 1.91 6.512 2.964C14.977 1.916 17.135 0 20.568 0c4.716 0 7.535 4.433 7.535 8.712 0 3.796-2.847 6.463-4.54 8.056-.242.224-.446.423-.632.596-.606.608-1.991 1.637-3.6 2.828-1.778 1.315-4.456 3.3-4.716 3.839a.635.635 0 0 1-.559.365v.007"/></svg>