<svg width="32.243" height="32.243" xmlns="http://www.w3.org/2000/svg"><path d="M13.015 11.181c0 .342.278.622.624.622a.621.621 0 0 0 0-1.24.622.622 0 0 0-.624.618M18.661 11.181a.624.624 0 0 0 1.247 0 .623.623 0 0 0-1.247 0M13.573 6.177l.679 2.356c.019.094.112.156.205.156h3.376a.216.216 0 0 0 .206-.156l.622-2.102a.185.185 0 0 0-.046-.167.227.227 0 0 0-.167-.08h-4.875zm4.26 3.752h-3.376a1.454 1.454 0 0 1-1.396-1.048L12.16 5.75s0-.018-.01-.03l-.157-.566a.232.232 0 0 0-.233-.185h-.53a.622.622 0 0 1-.624-.62c0-.341.279-.62.624-.62h.53c.67 0 1.256.452 1.433 1.097l.028.118h5.228c.456 0 .873.205 1.153.57.279.36.372.819.251 1.259l-.613 2.121a1.474 1.474 0 0 1-1.396 1.043l-.01-.007"/><path d="M8.745 1.241c-.372 0-.689.31-.689.688v11.647c0 .379.317.69.69.69h14.753c.372 0 .688-.311.688-.69V1.929a.694.694 0 0 0-.688-.688zM23.5 15.505H8.745a1.931 1.931 0 0 1-1.925-1.929V1.929C6.82.87 7.684 0 8.745 0H23.5c1.06 0 1.925.87 1.925 1.93v11.646c0 1.061-.865 1.93-1.925 1.93M1.861 28.521a.624.624 0 0 0-.624.622v1.246c0 .34.28.619.624.619h28.522a.623.623 0 0 0 .624-.619v-1.246a.624.624 0 0 0-.624-.622zm28.522 3.722H1.86A1.866 1.866 0 0 1 0 30.383v-1.247c0-1.024.837-1.861 1.861-1.861h28.522c1.022 0 1.86.837 1.86 1.861v1.247c0 1.022-.838 1.86-1.86 1.86"/><path d="M30.392 28.343a.622.622 0 0 1-.615-.622V6.357c0-.341.28-.62.615-.62.344 0 .623.279.623.62v21.364a.623.623 0 0 1-.623.622M1.861 28.275a.624.624 0 0 1-.624-.622V6.42c0-.34.28-.619.624-.619a.62.62 0 0 1 .614.619v21.234a.621.621 0 0 1-.614.622M20.467 28.275a.623.623 0 0 1-.624-.622v-7.188a.622.622 0 0 0-.623-.618h-6.196a.622.622 0 0 0-.623.618v7.188c0 .342-.28.622-.624.622a.621.621 0 0 1-.613-.622v-7.188c0-1.022.837-1.86 1.86-1.86h6.196c1.023 0 1.86.838 1.86 1.86v7.188a.621.621 0 0 1-.613.622"/><path d="M16.112 28.275a.621.621 0 0 1-.613-.622v-8.042a.62.62 0 0 1 .613-.62c.345 0 .624.278.624.62v8.042a.623.623 0 0 1-.624.622M7.33 6.816H1.862A1.866 1.866 0 0 1 0 4.956V3.721c0-1.022.837-1.86 1.861-1.86h1.86a.621.621 0 0 1 0 1.24h-1.86a.623.623 0 0 0-.624.62v1.235c0 .34.28.619.624.619h5.47a.621.621 0 0 1 0 1.241M30.383 6.816h-5.387a.622.622 0 0 1-.623-.62c0-.341.279-.621.623-.621h5.387a.623.623 0 0 0 .624-.619V3.721c0-.341-.28-.62-.624-.62h-1.86a.621.621 0 0 1 0-1.24h1.86c1.022 0 1.86.838 1.86 1.86v1.235c0 1.023-.838 1.86-1.86 1.86"/></svg>