<svg width="29.125" height="32.327" xmlns="http://www.w3.org/2000/svg"><path d="M7.213 32.322c-.167 0-.329-.025-.497-.07-.477-.129-.88-.44-1.121-.873L.08 21.71a.617.617 0 1 1 1.073-.612l5.513 9.668a.612.612 0 0 0 .844.229l18.338-10.45a.618.618 0 1 1 .614 1.072L8.131 32.082c-.285.16-.601.246-.918.246v-.005"/><path d="M8.6 27.249a1.93 1.93 0 0 1-.496-.068c-.478-.131-.88-.44-1.122-.875l-5.52-9.681a.618.618 0 0 1 1.074-.613l5.518 9.68a.613.613 0 0 0 .844.23l18.338-10.45a.618.618 0 1 1 .614 1.073L9.518 27.005c-.285.164-.602.25-.918.25v-.006"/><path d="M22.346 1.245a.59.59 0 0 0-.304.08L4.776 11.163a.621.621 0 0 0-.291.372.597.597 0 0 0 .062.472l4.924 8.644a.62.62 0 0 0 .372.29c.161.045.329.026.472-.06l17.259-9.837a.614.614 0 0 0 .23-.842l-4.926-8.646a.623.623 0 0 0-.371-.292c-.056-.012-.112-.024-.168-.024zM10.01 22.205c-.168 0-.329-.023-.496-.066a1.83 1.83 0 0 1-1.123-.874l-4.924-8.646a1.86 1.86 0 0 1 .694-2.537L21.422.247c.434-.25.936-.31 1.414-.181.477.13.88.441 1.122.875l4.925 8.645c.507.893.191 2.03-.695 2.536l-17.26 9.837c-.285.16-.601.247-.917.247"/><path d="M14.498 12.65a.618.618 0 0 1-.31-1.153l2.294-1.31a.916.916 0 0 0 .342-1.252.928.928 0 0 0-1.26-.353l-2.2 1.252a.617.617 0 1 1-.615-1.072l2.201-1.253a2.163 2.163 0 0 1 2.953.813 2.164 2.164 0 0 1-.8 2.95l-2.295 1.31a.62.62 0 0 1-.304.08l-.006-.012"/><path d="M16.089 15.329a.619.619 0 0 1-.54-.31l-3.07-5.39a.619.619 0 0 1 1.073-.613l3.07 5.39a.617.617 0 0 1-.533.923"/><path d="M14.47 14.815a.614.614 0 0 1-.54-.312.616.616 0 0 1 .229-.842l3.255-1.855a.618.618 0 0 1 .614 1.073l-3.255 1.855a.633.633 0 0 1-.304.081M13.543 13.195a.618.618 0 0 1-.31-1.153l3.255-1.855a.618.618 0 1 1 .614 1.074l-3.256 1.854a.616.616 0 0 1-.303.08"/></svg>