<svg width="26.856" height="28.822" xmlns="http://www.w3.org/2000/svg"><path d="M13.441 1.237c-2.893 0-5.785.224-8.66.677l-2.009.316a1.798 1.798 0 0 0-1.525 1.785v3.696c0 6.94 2.25 12.162 7.31 16.938l1.787 1.693a4.535 4.535 0 0 0 6.241-.013l1.778-1.687c5.144-4.9 7.246-9.785 7.246-16.875V4.003c0-.886-.641-1.63-1.516-1.773l-1.934-.304a55.653 55.653 0 0 0-8.718-.69zm.019 27.585a5.76 5.76 0 0 1-3.963-1.575l-1.796-1.693C2.381 20.53 0 15.024 0 7.718V4.022a3.04 3.04 0 0 1 2.585-3.015l2.01-.316a56.886 56.886 0 0 1 17.768.014l1.934.302a3.022 3.022 0 0 1 2.559 2.996v3.764c0 7.468-2.215 12.622-7.637 17.775l-1.768 1.687a5.762 5.762 0 0 1-3.982 1.588l-.009.005"/><path d="M13.088 22.918c.224.173.53.167.753-.012l1.535-1.415c3.637-3.453 5.89-6.964 5.89-13.724v-1.01a.611.611 0 0 0-.54-.615c-1.898-.21-5.36-.557-7.285-.557-1.925 0-5.776.397-7.312.564a.617.617 0 0 0-.548.614v.954c0 5.725 1.786 9.842 5.954 13.781l1.553 1.427zm.363 1.364c-.419 0-.819-.136-1.154-.41l-.028-.025-1.572-1.444c-4.456-4.198-6.344-8.589-6.344-14.686v-.954c0-.949.707-1.744 1.647-1.849 1.925-.21 5.46-.57 7.441-.57 1.982 0 5.499.354 7.415.57.948.105 1.656.9 1.656 1.85v1.009c0 7.206-2.41 10.94-6.29 14.63l-1.562 1.444a1.883 1.883 0 0 1-1.21.435"/><path d="M21.563 9.994h-.066c-2.102-.23-5.934-.621-8.056-.621-1.032 0-2.594.093-4.65.28a.631.631 0 0 1-.68-.564.628.628 0 0 1 .568-.676c2.093-.187 3.693-.287 4.762-.287 2.178 0 6.066.39 8.187.628a.61.61 0 0 1 .55.681.626.626 0 0 1-.615.552v.007"/></svg>