<svg width="31.701" height="29.135" xmlns="http://www.w3.org/2000/svg"><path d="M14.856 15.9a.622.622 0 0 1-.623-.619V5.24c0-.341.279-.62.623-.62.345 0 .624.279.624.62v10.041c0 .34-.279.619-.624.619M23.545 15.876a.623.623 0 0 1-.624-.62V5.24c0-.341.28-.62.624-.62a.62.62 0 0 1 .614.62v10.016a.62.62 0 0 1-.614.62M9.89 24.199c-1.015 0-1.853.83-1.853 1.848 0 1.017.838 1.848 1.852 1.848 1.014 0 1.851-.831 1.851-1.848a1.857 1.857 0 0 0-1.85-1.848zm0 4.936a3.091 3.091 0 0 1-3.09-3.088 3.09 3.09 0 0 1 6.177 0 3.09 3.09 0 0 1-3.088 3.088M27.917 24.199c-1.013 0-1.85.83-1.85 1.848 0 1.017.837 1.848 1.85 1.848 1.015 0 1.851-.831 1.851-1.848a1.856 1.856 0 0 0-1.85-1.848zm0 4.936a3.09 3.09 0 0 1-3.088-3.088 3.09 3.09 0 0 1 3.088-3.088 3.09 3.09 0 0 1 3.088 3.088 3.09 3.09 0 0 1-3.088 3.088"/><path d="M28.839 16.112H9.183a.623.623 0 0 1-.624-.621c0-.34.278-.619.624-.619h19.172l2.065-7.747c.093-.372.019-.769-.224-1.073a1.216 1.216 0 0 0-.985-.483H6.327a.621.621 0 0 1 0-1.241H29.22c.772 0 1.497.353 1.963.968a2.48 2.48 0 0 1 .437 2.152l-2.177 8.205a.62.62 0 0 1-.604.459"/><path d="M27.89 20.465H11.116c-.837 0-1.581-.57-1.796-1.384L5.108 3.156A2.575 2.575 0 0 0 2.624 1.24h-2A.624.624 0 0 1 0 .62C0 .279.28 0 .624 0h2a3.805 3.805 0 0 1 3.684 2.84l4.213 15.925c.075.274.316.46.596.46H27.89c.344 0 .624.279.624.619 0 .341-.28.621-.624.621"/></svg>