<svg width="32.23" height="22.345" xmlns="http://www.w3.org/2000/svg"><path d="M1.86 1.24a.621.621 0 0 0-.62.62v18.624c0 .341.279.62.62.62H30.37a.623.623 0 0 0 .621-.62V1.86c0-.341-.28-.62-.621-.62zM30.37 22.345H1.86A1.866 1.866 0 0 1 0 20.484V1.86C0 .837.837 0 1.86 0H30.37c1.024 0 1.861.837 1.861 1.86v18.624a1.866 1.866 0 0 1-1.861 1.861"/><path d="M16.06 10.437c-.305 0-.607-.08-.875-.241L.71 1.637a.618.618 0 0 1-.216-.85.616.616 0 0 1 .85-.216L15.81 9.135c.15.086.335.086.484 0L30.97.7a.628.628 0 0 1 .849.23.626.626 0 0 1-.23.85l-14.666 8.435a1.706 1.706 0 0 1-.856.228l-.007-.006M25.314 18.624a3.102 3.102 0 1 1 2.01-5.464.62.62 0 0 1 .067.873.619.619 0 0 1-.874.07 1.86 1.86 0 0 0-1.203-.447c-1.024 0-1.86.837-1.86 1.861 0 1.023.836 1.86 1.86 1.86.453 0 .881-.161 1.221-.46a.62.62 0 0 1 .812.938c-.564.49-1.289.762-2.033.762v.007M7.745 18.624a3.102 3.102 0 1 1 2.009-5.464.62.62 0 0 1 .068.873.619.619 0 0 1-.875.07 1.86 1.86 0 0 0-1.202-.447 1.866 1.866 0 0 0-1.862 1.861c0 1.023.838 1.86 1.862 1.86.446 0 .88-.161 1.221-.46a.62.62 0 0 1 .812.938c-.564.49-1.29.762-2.033.762v.007M16.111 16.727a.622.622 0 0 1-.434-.18l-3.095-3.064a.612.612 0 0 1 0-.875.611.611 0 0 1 .873 0l2.656 2.63 2.654-2.63a.619.619 0 0 1 .874.875l-3.094 3.064a.623.623 0 0 1-.434.18"/><path d="M19.21 18.673a.621.621 0 0 1-.62-.62v-5.01c0-.342.279-.622.62-.622.341 0 .62.28.62.622v5.01c0 .342-.279.62-.62.62M12.997 18.673a.623.623 0 0 1-.622-.62v-5.01c0-.342.28-.622.622-.622.341 0 .62.28.62.622v5.01c0 .342-.279.62-.62.62"/></svg>