<svg width="32.297" height="32.289" xmlns="http://www.w3.org/2000/svg"><path d="M16.112 30.458c-7.87 0-14.27-6.4-14.27-14.264 0-7.862 6.4-14.27 14.27-14.27 2.288 0 4.465.528 6.493 1.564a.615.615 0 0 1 .26.837.619.619 0 0 1-.837.267 12.876 12.876 0 0 0-5.925-1.427C8.93 3.172 3.088 9.006 3.088 16.189c0 7.181 5.843 13.023 13.024 13.023 7.181 0 13.024-5.842 13.024-13.023 0-2.084-.484-4.081-1.424-5.923a.622.622 0 0 1 .27-.837.62.62 0 0 1 .837.267 14.007 14.007 0 0 1 1.562 6.486c0 7.864-6.4 14.264-14.27 14.264v.012"/><path d="M16.112 24.896c-4.8 0-8.707-3.902-8.707-8.702s3.907-8.7 8.707-8.7c.912 0 1.804.143 2.67.415a.622.622 0 0 1 .4.781.615.615 0 0 1-.782.404 7.484 7.484 0 0 0-2.288-.36c-4.112 0-7.461 3.35-7.461 7.46 0 4.112 3.349 7.462 7.46 7.462 4.113 0 7.46-3.35 7.46-7.462 0-.781-.12-1.55-.352-2.281a.616.616 0 0 1 .4-.781.618.618 0 0 1 .78.402c.272.856.42 1.756.42 2.66 0 4.8-3.907 8.702-8.707 8.702M4.316 16.816H.613a.62.62 0 0 1 0-1.242h3.703a.621.621 0 0 1 0 1.242M16.093 5.057a.622.622 0 0 1-.622-.62V.672a.623.623 0 0 1 1.245 0v3.765c0 .341-.279.62-.623.62M31.6 16.816h-3.72a.623.623 0 0 1-.624-.622c0-.341.28-.62.624-.62h3.72c.345 0 .624.279.624.62a.623.623 0 0 1-.624.622M16.093 32.289a.623.623 0 0 1-.622-.621v-3.696a.622.622 0 0 1 1.245 0v3.696a.623.623 0 0 1-.623.62M26.587 5.714h1.749l1.832-1.836h-1.135a.623.623 0 0 1-.624-.62V2.122l-1.813 1.819v1.773zm2.009 1.24h-2.633a.634.634 0 0 1-.436-.18.606.606 0 0 1-.178-.44l.01-2.654c0-.162.065-.323.177-.434l3.06-3.064a.625.625 0 0 1 .679-.136.633.633 0 0 1 .38.57v2.009h2.02a.618.618 0 0 1 .437 1.061l-3.079 3.076a.597.597 0 0 1-.437.179v.013"/><path d="M16.112 16.816a.61.61 0 0 1-.437-.182.601.601 0 0 1 0-.873l9.878-9.885a.63.63 0 0 1 .884 0 .608.608 0 0 1 0 .874l-9.888 9.884a.599.599 0 0 1-.437.182"/><path d="M16.112 13.696a2.506 2.506 0 0 0-2.503 2.498c0 1.378 1.126 2.5 2.503 2.5a2.507 2.507 0 0 0 2.503-2.5 2.506 2.506 0 0 0-2.503-2.498zm0 6.238a3.745 3.745 0 0 1-3.74-3.74 3.75 3.75 0 0 1 3.74-3.738 3.75 3.75 0 0 1 3.74 3.738 3.75 3.75 0 0 1-3.74 3.74"/></svg>