<svg width="24.8" height="25.408" xmlns="http://www.w3.org/2000/svg"><path d="M20.381 25.401H9.925a.623.623 0 0 1-.624-.62c0-.341.28-.62.624-.62h10.456c.679 0 1.238-.558 1.238-1.24 0-.682-.559-1.241-1.238-1.241a.622.622 0 0 1-.622-.619c0-.342.278-.621.622-.621a2.477 2.477 0 0 1 2.475 2.481c0 1.371-1.107 2.48-2.475 2.48"/><path d="M21.693 21.68h-1.321a.623.623 0 0 1-.624-.619c0-.342.28-.621.624-.621h1.321c.688 0 1.247-.557 1.247-1.24 0-.683-.559-1.241-1.247-1.241a.62.62 0 0 1 0-1.24 2.48 2.48 0 1 1 0 4.961"/><path d="M22.325 17.959h-.622a.623.623 0 0 1-.624-.619c0-.341.28-.621.624-.621h.622c.679 0 1.238-.558 1.238-1.24 0-.683-.559-1.24-1.238-1.24h-1.218a.623.623 0 0 1-.623-.62c0-.342.279-.62.623-.62h1.218a2.476 2.476 0 0 1 2.475 2.48c0 1.37-1.107 2.48-2.475 2.48"/><path d="M21.079 14.239a.623.623 0 0 1-.623-.62c0-.342.279-.62.623-.62.68 0 1.237-.559 1.237-1.24 0-.683-.557-1.242-1.237-1.242h-1.32a.622.622 0 0 1-.624-.62c0-.341.278-.62.624-.62h1.32a2.484 2.484 0 0 1 2.484 2.482c0 1.369-1.116 2.48-2.484 2.48"/><path d="M6.363 13.45a.616.616 0 0 1-.437-1.055l2.669-2.664c.084-.088.14-.2.168-.318l1.581-7.92A1.871 1.871 0 0 1 12.167 0c1.842 0 3.33 1.481 3.33 3.305l-.502 5.296a.585.585 0 0 0 .168.478c.112.13.278.205.456.205h4.641c.344 0 .624.279.624.619 0 .341-.28.621-.624.621h-4.641a1.881 1.881 0 0 1-1.378-.608 1.833 1.833 0 0 1-.474-1.427l.484-5.24c0-1.078-.93-2.009-2.066-2.009a.638.638 0 0 0-.632.496l-1.581 7.92c-.075.359-.25.688-.512.948l-2.67 2.667a.6.6 0 0 1-.437.18h.01"/><path d="M1.86 11.764a.622.622 0 0 0-.623.62v11.163c0 .342.279.621.623.621h3.097a.623.623 0 0 0 .624-.621V12.384c0-.341-.28-.62-.624-.62zm3.097 13.644H1.86A1.865 1.865 0 0 1 0 23.547V12.384c0-1.023.836-1.86 1.86-1.86h3.097c1.024 0 1.862.837 1.862 1.86v11.163a1.866 1.866 0 0 1-1.862 1.861"/></svg>