<svg width="24.806" height="32.255" xmlns="http://www.w3.org/2000/svg"><path d="M7.44 8.682a1.24 1.24 0 1 1 0-2.48v2.48M17.362 8.682a1.239 1.239 0 1 0 0-2.48v2.48"/><path d="M12.402 1.24A4.346 4.346 0 0 0 8.06 5.582c0 2.567 2.103 6.82 4.342 6.82 2.238 0 4.34-4.253 4.34-6.82a4.346 4.346 0 0 0-4.34-4.342zm0 12.404c-3.28 0-5.581-5.228-5.581-8.062A5.59 5.59 0 0 1 12.402 0a5.59 5.59 0 0 1 5.582 5.582c0 2.834-2.302 8.062-5.582 8.062"/><path d="M15.918 6.412a5.626 5.626 0 0 1-3.956-1.63.619.619 0 0 1 .874-.875 4.368 4.368 0 0 0 4.212 1.122.622.622 0 0 1 .762.434.627.627 0 0 1-.434.762c-.483.131-.974.194-1.458.194v-.007"/><path d="M12.401 4.961h-1.86a.623.623 0 0 1-.62-.621c0-.34.278-.619.62-.619h1.86c.34 0 .62.279.62.619 0 .342-.28.621-.62.621M22.946 32.25H1.86A1.866 1.866 0 0 1 0 30.387v-8.694a5.87 5.87 0 0 1 4.217-5.612l3.1-.9a.62.62 0 0 1 .348 1.19l-3.102.9a4.618 4.618 0 0 0-3.323 4.422v8.694c0 .341.28.62.62.62h21.086c.34 0 .62-.279.62-.62v-8.65a4.621 4.621 0 0 0-3.281-4.405l-3.237-.968a.615.615 0 0 1-.415-.768.614.614 0 0 1 .768-.415l3.238.967a5.871 5.871 0 0 1 4.167 5.594v8.65c0 1.024-.837 1.862-1.86 1.862v-.006"/><path d="M12.4 28.533a.609.609 0 0 1-.404-.149l-2.102-1.816a.612.612 0 0 1-.193-.627l1.452-5.501a.622.622 0 0 1 .756-.44c.33.087.527.428.441.756l-1.353 5.13 1.402 1.209 1.396-1.21-1.352-5.129a.62.62 0 0 1 .44-.756c.33-.087.67.112.757.44l1.451 5.501a.615.615 0 0 1-.192.627l-2.097 1.816a.618.618 0 0 1-.403.15"/><path d="M12.4 21.215a.626.626 0 0 1-.386-.13l-1.6-1.258a.62.62 0 0 1 .763-.975l1.222.956 1.321-1.03a.62.62 0 0 1 .763.975l-1.706 1.325a.619.619 0 0 1-.378.131v.006"/><path d="M10.165 19.888h-.05a1.855 1.855 0 0 1-1.575-.948l-1.594-2.865a.621.621 0 0 1 1.084-.603l1.589 2.86c.155.273.415.31.52.31a.6.6 0 0 0 .54-.291l1.147-1.811a.617.617 0 0 1 .856-.193.615.615 0 0 1 .192.855l-1.146 1.813a1.85 1.85 0 0 1-1.57.868l.007.005"/><path d="M14.546 19.888a1.833 1.833 0 0 1-1.569-.868l-1.142-1.81a.623.623 0 0 1 .193-.857.627.627 0 0 1 .856.194l1.141 1.809a.62.62 0 0 0 1.066-.024l1.595-2.866a.62.62 0 0 1 1.085.602l-1.6 2.865c-.329.576-.912.93-1.575.95h-.05v.005M5.518 32a.614.614 0 0 1-.6-.47l-1.18-4.716a.615.615 0 0 1 .454-.749.613.613 0 0 1 .75.452l1.178 4.714a.616.616 0 0 1-.602.769M19.26 32.08c-.05 0-.099 0-.148-.019a.62.62 0 0 1-.453-.75l1.197-4.794a.613.613 0 0 1 .75-.452c.335.08.534.422.453.75l-1.197 4.794a.614.614 0 0 1-.601.471"/></svg>