<svg width="31.052" height="31.045" xmlns="http://www.w3.org/2000/svg"><path d="M15.527 31.045C6.968 31.045 0 24.081 0 15.522 0 6.964 6.968 0 15.527 0c2.204 0 4.334.453 6.334 1.345.307.143.447.508.307.819a.618.618 0 0 1-.819.31 14.194 14.194 0 0 0-5.822-1.24c-7.88.006-14.28 6.412-14.28 14.288s6.4 14.283 14.28 14.283c7.878 0 14.278-6.407 14.278-14.283 0-2.524-.66-4.998-1.916-7.169a.616.616 0 0 1 .223-.85.618.618 0 0 1 .847.225 15.519 15.519 0 0 1 2.093 7.788c0 8.559-6.959 15.524-15.516 15.524l-.01.005"/><path d="M15.527 22.493a.597.597 0 0 1-.531-.31l-6.735-11.69a.621.621 0 0 1 1.079-.621l6.196 10.761L26.177 2.356a.613.613 0 0 1 .847-.223c.297.174.4.55.223.85L16.065 22.188a.618.618 0 0 1-.529.31l-.01-.006"/></svg>