<svg width="32.233" height="31.322" xmlns="http://www.w3.org/2000/svg"><path d="M7.805 16.246a.623.623 0 0 1-.624-.621V11.39a.623.623 0 0 1 1.247 0v4.235a.623.623 0 0 1-.623.621M2.493 16.246a.622.622 0 0 1-.614-.621V11.39c0-.341.28-.621.614-.621.344 0 .623.28.623.621v4.235a.623.623 0 0 1-.623.621M29.75 16.333a.62.62 0 0 1-.614-.62V11.39c0-.341.279-.621.613-.621.344 0 .624.28.624.621v4.323c0 .34-.28.62-.624.62M24.419 16.333a.623.623 0 0 1-.623-.62V11.39c0-.341.279-.621.623-.621.334 0 .614.28.614.621v4.323c0 .34-.28.62-.614.62M12.577 14.478a.621.621 0 0 1-.614-.62v-5.96c0-.341.28-.62.614-.62.344 0 .623.279.623.62v5.96c0 .341-.279.62-.623.62M19.647 14.478a.622.622 0 0 1-.623-.62V8.519h-2.755a.621.621 0 0 1 0-1.241h3.378c.344 0 .624.279.624.62v5.96c0 .341-.28.62-.624.62"/><path d="M19.647 8.518a.615.615 0 0 1-.55-.893l.736-1.488c.13-.267.204-.571.204-.868 0-.627-.306-1.216-.809-1.588l-3.135-2.288-3.088 2.288c-.502.372-.8.961-.8 1.581 0 .31.064.608.204.881l.726 1.488c.149.31.028.676-.279.831a.62.62 0 0 1-.828-.279l-.735-1.489a3.247 3.247 0 0 1-.325-1.419c0-1.018.483-1.985 1.301-2.586L15.721.122a.628.628 0 0 1 .744 0l3.498 2.56a3.228 3.228 0 0 1 1.312 2.587c0 .49-.122.98-.326 1.42l-.734 1.482a.618.618 0 0 1-.559.347h-.01M2.493 12.015a.627.627 0 0 1-.558-.346l-.55-1.116a2.554 2.554 0 0 1-.269-1.135c0-.819.39-1.588 1.043-2.072l2.604-1.93a.637.637 0 0 1 .744 0l2.624 1.93a2.554 2.554 0 0 1 .781 3.207l-.55 1.116a.627.627 0 0 1-.557.346H6.204a.622.622 0 0 1-.623-.618c0-.343.279-.622.623-.622h1.219l.373-.769c.092-.179.139-.384.139-.588 0-.423-.204-.819-.54-1.068l-2.26-1.656L2.893 8.35a1.326 1.326 0 0 0-.4 1.663l.548 1.116a.62.62 0 0 1-.278.83.579.579 0 0 1-.27.063v-.007M24.428 12.015a.615.615 0 0 1-.557-.346l-.55-1.116a2.536 2.536 0 0 1-.269-1.135c0-.819.39-1.588 1.041-2.072l2.606-1.93c.213-.16.51-.16.734 0l2.632 1.93a2.567 2.567 0 0 1 1.052 2.072c0 .39-.093.781-.27 1.135l-.548 1.116a.64.64 0 0 1-.559.346h-1.6a.62.62 0 0 1 0-1.24h1.21l.38-.769c.085-.179.14-.384.14-.588a1.32 1.32 0 0 0-.549-1.068l-2.26-1.656L24.82 8.35a1.336 1.336 0 0 0-.4 1.663l.549 1.116a.62.62 0 0 1-.279.83.58.58 0 0 1-.27.063l.009-.007M22.55 31.13a.622.622 0 0 1-.615-.621v-11.2a5.815 5.815 0 0 0-5.814-5.811 5.816 5.816 0 0 0-5.814 5.81V30.41a.62.62 0 0 1-.614.62.623.623 0 0 1-.624-.62V19.309c0-3.888 3.164-7.051 7.052-7.051a7.058 7.058 0 0 1 7.051 7.05v11.2a.623.623 0 0 1-.623.622"/><path d="M18.596 31.16a.624.624 0 0 1-.624-.62v-8.52c0-1.023-.837-1.86-1.86-1.86a1.866 1.866 0 0 0-1.861 1.86v8.52c0 .34-.279.62-.623.62a.62.62 0 0 1-.613-.62v-8.52a3.099 3.099 0 0 1 3.097-3.102 3.099 3.099 0 0 1 3.097 3.101v8.522a.62.62 0 0 1-.613.62"/><path d="M1.247 30.08h7.822V19.539c0-1.221-.576-2.295-1.628-3.025a3.791 3.791 0 0 0-2.176-.683h-.214a3.797 3.797 0 0 0-3.804 3.801zm21.925 0h7.824V19.632a3.8 3.8 0 0 0-3.805-3.801h-.214c-.79 0-1.544.236-2.177.683a3.8 3.8 0 0 0-1.628 3.118zm8.447 1.242H.623a.622.622 0 0 1-.623-.62v-11.07c0-1.65.81-3.194 2.159-4.137a4.968 4.968 0 0 1 2.882-.905h.224c1.042 0 2.028.316 2.884.905 1.367.955 2.158 2.431 2.158 4.043v10.543h11.628V19.63c0-1.649.8-3.193 2.158-4.136a4.954 4.954 0 0 1 2.884-.905h.214c1.042 0 2.037.316 2.884.905a5.049 5.049 0 0 1 2.158 4.136v11.071c0 .341-.278.62-.624.62h.01"/></svg>