<svg width="32.143" height="30.119" xmlns="http://www.w3.org/2000/svg"><path d="M31.524 30.12H.621A.623.623 0 0 1 0 29.5c0-.342.28-.62.62-.62h30.904c.34 0 .62.278.62.62 0 .34-.28.62-.62.62M14.814 22.18a.622.622 0 0 1-.62-.62V6.114c0-.342.279-.62.62-.62.34 0 .62.278.62.62V21.56c0 .34-.28.62-.62.62M9.847 25.802a.621.621 0 0 1-.62-.619V6.113c0-.342.278-.62.62-.62.34 0 .62.278.62.62v19.07c0 .34-.28.619-.62.619M3.204 6.578a.623.623 0 0 1-.316-1.16L12.098.09a.624.624 0 0 1 .848.224.624.624 0 0 1-.223.85L3.513 6.49a.625.625 0 0 1-.309.081v.007"/><path d="M10.436 5.3H27.49L12.706 1.35l-2.277 3.956zm19.665 1.24-26.66.007a.622.622 0 0 1 0-1.241h5.562l2.76-4.8a.907.907 0 0 1 1.01-.421l17.558 4.7c.44.118.719.534.657.98a.89.89 0 0 1-.887.782"/><path d="M15.403 6.434a.624.624 0 0 1-.54-.31L11.869.935a.62.62 0 0 1 .23-.85.62.62 0 0 1 .85.23l2.995 5.19a.62.62 0 0 1-.54.93M25.353 13.053a.623.623 0 0 1-.621-.622v-6.25c0-.342.279-.62.62-.62.34 0 .62.278.62.62v6.25c0 .342-.28.622-.62.622M4.89 10.274H3.627a1.853 1.853 0 0 1-1.849-1.85V7.136c0-1.017.83-1.848 1.849-1.848a.621.621 0 0 1 0 1.24.605.605 0 0 0-.609.608v1.29c0 .336.274.609.609.609H4.89a.609.609 0 0 0 .607-.61V6.05c0-.341.28-.62.62-.62.34 0 .62.279.62.62v2.375c0 1.018-.83 1.849-1.847 1.849M24.111 16.487v1.794c0 .34.28.618.62.618h1.26c.34 0 .62-.278.62-.618v-1.794zm1.88 3.654h-1.26a1.863 1.863 0 0 1-1.86-1.86v-2.414c0-.34.28-.62.62-.62h3.74c.34 0 .62.28.62.62v2.414c0 1.022-.83 1.86-1.86 1.86"/><path d="M23.516 16.333a.616.616 0 0 1-.54-.924l1.842-3.226a.623.623 0 0 1 1.08 0l1.867 3.226a.625.625 0 0 1-.224.849.622.622 0 0 1-.849-.223l-1.327-2.29-1.31 2.29a.617.617 0 0 1-.539.31v-.012M17.538 29.598a.622.622 0 0 1-.62-.62V26.43a.623.623 0 0 0-.62-.621H8.26c-.341 0-.62.28-.62.62v2.549c0 .341-.28.62-.62.62a.621.621 0 0 1-.62-.62V26.43c0-1.024.837-1.861 1.86-1.861h8.037c1.023 0 1.86.837 1.86 1.86v2.549c0 .341-.278.62-.62.62"/></svg>