<?xml version="1.0" encoding="UTF-8" standalone="no"?>
<!-- Created with Inkscape (http://www.inkscape.org/) -->

<svg
   version="1.1"
   id="svg2"
   width="29.26207"
   height="15.473328"
   viewBox="0 0 29.262069 15.473328"
   sodipodi:docname="icons.eps"
   inkscape:export-filename="icons.eps.svg"
   inkscape:export-xdpi="96"
   inkscape:export-ydpi="96"
   xmlns:inkscape="http://www.inkscape.org/namespaces/inkscape"
   xmlns:sodipodi="http://sodipodi.sourceforge.net/DTD/sodipodi-0.dtd"
   xmlns="http://www.w3.org/2000/svg"
   xmlns:svg="http://www.w3.org/2000/svg">
  <defs
     id="defs6" />
  <sodipodi:namedview
     id="namedview4"
     pagecolor="#ffffff"
     bordercolor="#000000"
     borderopacity="0.25"
     inkscape:showpageshadow="2"
     inkscape:pageopacity="0.0"
     inkscape:pagecheckerboard="0"
     inkscape:deskcolor="#d1d1d1"
     showgrid="false" />
  <g
     id="g10"
     inkscape:groupmode="layer"
     inkscape:label="Page 1"
     transform="matrix(1.3333333,0,0,-1.3333333,-83.658212,172.25202)">
    <g
       id="g12"
       transform="scale(0.1)">
      <path
         d="m 639.496,1268.96 20.652,-76.93 c 1.067,-4.05 4.786,-6.88 8.973,-6.88 h 136.051 c 4.183,0 7.91,2.83 8.976,6.88 l 20.653,76.93 -42.281,-24.42 c -7.305,-4.18 -16.512,-2.98 -22.465,2.98 l -33.024,33.11 -32.789,-33.07 c -5.961,-6 -15.211,-7.25 -22.515,-3.02 z m 165.676,-93.12 H 669.121 c -8.414,0 -15.812,5.68 -17.953,13.77 l -23.582,87.77 c -0.469,1.82 0.187,3.77 1.676,4.89 1.484,1.15 3.535,1.29 5.16,0.32 l 51.961,-30 c 3.668,-2.14 8.273,-1.49 11.25,1.49 l 36.094,36.42 c 0.886,0.88 2.05,1.39 3.304,1.39 1.258,0 2.414,-0.51 3.301,-1.35 l 36.328,-36.42 c 2.973,-2.97 7.578,-3.58 11.254,-1.48 l 52,30 c 1.633,0.92 3.68,0.78 5.164,-0.33 1.492,-1.16 2.141,-3.07 1.676,-4.89 l -23.582,-87.77 c -2.188,-8.09 -9.582,-13.76 -17.953,-13.76 l -0.047,-0.05"
        
         id="path4408" />
      <path
         d="M 822.445,1203.66 H 679.18 c -2.551,0 -4.645,2.09 -4.645,4.65 0,2.55 2.094,4.65 4.645,4.65 h 143.265 c 2.555,0 4.645,-2.1 4.645,-4.65 0,-2.56 -2.09,-4.65 -4.645,-4.65"
        
         id="path4410" />
    </g>
  </g>
</svg>
