<svg width="32.243" height="24.335" xmlns="http://www.w3.org/2000/svg"><path d="M8.68 12.365a.622.622 0 0 1-.624-.62V1.86a.622.622 0 0 0-.623-.62H6.224a.623.623 0 0 0-.624.62v9.885c0 .342-.279.62-.623.62a.621.621 0 0 1-.614-.62V1.86C4.363.836 5.2 0 6.224 0h1.21c1.022 0 1.86.836 1.86 1.86v9.885a.62.62 0 0 1-.614.62M12.428 12.365a.62.62 0 0 1-.613-.62V1.86c0-1.024.837-1.86 1.86-1.86h1.209c1.024 0 1.861.836 1.861 1.86v6.227c0 .341-.28.62-.614.62a.622.622 0 0 1-.623-.62V1.86c0-.341-.28-.62-.624-.62h-1.21a.622.622 0 0 0-.622.62v9.885c0 .342-.28.62-.624.62"/><path d="M2.39 24.217a.621.621 0 0 1-.613-.621V13.135c0-1.024.838-1.86 1.86-1.86H18.69l3.432-2.166a1.833 1.833 0 0 1 1.89-.056c.604.335.966.943.966 1.631v.093l2.688-1.68a1.829 1.829 0 0 1 1.89-.05c.594.334.957.944.957 1.625v9.284c0 .341-.279.62-.623.62a.621.621 0 0 1-.614-.62v-9.284a.591.591 0 0 0-.326-.54.586.586 0 0 0-.622.019l-3.647 2.277a.628.628 0 0 1-.624.019.636.636 0 0 1-.325-.547v-1.216a.616.616 0 0 0-.948-.527L19.2 12.421a.616.616 0 0 1-.325.094H3.637a.622.622 0 0 0-.622.62v10.461c0 .341-.28.621-.624.621"/><path d="M31.63 24.335H.614a.62.62 0 0 1 0-1.242h31.014a.621.621 0 0 1 0 1.242"/></svg>