<svg width="28.449" height="25.135" xmlns="http://www.w3.org/2000/svg"><path d="M16.452 25.128a2.463 2.463 0 0 1-1.75-.725l-.874-.875a.619.619 0 0 1 .875-.874l.874.874a1.236 1.236 0 0 0 1.75 0 1.244 1.244 0 0 0 0-1.755l-1.183-1.185a.617.617 0 1 1 .875-.873L18.2 20.9a2.483 2.483 0 0 1 0 3.51 2.46 2.46 0 0 1-1.748.725v-.007"/><path d="M20.015 23.43a2.465 2.465 0 0 1-1.75-.726l-2.418-2.419a.619.619 0 0 1 .874-.874l2.419 2.419a1.236 1.236 0 0 0 1.75 0 1.244 1.244 0 0 0 0-1.755l-1.815-1.818a.619.619 0 0 1 .874-.874l1.815 1.817a2.486 2.486 0 0 1 0 3.51 2.465 2.465 0 0 1-1.75.725v-.005"/><path d="M23.465 21.612a2.483 2.483 0 0 1-1.757-.725l-2.624-2.63a.619.619 0 0 1 .875-.874l2.622 2.629a1.242 1.242 0 1 0 1.759-1.755l-2.632-2.629a.616.616 0 0 1 0-.874.615.615 0 0 1 .873 0l2.634 2.629c.474.47.725 1.092.725 1.754a2.477 2.477 0 0 1-2.484 2.481l.01-.006"/><path d="M25.224 18.108c-.66 0-1.284-.26-1.759-.725l-1.748-1.755a.616.616 0 0 1 0-.874.615.615 0 0 1 .874 0l1.749 1.754c.475.47 1.284.47 1.759 0a1.241 1.241 0 0 0 0-1.754l-1.759-1.757a.617.617 0 1 1 .875-.873l1.758 1.755a2.486 2.486 0 0 1 0 3.509 2.458 2.458 0 0 1-1.758.727l.009-.007M5.14 12.484c-.316 0-.633.116-.875.359l-.297.297a1.244 1.244 0 0 0 0 1.756 1.26 1.26 0 0 0 1.757 0l.299-.299a1.244 1.244 0 0 0 0-1.754 1.227 1.227 0 0 0-.875-.359zm-.297 4.02a2.485 2.485 0 0 1-1.75-4.237l.298-.299a2.48 2.48 0 1 1 3.506 3.51l-.297.298a2.446 2.446 0 0 1-1.757.727"/><path d="M9.084 13.804c-.316 0-.632.119-.875.36L6.6 15.776a1.244 1.244 0 0 0 0 1.756 1.247 1.247 0 0 0 1.759 0l1.609-1.613a1.242 1.242 0 0 0 0-1.755 1.235 1.235 0 0 0-.875-.36zm-1.61 5.333c-.66 0-1.283-.26-1.758-.725a2.486 2.486 0 0 1 0-3.51l1.619-1.613a2.484 2.484 0 0 1 3.508 0 2.487 2.487 0 0 1 0 3.511l-1.61 1.612a2.473 2.473 0 0 1-1.758.725"/><path d="M12.359 15.795c-.316 0-.634.118-.875.36l-2.26 2.257a1.242 1.242 0 0 0 0 1.755 1.267 1.267 0 0 0 1.757 0l2.262-2.258a1.242 1.242 0 0 0 0-1.754 1.288 1.288 0 0 0-.875-.36zm-2.262 5.972c-.66 0-1.282-.26-1.748-.725a2.483 2.483 0 0 1 0-3.51l2.251-2.257a2.491 2.491 0 0 1 3.516 0 2.483 2.483 0 0 1 0 3.51l-2.26 2.257a2.44 2.44 0 0 1-1.759.725"/><path d="M14.443 18.97c-.318 0-.643.125-.884.36l-1.703 1.705a1.243 1.243 0 0 0 1.759 1.756l1.701-1.706a1.242 1.242 0 0 0 0-1.754 1.223 1.223 0 0 0-.873-.36zm-1.703 5.427a2.492 2.492 0 0 1-1.759-.725 2.488 2.488 0 0 1 0-3.51l1.703-1.706a2.491 2.491 0 0 1 3.516 0 2.484 2.484 0 0 1 0 3.51l-1.71 1.706a2.473 2.473 0 0 1-1.75.725M11.4 9.673c-.8 0-1.6-.304-2.204-.91a1.847 1.847 0 0 1 0-2.606l4.585-4.588a.617.617 0 1 1 .875.874l-4.585 4.59a.603.603 0 0 0 0 .849 1.886 1.886 0 0 0 2.66 0l4.94-4.825a.618.618 0 0 1 .874.012.611.611 0 0 1-.009.875l-4.94 4.819a3.118 3.118 0 0 1-2.205.905l.009.005M25.15 13.544a.631.631 0 0 1-.438-.18l-5.19-5.19a.619.619 0 0 1 .874-.875l5.19 5.19a.619.619 0 0 1-.446 1.055h.01"/><path d="M.981 10.424a.624.624 0 0 1-.437-.18 1.83 1.83 0 0 1 0-2.604l6.065-6.077A5.301 5.301 0 0 1 10.387 0h.51c1.424 0 2.764.551 3.768 1.563a.614.614 0 0 1 0 .873.616.616 0 0 1-.874 0 4.04 4.04 0 0 0-2.884-1.196h-.52c-1.09 0-2.122.427-2.884 1.196L1.419 8.513a.61.61 0 0 0-.178.429c0 .16.066.31.178.427a.62.62 0 0 1-.447 1.055h.01"/><path d="M27.465 10.424a.62.62 0 0 1-.437-1.055.594.594 0 0 0 0-.849l-6.11-6.12a3.936 3.936 0 0 0-2.791-1.16h-.634c-1.05 0-2.046.41-2.79 1.16a.618.618 0 1 1-.875-.875A5.223 5.223 0 0 1 17.503 0h.633A5.16 5.16 0 0 1 21.8 1.519l6.112 6.11a1.847 1.847 0 0 1 0 2.603.621.621 0 0 1-.447.18v.012"/></svg>