<svg width="30.34" height="27.735" xmlns="http://www.w3.org/2000/svg"><path d="M8.076 12.23a.621.621 0 0 1-.62-.62V5.52c0-.341.279-.621.62-.621.342 0 .62.28.62.621v6.09c0 .34-.278.62-.62.62"/><path d="M5.646 8.961a.62.62 0 0 1-.472-1.023l2.425-2.82a.62.62 0 1 1 .943.805L6.118 8.745a.632.632 0 0 1-.472.216"/><path d="M10.502 8.961a.63.63 0 0 1-.472-.216L7.606 5.923a.62.62 0 1 1 .942-.806l2.426 2.822a.62.62 0 0 1-.472 1.022M22.787 8.72h-3.163a.621.621 0 0 1 0-1.241h3.163a1.23 1.23 0 0 0 0-2.462h-3.039a.622.622 0 0 1-.62-.62c0-.341.28-.62.62-.62h3.039a2.47 2.47 0 0 1 2.468 2.468 2.476 2.476 0 0 1-2.468 2.48V8.72"/><path d="M19.694 12.447a.621.621 0 0 1-.62-.62v-7.43c0-.341.278-.62.62-.62.34 0 .62.279.62.62v7.435a.622.622 0 0 1-.62.621v-.006"/><path d="M22.799 10.952h-4.49a.623.623 0 0 1-.62-.62c0-.341.28-.62.62-.62h4.49c.341 0 .62.279.62.62 0 .341-.279.62-.62.62M22.799 8.72h-4.49a.623.623 0 0 1-.62-.62c0-.341.28-.621.62-.621h4.49a.621.621 0 0 1 0 1.241"/><path d="M21.472 1.241a6.642 6.642 0 0 0-6.634 6.635 6.643 6.643 0 0 0 6.634 6.636 6.644 6.644 0 0 0 6.638-6.636c0-3.659-2.978-6.635-6.638-6.635zm0 14.518c-4.34 0-7.874-3.536-7.874-7.876C13.598 3.54 17.126 0 21.472 0c4.35 0 7.878 3.535 7.878 7.876s-3.535 7.877-7.878 7.877v.006M17.164 23.448c-.21 0-.428-.024-.645-.085l-6.257-1.688a.625.625 0 0 1-.44-.763.625.625 0 0 1 .762-.44l6.258 1.687a1.242 1.242 0 0 0 1.396-1.818 1.246 1.246 0 0 0-.751-.576L8.06 17.223c-.056-.014-.105-.026-.161-.026H5.07a.621.621 0 0 1-.62-.62c0-.341.279-.62.62-.62h2.828c.161 0 .33.024.484.062l9.427 2.537a2.479 2.479 0 0 1 1.506 1.16c.33.576.415 1.24.248 1.884a2.487 2.487 0 0 1-2.393 1.836l-.007.012"/><path d="M16.136 27.735c-.174 0-.341-.026-.51-.075l-8.184-2.339a.523.523 0 0 0-.168-.024h-2.09a.622.622 0 0 1 0-1.241h2.09c.173 0 .348.025.509.075l8.185 2.338c.106.031.224.031.33 0l11.994-3.213a1.1 1.1 0 0 0 .806-1.017 1.065 1.065 0 0 0-.342-.819 1.1 1.1 0 0 0-.842-.29l-8.708.793a.625.625 0 0 1-.676-.564.624.624 0 0 1 .564-.676l8.708-.794a2.355 2.355 0 0 1 1.804.62c.484.454.75 1.098.733 1.76a2.353 2.353 0 0 1-1.725 2.184L16.62 27.665a1.8 1.8 0 0 1-.484.063v.007"/><path d="M3.628 26.636H1.954A1.96 1.96 0 0 1 0 24.683v-7.97c0-1.072.874-1.953 1.954-1.953h1.68c1.073 0 1.953.875 1.953 1.953v3.375a.621.621 0 0 1-1.24 0v-3.375A.713.713 0 0 0 3.634 16h-1.68a.713.713 0 0 0-.714.713v7.97a.71.71 0 0 0 .714.713h1.68c.39 0 .713-.316.713-.713v-.875c0-.34.279-.62.62-.62.341 0 .62.28.62.62v.875c0 1.08-.875 1.953-1.953 1.953h-.006"/></svg>