<svg width="32.58" height="29.505" xmlns="http://www.w3.org/2000/svg"><path d="M31.959 10.093c-.122 0-.187 0-.307-.063L16.582 1.35a.568.568 0 0 0-.623 0L.953 10.03c-.306.187-.678.063-.865-.246-.185-.311-.065-.683.243-.87L15.344.233c.559-.31 1.237-.31 1.861 0l15.07 8.681c.306.187.372.559.242.87-.121.246-.308.309-.558.309"/><path d="M4.432 24.481h23.815v-12.65l-11.6-7.01c-.186-.123-.438-.123-.68 0l-11.535 7.01zm24.43 1.24H3.808c-.372 0-.624-.248-.624-.62V11.458c0-.249.13-.434.318-.558l11.84-7.132c.625-.372 1.369-.372 1.928 0L29.11 10.9c.188.124.308.309.308.558v13.643c.065.31-.186.62-.558.62"/><path d="M30.415 24.481H2.255a1.957 1.957 0 0 0-1.98 1.985v1.054c0 1.116.865 1.985 1.98 1.985H30.48c1.116 0 1.981-.87 1.981-1.985v-1.054c-.065-1.117-.93-1.985-2.046-1.985zm0 1.24c.437 0 .744.31.744.745v1.054c0 .434-.307.744-.744.744H2.255a.72.72 0 0 1-.743-.744v-1.054a.72.72 0 0 1 .744-.745h28.159M10.703 22.497a.566.566 0 0 1-.438-.187.595.595 0 0 1 0-.868l11.228-11.225a.596.596 0 0 1 .866 0c.25.248.25.62 0 .868L11.196 22.31a.695.695 0 0 1-.493.187M20.061 18.652c-.68 0-1.237.558-1.237 1.24 0 .682.557 1.241 1.237 1.241.688 0 1.246-.559 1.246-1.241s-.558-1.24-1.246-1.24zm0 3.782a2.486 2.486 0 0 1-2.474-2.48 2.486 2.486 0 0 1 2.474-2.481 2.488 2.488 0 0 1 2.483 2.481 2.488 2.488 0 0 1-2.483 2.48M12.619 11.209c-.68 0-1.238.557-1.238 1.24a1.243 1.243 0 0 0 2.484 0c0-.683-.558-1.24-1.246-1.24zm0 3.721a2.487 2.487 0 0 1-2.475-2.481 2.486 2.486 0 0 1 2.475-2.48 2.488 2.488 0 0 1 2.484 2.48 2.49 2.49 0 0 1-2.484 2.481"/></svg>