<svg width="24.801" height="32.249" xmlns="http://www.w3.org/2000/svg"><path d="M7.312 8.95a.679.679 0 0 1-.241-.05C4.94 7.97 3.72 6.53 3.72 4.963 3.712 2.177 7.527 0 12.392 0c4.875 0 8.688 2.177 8.688 4.963 0 1.562-1.219 2.996-3.33 3.93a.616.616 0 0 1-.82-.316.62.62 0 0 1 .318-.818c1.645-.726 2.585-1.743 2.585-2.796 0-2.016-3.404-3.722-7.441-3.722-4.028 0-7.443 1.706-7.443 3.722 0 1.041.978 2.084 2.606 2.802.316.138.464.503.316.819a.603.603 0 0 1-.568.372l.009-.007M7.443 13.26a1.24 1.24 0 1 1 0-2.48v2.48M17.359 13.26a1.24 1.24 0 1 0 0-2.48v2.48"/><path d="M12.401 18.221c-2.874 0-4.949-4.006-5.442-6.716a7.081 7.081 0 0 1-.14-1.346c0-.136 0-.267.009-.403a.619.619 0 0 1 .67-.576.63.63 0 0 1 .577.663c-.01.105-.019.21-.019.316 0 .334.037.713.112 1.122.503 2.699 2.363 5.699 4.233 5.699 1.87 0 3.628-2.84 4.186-5.493.102-.484.158-.931.158-1.328 0-.118 0-.23-.018-.342a.625.625 0 0 1 .576-.662.615.615 0 0 1 .661.569c.01.144.019.287.019.435 0 .484-.066 1.012-.178 1.581-.566 2.692-2.622 6.481-5.404 6.481M22.94 32.25H1.861A1.866 1.866 0 0 1 0 30.39v-3.691a5.867 5.867 0 0 1 4.215-5.612l3.172-.974c.334-.1.678.08.781.41a.626.626 0 0 1-.41.774l-3.18.98A4.62 4.62 0 0 0 1.246 26.7v3.69c0 .34.28.62.614.62H22.94c.345 0 .624-.28.624-.62v-3.641a4.624 4.624 0 0 0-3.284-4.403l-3.33-1.048a.617.617 0 0 1-.41-.774.628.628 0 0 1 .781-.404l3.331 1.042c2.437.731 4.15 3.032 4.15 5.587v3.641c0 1.023-.838 1.86-1.862 1.86"/><path d="M10.103 25.805h-.019a.606.606 0 0 1-.52-.316l-2.53-4.484a.62.62 0 0 1 .24-.842.611.611 0 0 1 .838.236l2.019 3.577 1.702-2.69a.614.614 0 0 1 .856-.194.616.616 0 0 1 .186.856l-2.251 3.567a.612.612 0 0 1-.521.29"/><path d="M14.605 25.805a.626.626 0 0 1-.521-.29l-2.25-3.567a.616.616 0 1 1 1.04-.663l1.703 2.691 2.019-3.577a.612.612 0 0 1 .837-.236c.298.166.41.545.243.842l-2.53 4.484a.596.596 0 0 1-.522.316h-.019M8.708 9.873l.856 1.086c.064.086.148.13.241.13h5.098c.093 0 .168-.044.242-.124l.894-1.092zm6.195 2.456H9.805a1.57 1.57 0 0 1-1.228-.608L6.95 9.632a.597.597 0 0 1-.065-.652.621.621 0 0 1 .559-.347h9.916a.63.63 0 0 1 .624.62.636.636 0 0 1-.187.447l-1.693 2.052a1.551 1.551 0 0 1-1.191.577h-.01"/><path d="M17.359 10.493a.622.622 0 0 1-.623-.62v-3.05a.622.622 0 0 0-.624-.62H8.68a.623.623 0 0 0-.624.62v3.05a.62.62 0 0 1-.613.62.623.623 0 0 1-.624-.62v-3.05c0-1.024.837-1.862 1.861-1.862h7.432c1.024 0 1.861.838 1.861 1.862v3.05c0 .342-.28.62-.614.62M20.457 28.53h-2.484a.621.621 0 0 1 0-1.241l2.484-.001c.344 0 .623.279.623.62a.623.623 0 0 1-.623.621"/></svg>