<svg width="32.441" height="30.563" xmlns="http://www.w3.org/2000/svg"><path d="M2.144 26.88a.666.666 0 0 0-.67.663v1.11c0 .366.297.663.67.663h28.39c.373 0 .67-.297.67-.664v-1.109a.665.665 0 0 0-.67-.664zm28.39 3.683H2.145A1.903 1.903 0 0 1 .236 28.66v-1.11a1.91 1.91 0 0 1 1.908-1.905h28.39c1.06 0 1.907.856 1.907 1.906v1.11a1.91 1.91 0 0 1-1.906 1.903M16.283 6.414a3.108 3.108 0 0 0-3.107 3.1 3.108 3.108 0 0 0 3.107 3.101 3.1 3.1 0 0 0 0-6.201zm0 7.442a4.345 4.345 0 0 1-4.344-4.342 4.345 4.345 0 0 1 4.344-4.342 4.344 4.344 0 0 1 4.336 4.342 4.344 4.344 0 0 1-4.336 4.342"/><path d="M31.8 10.103h-8.047a.623.623 0 0 1-.624-.62c0-.341.28-.62.624-.62h5.76L16.608 1.328a.621.621 0 0 0-.624 0L2.935 8.863h5.934c.344 0 .623.279.623.62 0 .341-.279.62-.623.62H.617a.615.615 0 0 1-.594-.459.61.61 0 0 1 .288-.7L15.363.248a1.882 1.882 0 0 1 1.87 0l14.874 8.696a.62.62 0 0 1-.316 1.16h.01M7 26.7a.622.622 0 0 1-.624-.62V13.855H3.92V26.08c0 .341-.279.62-.623.62a.62.62 0 0 1-.614-.62V13.235a.62.62 0 0 1 .614-.62H7a.62.62 0 0 1 .613.62V26.08A.62.62 0 0 1 7 26.7M14.441 26.7a.622.622 0 0 1-.622-.62v-8.466h-2.456v8.465c0 .341-.28.62-.624.62a.62.62 0 0 1-.614-.62v-9.085c0-.342.28-.622.614-.622h3.702c.335 0 .614.28.614.622v9.085a.62.62 0 0 1-.614.62M25.641 26.7a.62.62 0 0 1-.613-.62V13.365c-.01-.044-.019-.082-.019-.124 0-.342.28-.62.623-.62.344 0 .633.285.633.632v12.83c0 .342-.28.622-.624.622v-.007"/><path d="M29.344 26.7a.622.622 0 0 1-.623-.62V13.855h-2.456V26.08c0 .341-.28.62-.624.62a.62.62 0 0 1-.613-.62V13.235a.62.62 0 0 1 .613-.62h3.703a.62.62 0 0 1 .613.62V26.08a.62.62 0 0 1-.613.62M21.893 26.7a.622.622 0 0 1-.624-.62v-8.466h-2.456v8.465c0 .341-.278.62-.622.62a.621.621 0 0 1-.615-.62v-9.085c0-.342.28-.622.615-.622h3.702c.335 0 .614.28.614.622v9.085a.62.62 0 0 1-.614.62"/></svg>