<svg width="32.256" height="29.737" xmlns="http://www.w3.org/2000/svg"><path d="M6.81 1.24c-.34 0-.62.28-.62.621v16.106c0 .341.28.62.62.62h15.586c.495 0 .979.205 1.327.558l3.485 3.559v-2.256c0-1.024.837-1.861 1.86-1.861h1.328c.341 0 .62-.279.62-.62V1.86a.623.623 0 0 0-.62-.621zm21.025 23.604a.604.604 0 0 1-.442-.187l-4.552-4.644a.626.626 0 0 0-.44-.186H6.811a1.866 1.866 0 0 1-1.86-1.86V1.86C4.95.837 5.788 0 6.81 0h23.585c1.023 0 1.86.837 1.86 1.861v16.106c0 1.022-.837 1.86-1.86 1.86h-1.328c-.34 0-.62.28-.62.621v3.776a.631.631 0 0 1-.384.577.617.617 0 0 1-.236.043h.007"/><path d="M4.428 29.737a.516.516 0 0 1-.235-.049.622.622 0 0 1-.384-.57v-3.691c0-.342-.28-.62-.621-.62H1.861A1.866 1.866 0 0 1 0 22.947V9.296c0-1.035.844-1.879 1.88-1.879.341 0 .62.279.62.62 0 .342-.279.62-.62.62a.646.646 0 0 0-.639.639v13.65c0 .342.279.62.62.62h1.327c1.024 0 1.861.838 1.861 1.86v2.19l3.491-3.503a1.87 1.87 0 0 1 1.316-.546h9.345a.638.638 0 0 0 .639-.639c0-.353.279-.62.62-.62.341 0 .62.279.62.62a1.88 1.88 0 0 1-1.879 1.879H9.856a.658.658 0 0 0-.441.18L4.863 29.55a.62.62 0 0 1-.44.181l.005.005M11.152 8.683c-.701 0-1.265.57-1.265 1.265s.569 1.265 1.265 1.265a1.27 1.27 0 0 0 1.264-1.265 1.27 1.27 0 0 0-1.264-1.265zm0 3.77a2.506 2.506 0 1 1-.001-5.01 2.506 2.506 0 0 1 .001 5.01M18.604 8.683c-.701 0-1.265.57-1.265 1.265s.57 1.265 1.265 1.265a1.27 1.27 0 0 0 1.265-1.265 1.27 1.27 0 0 0-1.265-1.265zm0 3.77a2.506 2.506 0 1 1 0-5.01 2.506 2.506 0 0 1 0 5.01M26.045 8.683c-.7 0-1.265.57-1.265 1.265s.572 1.265 1.265 1.265a1.27 1.27 0 0 0 1.266-1.265 1.27 1.27 0 0 0-1.266-1.265zm0 3.77a2.507 2.507 0 0 1-2.505-2.505 2.507 2.507 0 0 1 5.012 0 2.507 2.507 0 0 1-2.507 2.505"/></svg>