<svg width="30.984" height="23.555" xmlns="http://www.w3.org/2000/svg"><path d="M1.86 1.241c-.34 0-.62.28-.62.62v19.834c0 .341.28.62.62.62h27.263c.341 0 .62-.279.62-.62V1.86c0-.34-.279-.62-.62-.62zm27.263 22.314H1.86A1.866 1.866 0 0 1 0 21.695V1.86C0 .84.837 0 1.86 0h27.263c1.024 0 1.861.839 1.861 1.861v19.834c0 1.022-.837 1.86-1.86 1.86"/><path d="M26.644 4.968H.697a.621.621 0 0 1-.62-.62c0-.34.278-.62.62-.62h25.947c.342 0 .621.28.621.62 0 .341-.279.62-.62.62M26.643 8.703H.707a.622.622 0 0 1 0-1.241h25.936a.622.622 0 0 1 0 1.24M19.778 14.284h-6.802a.622.622 0 0 1-.621-.621c0-.342.279-.62.62-.62h6.803a.622.622 0 0 1 0 1.241M26.539 17.987H12.976a.623.623 0 0 1-.621-.622c0-.341.279-.62.62-.62h13.57a.622.622 0 0 1 0 1.242h-.006M5.56 14.233a.622.622 0 0 0-.62.622v1.238c0 .343.279.622.62.622h2.431c.341 0 .62-.279.62-.622v-1.238a.622.622 0 0 0-.62-.622zm2.431 3.722h-2.43a1.866 1.866 0 0 1-1.862-1.862v-1.238c0-1.024.838-1.862 1.861-1.862h2.431c1.023 0 1.86.838 1.86 1.862v1.238a1.866 1.866 0 0 1-1.86 1.862"/></svg>