<svg width="32.275" height="30.915" xmlns="http://www.w3.org/2000/svg"><path d="M26.513 29.668h3.151a1.37 1.37 0 0 0 1.37-1.37v-3.591c0-.311-.253-.571-.57-.571h-.707l-3.25 5.532zm3.151 1.24h-4.236a.62.62 0 0 1-.54-.93l3.983-6.773a.615.615 0 0 1 .533-.302h1.06c.999 0 1.81.812 1.81 1.81v3.591a2.615 2.615 0 0 1-2.61 2.61v-.006"/><path d="M31.01 24.087h-1.29a.627.627 0 0 1-.596-.44l-2.425-7.883a1.807 1.807 0 0 1-.08-.545V2.87c0-.34.278-.62.62-.62.341 0 .62.28.62.62v12.348c0 .061.006.124.025.18l2.288 7.448h.21V2.772a.621.621 0 0 1 1.242 0v20.695c0 .341-.28.62-.621.62h.006M3.124 25.923a1.84 1.84 0 0 0-1.835 1.836c0 1.01.824 1.834 1.835 1.834h15.53a1.84 1.84 0 0 0 1.835-1.834 1.84 1.84 0 0 0-1.836-1.836zm15.53 4.91H3.123a3.075 3.075 0 1 1 0-6.15h15.53a3.075 3.075 0 1 1 0 6.15M9.303 22.201H1.86A1.866 1.866 0 0 1 0 20.341v-3.126c0-1.023.837-1.86 1.861-1.86h7.35a.621.621 0 0 1 0 1.241H1.86a.621.621 0 0 0-.62.619v3.126c0 .342.279.62.62.62h7.442c.341 0 .621.279.621.62 0 .342-.28.62-.621.62"/><path d="M9.908 20.961h9.985c.342 0 .62-.278.62-.62v-2.493c0-2.4-1.953-4.348-4.346-4.348h-5.631a.624.624 0 0 0-.621.621v6.84zm9.985 1.242H9.295c-.34 0-.62-.28-.62-.622v-7.46c0-1.024.837-1.861 1.861-1.861h5.63a5.593 5.593 0 0 1 5.589 5.588v2.493a1.866 1.866 0 0 1-1.862 1.862"/><path d="M17.37 18.456h-.578a1.866 1.866 0 0 1-1.86-1.86V12.98c0-.341.279-.621.62-.621.341 0 .621.28.621.621v3.616c0 .34.279.619.619.619h.577a.621.621 0 0 1 0 1.241M29.123 1.24a1.276 1.276 0 1 0 0 2.555c.706 0 1.277-.571 1.277-1.278 0-.706-.57-1.277-1.277-1.277zm0 3.795a2.519 2.519 0 0 1-2.519-2.518 2.519 2.519 0 0 1 5.036 0 2.52 2.52 0 0 1-2.517 2.518"/><path d="M9.744 9.83a.623.623 0 0 1-.601-.46L8.652 7.56a1.866 1.866 0 0 1 1.303-2.282l17.761-4.9a.622.622 0 0 1 .33 1.197l-17.757 4.9a.626.626 0 0 0-.433.763l.365 1.352 2.016-.012L23.4 5.55a.625.625 0 0 1 .763.435.627.627 0 0 1-.435.763L12.484 9.792a.62.62 0 0 1-.16.019l-2.58.012v.006"/></svg>