<svg width="21.942" height="31.742" xmlns="http://www.w3.org/2000/svg"><path d="M8.449 12.902a8.4 8.4 0 0 1-5.415-1.979 8.519 8.519 0 0 1-3.032-6.07 1.8 1.8 0 0 1 .576-1.415c.416-.384.98-.564 1.544-.496.647.081 1.303.074 1.936.07 1.27-.014 2.585-.02 3.813.65.15.08.298.173.447.272a.625.625 0 0 1 .155.862.624.624 0 0 1-.862.155 3.665 3.665 0 0 0-.329-.205c-.948-.514-1.997-.508-3.212-.502-.67 0-1.37.012-2.096-.08a.668.668 0 0 0-.545.172.564.564 0 0 0-.182.447 7.274 7.274 0 0 0 2.587 5.179 7.198 7.198 0 0 0 6.965 1.302.62.62 0 0 1 .788.391.621.621 0 0 1-.39.788c-.9.304-1.824.452-2.742.452l-.006.007"/><path d="M11.294 16.71a.622.622 0 0 1-.62-.62V8.046c-.056-2.722 1.352-5.14 3.857-6.618C15.766.703 16.982.511 18.16.324c.508-.08.986-.154 1.47-.272.572-.137 1.178 0 1.637.354.435.341.683.856.676 1.401a7.285 7.285 0 0 1-2.132 5.117c-.968.967-2.68 1.692-4.703 1.991a.625.625 0 0 1-.706-.521.623.623 0 0 1 .521-.707c1.736-.261 3.237-.875 4.007-1.644A6.025 6.025 0 0 0 20.702 1.8c0-.222-.13-.36-.21-.42a.703.703 0 0 0-.578-.125c-.532.13-1.06.21-1.57.292-1.109.173-2.157.34-3.186.95-2.14 1.265-3.293 3.23-3.25 5.537v8.056c0 .341-.28.62-.62.62h.006"/><path d="M2.6 16.852a.588.588 0 0 0-.589.59v1.91c0 .328.266.588.588.588h17.39a.59.59 0 0 0 .59-.588v-1.91a.59.59 0 0 0-.59-.59zm17.389 4.335H2.599c-1.01 0-1.829-.825-1.829-1.83v-1.909c0-1.012.825-1.83 1.83-1.83h17.389c1.012 0 1.83.825 1.83 1.83v1.91c0 1.01-.825 1.83-1.83 1.83"/><path d="M15.574 31.736H6.997c-.844 0-1.582-.57-1.799-1.382L2.637 20.77a.616.616 0 0 1 .44-.756c.33-.087.67.105.757.44l2.561 9.581a.617.617 0 0 0 .602.46h8.577a.623.623 0 0 0 .601-.46l2.592-9.58a.618.618 0 0 1 .763-.436c.33.088.528.428.435.764l-2.592 9.582a1.859 1.859 0 0 1-1.799 1.376v-.006"/></svg>