<svg width="30.253" height="22.464" xmlns="http://www.w3.org/2000/svg"><path d="M5.459 12.056c-2.487 0-4.218 1.043-4.218 1.987 0 .941 1.731 1.984 4.218 1.984 2.486 0 4.216-1.043 4.216-1.984 0-.944-1.73-1.987-4.216-1.987zm0 5.205C2.4 17.261 0 15.847 0 14.035c0-1.811 2.395-3.224 5.459-3.224 3.062 0 5.457 1.413 5.457 3.224 0 1.812-2.395 3.226-5.457 3.226M5.459 22.464C2.4 22.464 0 21.049 0 19.239a.621.621 0 0 1 1.241 0c0 .937 1.731 1.984 4.218 1.984 2.486 0 4.216-1.042 4.216-1.984a.621.621 0 0 1 1.241 0c0 1.804-2.395 3.225-5.457 3.225"/><path d="M.621 19.852A.622.622 0 0 1 0 19.233v-5.198c0-.34.28-.62.621-.62.342 0 .62.28.62.62v5.198c0 .34-.278.619-.62.619M10.29 19.852a.621.621 0 0 1-.62-.619V8.516c0-.341.28-.62.62-.62.342 0 .62.279.62.62v10.717c0 .34-.278.619-.62.619"/><path d="M15.128 6.537c-2.487 0-4.217 1.043-4.217 1.984 0 .943 1.73 1.986 4.217 1.986 2.487 0 4.217-1.043 4.217-1.986 0-.941-1.73-1.984-4.217-1.984zm0 5.203c-3.057 0-5.457-1.413-5.457-3.224 0-1.81 2.393-3.225 5.457-3.225s5.457 1.414 5.457 3.225c0 1.81-2.393 3.224-5.457 3.224M12.02 16.652a.604.604 0 0 1-.253-.056c-1.334-.601-2.096-1.53-2.096-2.561 0-.34.278-.62.62-.62.341 0 .62.28.62.62 0 .509.509 1.042 1.364 1.426a.62.62 0 0 1-.255 1.186v.005M15.655 17.248a.62.62 0 0 1-.038-1.24c2.302-.137 3.722-1.13 3.722-1.965 0-.343.278-.622.62-.622.341 0 .62.279.62.622 0 1.692-2.059 3.037-4.887 3.205h-.037M15.128 22.464c-3.057 0-5.457-1.415-5.457-3.225 0-.342.278-.62.62-.62.341 0 .62.278.62.62 0 .937 1.73 1.984 4.217 1.984 2.487 0 4.217-1.042 4.217-1.984 0-.342.279-.62.62-.62.342 0 .62.278.62.62 0 1.804-2.393 3.225-5.457 3.225"/><path d="M19.964 19.667a.621.621 0 0 1-.62-.62V3.225c0-.341.279-.62.62-.62.341 0 .62.279.62.62v15.822c0 .341-.279.62-.62.62"/><path d="M24.793 1.241c-2.486 0-4.216 1.043-4.216 1.984 0 .943 1.73 1.986 4.216 1.986 2.487 0 4.218-1.043 4.218-1.986 0-.941-1.731-1.984-4.218-1.984zm0 5.204c-3.057 0-5.457-1.414-5.457-3.226 0-1.81 2.4-3.219 5.457-3.219 3.059 0 5.459 1.415 5.459 3.225 0 1.812-2.395 3.226-5.459 3.226v-.006M24.793 22.464c-3.057 0-5.457-1.415-5.457-3.225a.621.621 0 0 1 1.241 0c0 .937 1.73 1.984 4.216 1.984 2.487 0 4.218-1.042 4.218-1.984a.621.621 0 0 1 1.241 0c0 1.804-2.395 3.225-5.459 3.225"/><path d="M29.633 19.667a.621.621 0 0 1-.62-.62V3.225c0-.341.279-.62.62-.62.342 0 .62.279.62.62v15.822c0 .341-.278.62-.62.62M21.687 16.652a.6.6 0 0 1-.254-.056c-1.334-.601-2.097-1.53-2.097-2.561 0-.34.279-.62.62-.62.341 0 .621.28.621.62 0 .509.508 1.042 1.363 1.426a.62.62 0 0 1-.253 1.186v.005"/><path d="M25.328 17.248a.619.619 0 0 1-.62-.583.628.628 0 0 1 .584-.657c2.3-.137 3.72-1.13 3.72-1.965 0-.343.28-.622.62-.622.341 0 .62.279.62.622 0 1.692-2.059 3.037-4.887 3.205h-.037M21.687 11.17a.6.6 0 0 1-.254-.055c-1.334-.603-2.097-1.532-2.097-2.562a.621.621 0 0 1 1.241 0c0 .508.508 1.042 1.363 1.427.312.141.453.508.312.819a.624.624 0 0 1-.565.365v.007M25.328 11.765a.618.618 0 0 1-.62-.582.628.628 0 0 1 .584-.658c2.3-.136 3.72-1.129 3.72-1.966a.621.621 0 0 1 1.24 0c0 1.693-2.059 3.04-4.887 3.206h-.037"/></svg>