<svg width="32.196" height="27.301" xmlns="http://www.w3.org/2000/svg"><path d="M7.452 13.075h-3.08a1.866 1.866 0 0 1-1.86-1.862V9.961c0-1.024.837-1.861 1.86-1.861h1.833a.622.622 0 0 0 .623-.62V6.252a.622.622 0 0 0-.623-.62H3.1a.622.622 0 0 1-.624-.62c0-.341.278-.621.624-.621h3.106c1.023 0 1.86.837 1.86 1.861V7.48c0 1.023-.837 1.86-1.86 1.86H4.372a.623.623 0 0 0-.623.621v1.252c0 .342.279.62.623.62h3.08a.62.62 0 0 1 0 1.242M16.093 8.721a.623.623 0 0 1-.622-.621V1.861a.62.62 0 0 0-.615-.62.63.63 0 0 1-.632-.62c0-.341.279-.621.613-.621a1.87 1.87 0 0 1 1.88 1.861V8.1c0 .341-.28.621-.624.621M27.861 15.499h-3.097a.632.632 0 0 1-.624-.627c0-.341.28-.62.624-.62h3.097v.007a.614.614 0 0 0 .615-.62v-4.95c0-.341-.28-.62-.615-.62h-3.106a.633.633 0 0 1-.615-.632c0-.341.28-.621.615-.621h3.106a1.872 1.872 0 0 1 1.851 1.868v4.948c0 .496-.195.968-.548 1.315a1.843 1.843 0 0 1-1.312.546l.01.006"/><path d="M29.052 11.79h-4.279a.621.621 0 0 1 0-1.24h4.279a.621.621 0 0 1 0 1.24M16.717 8.721h-1.274a.624.624 0 0 1-.624-.621c0-.341.28-.62.624-.62h1.274c.344 0 .623.279.623.62a.623.623 0 0 1-.623.621M3.08 27.07a.622.622 0 0 1-.624-.618v-9.03c0-1.023.837-1.86 1.86-1.86h7.248a.62.62 0 0 1 0 1.24H4.316a.622.622 0 0 0-.623.62v9.03a.62.62 0 0 1-.613.619"/><path d="M20.43 23.599a.621.621 0 0 1-.615-.622v-9.921a.623.623 0 0 0-.623-.621h-6.196a.623.623 0 0 0-.623.621v8.043c0 .341-.28.62-.614.62a.622.622 0 0 1-.623-.62v-8.043c0-1.024.837-1.861 1.86-1.861h6.196c1.023 0 1.86.837 1.86 1.861v9.921a.623.623 0 0 1-.623.622"/><path d="M29.108 27.07a.622.622 0 0 1-.623-.618v-6.55a.622.622 0 0 0-.614-.62h-7.256a.62.62 0 0 1 0-1.24h7.256c1.024 0 1.86.837 1.86 1.86v6.55c0 .34-.279.619-.623.619"/><path d="M31.573 27.301H.615A.622.622 0 0 1 0 26.68c0-.34.28-.62.615-.62h30.958c.344 0 .623.28.623.62a.623.623 0 0 1-.623.621"/></svg>