<svg width="24.811" height="32.255" xmlns="http://www.w3.org/2000/svg"><path d="M7.443 8.682a1.241 1.241 0 1 1 0-2.48v2.48M17.359 8.682a1.241 1.241 0 1 0 0-2.48v2.48"/><path d="M12.4 1.24a4.343 4.343 0 0 0-4.335 4.342c0 2.567 2.103 6.82 4.335 6.82 2.243 0 4.345-4.253 4.345-6.82A4.345 4.345 0 0 0 12.4 1.24zm0 12.404c-3.273 0-5.581-5.228-5.581-8.062C6.819 2.505 9.33 0 12.4 0a5.588 5.588 0 0 1 5.583 5.582c0 2.834-2.299 8.062-5.583 8.062"/><path d="M15.917 6.412a5.622 5.622 0 0 1-3.953-1.63.617.617 0 1 1 .873-.875 4.37 4.37 0 0 0 4.215 1.122.623.623 0 0 1 .763.434.633.633 0 0 1-.438.762c-.484.131-.976.194-1.46.194v-.007"/><path d="M12.4 4.961h-1.86a.623.623 0 0 1-.623-.621c0-.34.279-.619.623-.619h1.86c.345 0 .624.279.624.619a.623.623 0 0 1-.624.621M22.95 32.25H1.86A1.867 1.867 0 0 1 0 30.387v-8.694a5.876 5.876 0 0 1 4.215-5.612l3.106-.9a.616.616 0 0 1 .763.42.622.622 0 0 1-.419.77l-3.097.9a4.62 4.62 0 0 0-3.33 4.422v8.694c0 .341.28.62.623.62H22.95a.62.62 0 0 0 .615-.62v-8.65a4.615 4.615 0 0 0-3.275-4.405l-3.237-.968a.61.61 0 0 1-.419-.768.617.617 0 0 1 .772-.415l3.238.967a5.87 5.87 0 0 1 4.168 5.594v8.65c0 1.024-.838 1.862-1.862 1.862v-.006"/><path d="M3824.69 894.199c1.75 1.871 4.75 1.981 6.63.231 4.68-4.399 17.93-13.211 32.23-13.211 14.38 0 27.63 8.812 32.31 13.211a4.643 4.643 0 0 0 6.56-.231c1.74-1.879 1.67-4.828-.21-6.578-5.65-5.242-21-15.711-38.66-15.711-17.58 0-33 10.469-38.58 15.711-1.88 1.75-2.02 4.699-.28 6.578" style="fill:#100f0d;fill-opacity:1;fill-rule:evenodd;stroke:none" transform="matrix(.13333 0 0 -.13333 -502.73 134.647)"/><path d="M5.517 32a.606.606 0 0 1-.596-.47L3.74 26.813a.615.615 0 0 1 .456-.749.606.606 0 0 1 .744.452l1.181 4.714a.616.616 0 0 1-.604.769M19.256 32.08c-.045 0-.092 0-.148-.019a.613.613 0 0 1-.447-.75l1.191-4.794a.62.62 0 0 1 .753-.452c.335.08.531.422.456.75l-1.2 4.794a.616.616 0 0 1-.605.471"/></svg>