<svg width="30.968" height="30.971" xmlns="http://www.w3.org/2000/svg"><path d="M15.488 1.24c-7.86 0-14.25 6.388-14.25 14.245 0 7.858 6.39 14.246 14.25 14.246 7.852 0 14.243-6.388 14.243-14.246 0-7.857-6.391-14.245-14.243-14.245zm0 29.73C6.948 30.97 0 24.026 0 15.486 0 6.947 6.948 0 15.488 0s15.48 6.947 15.48 15.485c0 8.54-6.94 15.486-15.48 15.486"/><path d="m12.493 10.765-.065.038v9.365l.372.577-.307-.54 8.122-4.676.306-.608-.306.54-8.122-4.689zm-.018 10.687c-.224 0-.447-.056-.652-.175a1.256 1.256 0 0 1-.632-1.109v-9.365a1.276 1.276 0 0 1 1.916-1.11l8.13 4.688c.4.231.642.646.632 1.111 0 .464-.241.88-.641 1.11l-8.121 4.675a1.28 1.28 0 0 1-.642.175h.01"/></svg>