<svg width="31.043" height="31.045" xmlns="http://www.w3.org/2000/svg"><path d="M15.525 1.24c-7.878 0-14.288 6.406-14.288 14.282s6.41 14.283 14.288 14.283c7.871 0 14.28-6.407 14.28-14.283 0-7.876-6.409-14.282-14.28-14.282zm0 29.805C6.967 31.045 0 24.081 0 15.522 0 6.964 6.967 0 15.525 0c8.559 0 15.518 6.964 15.518 15.522 0 8.56-6.959 15.523-15.518 15.523"/><path d="M24.828 16.175H6.195a.623.623 0 0 1-.623-.622c0-.341.279-.62.623-.62h18.624c.344 0 .624.279.624.62 0 .342-.28.622-.624.622h.009"/><path d="M15.507 25.49a.621.621 0 0 1-.614-.622V6.244a.62.62 0 0 1 .614-.62c.344 0 .624.28.624.62v18.624c0 .341-.28.621-.624.621"/></svg>