<svg width="32.195" height="31.271" xmlns="http://www.w3.org/2000/svg"><path d="M9.307 31.253a.621.621 0 0 1-.62-.62V7.136c0-.67.36-1.29.944-1.618L18.915.245a1.84 1.84 0 0 1 1.854.012c.577.336.924.937.924 1.606v28.67c0 .342-.279.62-.62.62a.621.621 0 0 1-.62-.62V1.858a.596.596 0 0 0-.311-.532.604.604 0 0 0-.62 0l-9.29 5.277a.63.63 0 0 0-.317.539v23.493c0 .34-.278.619-.62.619h.012M27.303 31.254a.621.621 0 0 1-.62-.62V17.207a.627.627 0 0 0-.309-.54l-2.27-1.296a.611.611 0 0 1-.23-.842.613.613 0 0 1 .844-.231l2.27 1.296c.577.33.935.95.935 1.613v13.427c0 .341-.278.62-.62.62M4.323 31.271a.622.622 0 0 1-.621-.618v-5.024c0-1.023.838-1.86 1.861-1.86a.621.621 0 0 1 0 1.24.623.623 0 0 0-.621.62v5.024a.62.62 0 0 1-.62.618"/><path d="M4.105 28.754H.62a.621.621 0 0 1-.619-.62c0-.341.28-.62.62-.62h3.485c.341 0 .621.279.621.62 0 .341-.28.62-.62.62M31.575 28.73h-4.062a.621.621 0 0 1 0-1.24h4.062c.342 0 .62.279.62.62 0 .34-.278.62-.62.62M17.363 16.071H9.501a.621.621 0 0 1-.62-.62c0-.341.278-.62.62-.62h7.862c.343 0 .622.279.622.62 0 .342-.279.62-.622.62M17.363 20.4H9.501a.621.621 0 0 1 0-1.24h7.862c.343 0 .622.28.622.62 0 .342-.279.62-.622.62M17.363 24.73H9.501a.621.621 0 0 1 0-1.24h7.862c.343 0 .622.279.622.619a.623.623 0 0 1-.622.62M12.769 11.743H9.5a.622.622 0 0 1-.62-.62c0-.341.278-.62.62-.62h3.268c.341 0 .62.279.62.62 0 .34-.279.62-.62.62"/></svg>