<svg width="24.366" height="26.568" xmlns="http://www.w3.org/2000/svg"><path d="M18.039 14.908h-.037a.62.62 0 0 1-.587-.656c.047-.757.093-3.424-1.097-5.868l-.075-.136a.624.624 0 0 1 1.116-.552l.075.15c1.321 2.709 1.274 5.643 1.228 6.48a.623.623 0 0 1-.623.582M6.29 14.908a.621.621 0 0 1-.623-.588c-.047-.837-.084-3.79 1.236-6.475 2.327-4.738 4.959-5.588 5.07-5.618.326-.1.68.085.773.414a.62.62 0 0 1-.41.776c-.018 0-2.26.782-4.316 4.979-1.19 2.419-1.153 5.105-1.117 5.868a.617.617 0 0 1-.585.65H6.29v-.006"/><path d="M12.187 3.436c-5.6 0-10.297 4.223-10.939 9.823a.538.538 0 0 0 .139.44.621.621 0 0 0 .475.212l20.652-.019a.627.627 0 0 0 .465-.212.596.596 0 0 0 .148-.44c-.641-5.593-5.35-9.804-10.94-9.804zm5.833 11.72H1.862c-.531 0-1.043-.23-1.396-.625-.354-.386-.511-.9-.455-1.415.716-6.227 5.944-10.92 12.176-10.92 6.224 0 11.461 4.688 12.168 10.908a1.817 1.817 0 0 1-.447 1.408 1.889 1.889 0 0 1-1.394.632l-4.484.019-.01-.007M9.08 26.568a3.723 3.723 0 0 1-3.721-3.721v-.614c0-.341.28-.621.615-.621.344 0 .622.28.622.621v.614a2.476 2.476 0 0 0 4.95 0V18.2c.009-.34.288-.62.622-.62.346 0 .624.28.624.62v4.646a3.735 3.735 0 0 1-3.73 3.714l.018.007"/><path d="M12.187 14.908a.622.622 0 0 1-.623-.619V.62c0-.341.279-.62.623-.62a.62.62 0 0 1 .615.62v13.67a.62.62 0 0 1-.615.618"/></svg>