<?xml version="1.0" encoding="UTF-8" standalone="no"?>
<svg
   width="800"
   height="115.06345"
   viewBox="0 0 800 115.06345"
   fill="none"
   version="1.1"
   id="svg73"
   xmlns="http://www.w3.org/2000/svg"
   xmlns:svg="http://www.w3.org/2000/svg">
  <g
     clip-path="url(#clip0_3483_60)"
     id="g66"
     transform="translate(0,-341.99954)">
    <path
       d="m 379.224,432.04 c 0,-12.449 9.959,-22.409 22.025,-22.409 h 376.926 c 12.257,0 22.025,9.96 22.025,22.409 0,12.449 -9.959,22.409 -22.025,22.409 H 401.249 c -12.257,0 -22.025,-9.96 -22.025,-22.409 z"
       fill="#005dac"
       id="path2" />
    <path
       fill-rule="evenodd"
       clip-rule="evenodd"
       d="m 554.088,441.808 c -2.107,0 -4.022,-0.383 -5.746,-1.149 -1.532,-0.766 -2.873,-1.915 -3.83,-3.256 -0.958,-1.532 -1.341,-3.064 -1.341,-5.171 v -0.383 c 0,-1.916 0.383,-3.639 1.341,-5.172 0.957,-1.532 2.106,-2.489 3.83,-3.447 1.724,-0.766 3.448,-1.149 5.746,-1.149 2.107,0 4.022,0.383 5.746,1.149 1.723,0.766 2.873,1.915 3.83,3.447 0.958,1.533 1.341,3.065 1.341,5.172 v 0.383 c 0,1.915 -0.383,3.639 -1.341,5.171 -0.957,1.341 -2.107,2.49 -3.83,3.256 -1.724,0.766 -3.639,1.149 -5.746,1.149 z m -7.278,-9.576 c 0,1.915 0.574,3.447 1.915,4.596 1.341,1.15 3.065,1.533 5.363,1.533 2.298,0 4.022,-0.575 5.363,-1.533 1.34,-1.149 1.915,-2.681 1.915,-4.596 v -0.383 c 0,-1.916 -0.575,-3.448 -1.915,-4.597 -1.149,-1.149 -3.065,-1.724 -5.363,-1.724 -2.298,0 -4.022,0.575 -5.363,1.724 -1.341,1.149 -1.915,2.681 -1.915,4.597 z"
       fill="#ffffff"
       id="path4" />
    <path
       d="m 589.712,422.655 h -16.088 v 18.77 h 16.088 v -3.256 h -12.641 v -4.597 h 12.067 v -3.256 h -12.067 v -4.596 h 12.641 z"
       fill="#ffffff"
       id="path6" />
    <path
       fill-rule="evenodd"
       clip-rule="evenodd"
       d="m 614.994,422.655 h 10.726 c 2.107,0 3.83,0.383 4.979,1.341 1.15,0.766 1.724,2.107 1.724,3.639 v 0.383 c 0,1.724 -0.766,3.064 -2.107,4.022 0.958,0.383 1.533,0.958 2.107,1.532 0.383,0.575 0.766,1.533 0.766,2.49 v 0.383 c 0,1.149 -0.191,1.915 -0.766,2.873 -0.574,0.766 -1.341,1.341 -2.298,1.915 -0.958,0.383 -2.299,0.575 -3.639,0.575 h -11.3 v -19.153 z m 11.3,15.705 c 0.958,0 1.724,-0.191 2.299,-0.574 0.574,-0.383 0.766,-0.958 0.766,-1.724 v -0.383 c 0,-0.766 -0.192,-1.149 -0.766,-1.532 -0.575,-0.383 -1.341,-0.575 -2.49,-0.575 h -7.853 v 4.597 h 8.044 z m -0.574,-8.044 c 1.149,0 1.915,-0.191 2.298,-0.574 0.575,-0.383 0.766,-0.958 0.766,-1.532 v -0.384 c 0,-0.766 -0.191,-1.149 -0.766,-1.532 -0.575,-0.383 -1.341,-0.574 -2.298,-0.574 h -7.278 v 4.596 z"
       fill="#ffffff"
       id="path8" />
    <path
       d="M 645.447,422.655 H 642 v 18.77 h 3.447 v -7.853 h 11.3 v 7.853 h 3.448 v -18.77 h -3.448 v 7.853 h -11.3 z"
       fill="#ffffff"
       id="path10" />
    <path
       d="m 671.111,438.36 h 3.639 c 0.575,0 0.958,0 1.341,-0.191 0.383,-0.192 0.574,-0.383 0.766,-0.575 L 668.43,423.23 v -0.575 h 3.639 l 6.895,11.492 5.937,-11.492 h 3.639 v 0.575 l -7.661,14.364 c -0.766,1.533 -1.724,2.49 -2.49,3.065 -0.958,0.574 -2.107,0.766 -3.447,0.766 h -3.639 v -3.065 z"
       fill="#ffffff"
       id="path12" />
    <path
       d="m 693.52,425.911 h 7.661 v 15.705 h 3.448 v -15.705 h 7.661 v -3.256 h -18.77 z"
       fill="#ffffff"
       id="path14" />
    <path
       fill-rule="evenodd"
       clip-rule="evenodd"
       d="m 719.759,422.655 h 11.491 c 2.107,0 3.831,0.575 4.98,1.532 1.149,0.958 1.915,2.49 1.915,4.214 v 0.383 c 0,1.724 -0.574,3.256 -1.915,4.214 -1.149,0.957 -2.873,1.532 -4.98,1.532 h -8.044 v 6.895 h -3.447 z m 11.491,8.81 c 1.15,0 1.916,-0.191 2.49,-0.574 0.575,-0.383 0.958,-1.149 0.958,-1.915 v -0.383 c 0,-0.767 -0.383,-1.533 -0.958,-1.916 -0.574,-0.383 -1.34,-0.766 -2.49,-0.766 h -8.044 v 5.554 z"
       fill="#ffffff"
       id="path16" />
    <path
       d="m 746.765,422.655 h 3.447 v 13.982 l 11.3,-13.982 h 3.448 v 18.77 h -3.448 v -13.982 l -11.3,13.982 h -3.447 z"
       fill="#ffffff"
       id="path18" />
    <path
       d="m 519.613,422.655 h -3.447 v 18.77 h 3.447 v -7.853 h 11.3 v 7.853 h 3.448 v -18.77 h -3.448 v 7.853 h -11.3 z"
       fill="#ffffff"
       id="path20" />
    <path
       fill-rule="evenodd"
       clip-rule="evenodd"
       d="m 489.16,422.655 h 10.726 c 2.106,0 3.83,0.383 4.979,1.341 1.15,0.766 1.724,2.107 1.724,3.639 v 0.383 c 0,1.724 -0.766,3.064 -2.107,4.022 0.958,0.383 1.533,0.958 2.107,1.532 0.383,0.575 0.766,1.533 0.766,2.49 v 0.383 c 0,1.149 -0.191,1.915 -0.766,2.873 -0.574,0.766 -1.341,1.341 -2.298,1.915 -0.958,0.383 -2.107,0.575 -3.639,0.575 h -11.3 v -19.153 z m 11.3,15.705 c 0.958,0 1.724,-0.191 2.299,-0.574 0.574,-0.383 0.766,-0.958 0.766,-1.724 v -0.383 c 0,-0.766 -0.192,-1.149 -0.766,-1.532 -0.575,-0.383 -1.341,-0.575 -2.49,-0.575 h -7.853 v 4.597 h 8.044 z m -0.574,-8.044 c 1.149,0 1.915,-0.191 2.298,-0.574 0.575,-0.383 0.766,-0.958 0.766,-1.532 v -0.384 c 0,-0.766 -0.191,-1.149 -0.766,-1.532 -0.575,-0.383 -1.341,-0.574 -2.298,-0.574 h -7.278 v 4.596 z"
       fill="#ffffff"
       id="path22" />
    <path
       fill-rule="evenodd"
       clip-rule="evenodd"
       d="m 469.05,422.655 -8.427,18.195 v 0.575 h 3.639 l 1.915,-4.214 h 9.768 l 1.915,4.214 h 3.639 v -0.575 l -8.427,-18.195 z m 1.915,3.639 3.448,7.661 h -6.895 z"
       fill="#ffffff"
       id="path24" />
    <path
       d="m 433.044,438.36 h 0.766 c 0.766,0 1.532,-0.191 1.915,-0.383 0.575,-0.383 0.766,-0.766 0.958,-1.532 0.191,-0.766 0.383,-1.724 0.383,-2.873 l 0.191,-10.917 h 15.705 v 18.77 h -3.447 v -15.514 h -9.002 l -0.191,7.853 c 0,2.681 -0.575,4.596 -1.533,5.746 -0.957,1.149 -2.489,1.915 -4.596,1.915 h -1.341 v -3.065 z"
       fill="#ffffff"
       id="path26" />
    <path
       d="m 429.212,422.655 h -14.939 v 18.77 h 3.447 V 425.72 h 11.492 z"
       fill="#ffffff"
       id="path28" />
    <path
       d="m 340.919,376.689 c 0,8.81 -8.619,13.79 -23.75,13.79 h -1.532 c -15.131,0 -23.749,-4.98 -23.749,-13.79 v -1.915 h 7.852 v 1.723 c 0,4.405 4.98,6.512 15.897,6.512 h 1.724 c 10.725,0 15.897,-2.107 15.897,-6.512 v -0.766 c 0,-3.064 -2.107,-5.171 -12.641,-5.171 h -12.258 v -7.087 h 11.875 c 8.618,0 12.066,-1.532 12.066,-5.362 v -0.766 c 0,-4.214 -5.171,-6.321 -15.322,-6.321 h -0.575 c -10.151,0 -15.322,2.107 -15.322,6.321 v 1.34 h -7.853 v -1.724 c 0,-8.427 8.428,-13.215 22.984,-13.215 h 0.574 0.383 c 14.556,0 22.984,4.788 22.984,13.215 v 0.958 c 0,3.831 -1.916,6.895 -5.363,8.81 4.213,1.916 6.512,5.172 6.512,9.194 v 0.766 z"
       fill="#0b0a0b"
       id="path30" />
    <path
       d="m 292.27,454.64 h -38.497 v -45.009 h 38.497 v 7.087 h -30.644 v 11.875 h 29.304 v 7.086 h -29.304 v 11.875 h 30.644 z"
       fill="#0b0a0b"
       id="path32" />
    <path
       d="m 326.746,426.869 -15.131,-17.238 h -8.81 v 1.724 L 321,432.04 302.805,452.725 v 1.724 h 8.81 l 15.131,-17.238 15.13,17.238 h 8.619 v -1.724 L 332.3,432.04 350.495,411.355 v -1.724 h -8.619 z"
       fill="#0b0a0b"
       id="path34" />
    <path
       fill-rule="evenodd"
       clip-rule="evenodd"
       d="m 286.907,389.521 h -7.661 l -5.171,-11.109 h -24.132 l -5.172,11.109 h -7.661 v -1.724 l 20.877,-43.285 h 8.044 l 20.876,43.285 z m -25.09,-36.582 -8.618,18.195 h 17.237 z"
       fill="#0b0a0b"
       id="path36" />
    <path
       d="m 212.787,351.598 h 28.346 v -7.086 h -36.199 v 45.009 h 7.853 z"
       fill="#0b0a0b"
       id="path38" />
    <path
       d="m 218.724,416.718 h -18.961 v -7.087 h 45.775 v 7.087 h -18.962 v 37.922 h -7.661 v -37.922 z"
       fill="#0b0a0b"
       id="path40" />
    <path
       fill-rule="evenodd"
       clip-rule="evenodd"
       d="m 659.428,344.512 -20.877,43.285 v 1.724 h 7.661 l 5.171,-11.109 h 24.133 l 5.171,11.109 h 7.661 v -1.724 l -20.876,-43.285 z m -4.597,26.814 8.619,-18.195 8.619,18.195 z"
       fill="#0b0a0b"
       id="path42" />
    <path
       d="m 705.204,363.473 h 27.963 v -18.961 h 7.852 v 45.009 h -7.852 V 370.56 h -27.963 v 18.961 h -7.853 v -45.009 h 7.853 z"
       fill="#0b0a0b"
       id="path44" />
    <path
       d="m 799.435,344.512 h -8.811 l -18.769,18.578 h -9.194 v -18.578 h -7.852 v 45.009 h 7.852 v -19.153 h 9.385 l 18.195,19.153 h 8.619 v -1.724 l -19.919,-21.068 20.494,-20.302 z"
       fill="#0b0a0b"
       id="path46" />
    <path
       fill-rule="evenodd"
       clip-rule="evenodd"
       d="m 598.33,362.707 h 18.961 c 10.534,0 16.472,4.788 16.472,13.024 v 0.958 c 0,8.044 -6.129,13.023 -16.472,13.023 h -26.813 v -45.008 h 39.837 v 7.086 h -32.176 v 10.917 z m 18.961,7.087 H 598.33 v 12.64 h 18.961 c 5.363,0 8.811,-2.298 8.811,-5.937 v -0.958 c -0.192,-3.447 -3.448,-5.745 -8.811,-5.745 z"
       fill="#0b0a0b"
       id="path48" />
    <path
       fill-rule="evenodd"
       clip-rule="evenodd"
       d="m 435.342,344.512 h -27.58 v 45.009 h 7.852 v -17.046 h 19.728 c 10.151,0 16.471,-5.171 16.471,-13.599 v -0.766 c 0,-8.427 -6.32,-13.598 -16.471,-13.598 z m -19.919,7.086 h 19.727 c 5.554,0 8.81,2.299 8.81,6.512 v 0.766 c 0,4.023 -3.256,6.512 -8.81,6.512 h -19.727 z"
       fill="#0b0a0b"
       id="path50" />
    <path
       d="m 529.189,344.512 18.579,35.816 18.578,-35.816 h 10.151 v 45.009 h -7.661 v -33.517 l -17.238,33.517 h -7.661 L 526.7,355.812 v 33.709 h -7.661 v -45.009 z"
       fill="#0b0a0b"
       id="path52" />
    <path
       d="m 351.644,389.521 h 7.853 v -37.923 h 26.622 v 37.923 h 7.853 v -45.009 h -42.328 z"
       fill="#0b0a0b"
       id="path54" />
    <path
       fill-rule="evenodd"
       clip-rule="evenodd"
       d="m 458.516,366.538 c 0,-13.982 10.151,-22.984 25.664,-22.984 15.514,0 25.665,9.002 25.665,22.984 v 0.957 c 0,13.79 -9.96,22.792 -25.665,22.792 -15.513,0 -25.664,-9.002 -25.664,-22.792 z m 25.473,-15.514 c -11.109,0 -17.812,5.746 -17.812,15.514 v 1.149 c 0,9.768 6.512,15.322 17.812,15.322 11.108,0 17.62,-5.746 17.62,-15.322 v -1.149 c 0.192,-9.577 -6.512,-15.514 -17.62,-15.514 z"
       fill="#0b0a0b"
       id="path56" />
    <path
       d="M 111.661,382.051 C 91.9334,351.79 64.162,335.127 49.2228,344.703 c -7.0865,4.597 -9.9594,14.556 -8.6187,27.006 0.3831,-1.532 1.1492,-2.873 2.1068,-4.214 8.6187,-11.3 34.4749,-6.32 57.6501,11.492 9.193,6.895 16.471,14.747 21.642,22.408 -2.681,-6.32 -6.129,-12.832 -10.342,-19.344 z"
       fill="#005dac"
       id="path58" />
    <path
       d="m 58.0324,416.91 c -4.2136,-6.321 -7.6611,-12.833 -10.3425,-19.153 5.1713,7.661 12.4493,15.514 21.6426,22.408 23.3663,17.621 49.2225,22.792 57.6495,11.492 0.958,-1.149 1.724,-2.681 2.107,-4.213 1.149,12.449 -1.532,22.217 -8.619,27.005 -14.939,9.385 -42.7103,-7.278 -62.4376,-37.539 z"
       fill="#005dac"
       id="path60" />
    <path
       d="m 132.92,391.82 c 3.064,6.703 5.362,13.406 6.895,19.727 l 29.878,-67.226 H 96.3379 c 5.1711,4.022 10.3421,8.81 15.3221,14.364 h 35.816 z"
       fill="#005dac"
       id="path62" />
    <path
       d="m 22.2172,440.276 14.556,-32.943 c -3.0644,-6.703 -5.3627,-13.407 -6.895,-19.727 L 0,454.64 h 73.3549 c -5.1712,-4.022 -10.3425,-8.81 -15.3222,-14.364 z"
       fill="#005dac"
       id="path64" />
  </g>
  <defs
     id="defs71">
    <clipPath
       id="clip0_3483_60">
      <rect
         width="800"
         height="800"
         fill="#ffffff"
         id="rect68"
         x="0"
         y="0" />
    </clipPath>
  </defs>
</svg>
