<svg width="164" height="40" viewBox="0 0 164 40" fill="none" xmlns="http://www.w3.org/2000/svg">
<g id="&#208;&#155;&#208;&#184;&#208;&#180;&#208;&#181;&#209;&#128;&#209;&#139; &#209;&#134;&#208;&#184;&#209;&#132;&#209;&#128;&#208;&#190;&#208;&#178;&#208;&#190;&#208;&#184;&#204;&#134; &#209;&#130;&#209;&#128;&#208;&#176;&#208;&#189;&#209;&#129;&#209;&#132;&#208;&#190;&#209;&#128;&#208;&#188;&#208;&#176;&#209;&#134;&#208;&#184;&#208;&#184; 2023-3 1" clip-path="url(#clip0_551_17096)">
<g id="Group 1321317101">
<path id="Vector" d="M82.6762 11.9589L81.4062 6.71777H79.0531L77.7832 11.9589H78.5671L79.6503 7.42907H80.8083L81.8916 11.9589H82.6762Z" fill="black"/>
<path id="Vector_2" d="M87.9826 6.71777L85.4427 10.6486H85.3679V6.71777H84.584V11.9589H85.4427L87.9826 8.02806H88.0574V11.9589H88.842V6.71777H87.9826Z" fill="black"/>
<path id="Vector_3" d="M92.8389 7.42907H93.9221L94.8186 11.2476H91.9424L92.8389 7.42907ZM91.3823 11.9589H95.3787V12.8574H96.1633V11.2476H95.6032L94.52 6.71777H92.241L91.1578 11.2476H90.5977V12.8574H91.3823V11.9589Z" fill="black"/>
<path id="Vector_4" d="M101.767 11.2476H98.7038V9.67528H101.132V8.964H98.7038V7.42907H101.767V6.71777H97.9199V11.9589H101.767V11.2476Z" fill="black"/>
<path id="Vector_5" d="M108.081 8.62705C108.081 8.36498 108.029 8.11791 107.932 7.8858C107.827 7.65369 107.685 7.45153 107.498 7.27933C107.311 7.10712 107.095 6.96486 106.841 6.86752C106.58 6.77019 106.295 6.71777 105.989 6.71777H103.711V11.9589H104.495V10.5363H105.989C106.295 10.5363 106.58 10.4839 106.841 10.3865C107.095 10.2892 107.311 10.147 107.498 9.97479C107.685 9.80258 107.827 9.6004 107.932 9.3683C108.029 9.13621 108.081 8.88912 108.081 8.62705ZM107.297 8.62705C107.297 8.98645 107.184 9.27843 106.953 9.49554C106.722 9.71271 106.4 9.82503 105.989 9.82503H104.495V7.42907H105.989C106.4 7.42907 106.722 7.54138 106.953 7.75851C107.184 7.97564 107.297 8.26765 107.297 8.62705Z" fill="black"/>
<path id="Vector_6" d="M112.118 11.2476H110.923V9.15113H112.118C112.298 9.15113 112.462 9.17365 112.611 9.22601C112.76 9.27844 112.887 9.35331 113 9.45064C113.112 9.54797 113.194 9.65283 113.261 9.78006C113.321 9.90737 113.351 10.0496 113.351 10.1994C113.351 10.3491 113.321 10.4839 113.261 10.6112C113.194 10.7385 113.112 10.8508 113 10.9481C112.887 11.0455 112.76 11.1128 112.611 11.1652C112.462 11.2177 112.298 11.2476 112.118 11.2476ZM114.135 10.1994C114.135 9.95227 114.091 9.7277 113.993 9.51053C113.896 9.30089 113.762 9.11369 113.589 8.95647C113.418 8.79926 113.202 8.67195 112.954 8.57463C112.708 8.48478 112.425 8.43986 112.118 8.43986H110.923V6.71777H110.139V11.9589H112.118C112.425 11.9589 112.708 11.914 112.954 11.8166C113.202 11.7268 113.418 11.5995 113.589 11.4423C113.762 11.285 113.896 11.0978 113.993 10.8807C114.091 10.6711 114.135 10.4464 114.135 10.1994ZM115.63 11.9589V6.71777H114.845V11.9589H115.63Z" fill="black"/>
<path id="Vector_7" d="M78.1562 20.5155H82.0408V21.414H82.8254V19.8043H82.2275V15.2744H81.4429V19.8043H78.9409V15.2744H78.1562V20.5155Z" fill="black"/>
<path id="Vector_8" d="M88.0555 15.2744L85.515 19.2052H85.4409V15.2744H84.6562V20.5155H85.515L88.0555 16.5847H88.1296V20.5155H88.9142V15.2744H88.0555Z" fill="black"/>
<path id="Vector_9" d="M93.6211 16.21V19.5793C93.3149 19.5719 93.0383 19.5195 92.7994 19.4296C92.553 19.3472 92.3512 19.2275 92.1871 19.0777C92.0224 18.928 91.8954 18.7482 91.813 18.5461C91.7238 18.3439 91.6784 18.1268 91.6784 17.8947C91.6784 17.6626 91.7238 17.4455 91.813 17.2433C91.8954 17.0412 92.0224 16.8689 92.1871 16.7192C92.3512 16.5694 92.553 16.4497 92.7994 16.3598C93.0383 16.2699 93.3149 16.2176 93.6211 16.21ZM94.4057 19.5793V16.21C94.7118 16.2176 94.9885 16.2699 95.2349 16.3598C95.4738 16.4497 95.6756 16.5694 95.8397 16.7192C96.0044 16.8689 96.1314 17.0412 96.2206 17.2433C96.303 17.4455 96.3476 17.6626 96.3476 17.8947C96.3476 18.1268 96.303 18.3439 96.2206 18.5461C96.1314 18.7482 96.0044 18.928 95.8397 19.0777C95.6756 19.2275 95.4738 19.3472 95.2349 19.4296C94.9885 19.5195 94.7118 19.5719 94.4057 19.5793ZM94.4057 20.8148V20.2906C94.8162 20.2832 95.1896 20.2083 95.526 20.0735C95.8623 19.9462 96.1458 19.7665 96.3854 19.5494C96.6243 19.3323 96.811 19.0852 96.938 18.8006C97.0649 18.5161 97.1322 18.2166 97.1322 17.8947C97.1322 17.5728 97.0649 17.2732 96.938 16.9887C96.811 16.7042 96.6243 16.4497 96.3854 16.2325C96.1458 16.0154 95.8623 15.8432 95.526 15.7084C95.1896 15.5811 94.8162 15.5062 94.4057 15.4988V14.9746H93.6211V15.4988C93.2099 15.5062 92.8365 15.5811 92.5008 15.7084C92.1644 15.8432 91.8803 16.0154 91.6414 16.2325C91.4025 16.4497 91.2158 16.7042 91.0888 16.9887C90.9618 17.2732 90.8945 17.5728 90.8945 17.8947C90.8945 18.2166 90.9618 18.5161 91.0888 18.8006C91.2158 19.0852 91.4025 19.3323 91.6414 19.5494C91.8803 19.7665 92.1644 19.9462 92.5008 20.0735C92.8365 20.2083 93.2099 20.2832 93.6211 20.2906V20.8148H94.4057Z" fill="black"/>
<path id="Vector_10" d="M103.48 17.1837C103.48 16.9217 103.427 16.6746 103.33 16.4424C103.225 16.2103 103.084 16.0082 102.897 15.836C102.71 15.6638 102.494 15.5215 102.24 15.4242C101.978 15.3268 101.694 15.2744 101.388 15.2744H99.1094V20.5155H99.894V19.0929H101.388C101.694 19.0929 101.978 19.0406 102.24 18.9432C102.494 18.8458 102.71 18.7036 102.897 18.5314C103.084 18.3592 103.225 18.157 103.33 17.9249C103.427 17.6928 103.48 17.4457 103.48 17.1837ZM102.695 17.1837C102.695 17.5431 102.583 17.8351 102.351 18.0522C102.12 18.2693 101.799 18.3817 101.388 18.3817H99.894V15.9857H101.388C101.799 15.9857 102.12 16.098 102.351 16.3152C102.583 16.5323 102.695 16.8243 102.695 17.1837Z" fill="black"/>
<path id="Vector_11" d="M110.876 17.895C110.876 17.4982 110.801 17.1313 110.652 16.7869C110.503 16.4424 110.301 16.143 110.047 15.8809C109.793 15.6264 109.494 15.4242 109.158 15.2744C108.822 15.1247 108.456 15.0498 108.075 15.0498C107.694 15.0498 107.328 15.1247 106.992 15.2744C106.655 15.4242 106.357 15.6264 106.103 15.8809C105.849 16.143 105.647 16.4424 105.497 16.7869C105.348 17.1313 105.273 17.4982 105.273 17.895C105.273 18.2918 105.348 18.6587 105.497 19.0032C105.647 19.3476 105.849 19.647 106.103 19.9016C106.357 20.1637 106.655 20.3658 106.992 20.5156C107.328 20.6653 107.694 20.7402 108.075 20.7402C108.456 20.7402 108.822 20.6653 109.158 20.5156C109.494 20.3658 109.793 20.1637 110.047 19.9016C110.301 19.647 110.503 19.3476 110.652 19.0032C110.801 18.6587 110.876 18.2918 110.876 17.895ZM106.058 17.895C106.058 17.5955 106.11 17.3185 106.222 17.0565C106.334 16.7944 106.476 16.5697 106.663 16.3751C106.85 16.1879 107.059 16.0381 107.305 15.9258C107.552 15.8135 107.806 15.7611 108.075 15.7611C108.344 15.7611 108.598 15.8135 108.844 15.9258C109.091 16.0381 109.3 16.1879 109.487 16.3751C109.674 16.5697 109.816 16.7944 109.928 17.0565C110.039 17.3185 110.092 17.5955 110.092 17.895C110.092 18.1945 110.039 18.4715 109.928 18.7336C109.816 18.9956 109.674 19.2203 109.487 19.4075C109.3 19.6021 109.091 19.7519 108.844 19.8642C108.598 19.9765 108.344 20.0289 108.075 20.0289C107.806 20.0289 107.552 19.9765 107.305 19.8642C107.059 19.7519 106.85 19.6021 106.663 19.4075C106.476 19.2203 106.334 18.9956 106.222 18.7336C106.11 18.4715 106.058 18.1945 106.058 17.895Z" fill="black"/>
<path id="Vector_12" d="M113.681 15.9857H115.138C115.399 15.9857 115.608 16.0531 115.75 16.1804C115.892 16.3077 115.959 16.4724 115.959 16.6596C115.959 16.8692 115.892 17.0414 115.75 17.1687C115.608 17.3035 115.399 17.3709 115.138 17.3709H113.681V15.9857ZM115.511 19.8043H113.681V18.0821H115.511C115.847 18.0821 116.109 18.1645 116.288 18.3292C116.467 18.5014 116.557 18.7036 116.557 18.9432C116.557 19.1903 116.467 19.3924 116.288 19.5572C116.109 19.7219 115.847 19.8043 115.511 19.8043ZM115.138 15.2744H112.896V20.5155H115.511C115.788 20.5155 116.042 20.4706 116.273 20.3882C116.497 20.3059 116.691 20.1936 116.848 20.0514C117.006 19.9091 117.133 19.7444 117.214 19.5497C117.297 19.3625 117.341 19.1603 117.341 18.9432C117.341 18.6437 117.281 18.4041 117.154 18.2319C117.027 18.0597 116.893 17.9325 116.744 17.8426C116.572 17.7377 116.37 17.6704 116.146 17.6329V17.5955C116.258 17.5581 116.355 17.4906 116.445 17.4083C116.52 17.341 116.587 17.2436 116.654 17.1238C116.714 17.004 116.744 16.8468 116.744 16.6596C116.744 16.4724 116.706 16.2927 116.631 16.1205C116.55 15.9558 116.445 15.806 116.303 15.6787C116.161 15.5515 115.996 15.4541 115.802 15.3793C115.601 15.3119 115.384 15.2744 115.138 15.2744Z" fill="black"/>
<path id="Vector_13" d="M124.665 17.895C124.665 17.4982 124.59 17.1313 124.441 16.7869C124.292 16.4424 124.09 16.143 123.836 15.8809C123.582 15.6264 123.283 15.4242 122.947 15.2744C122.611 15.1247 122.245 15.0498 121.864 15.0498C121.483 15.0498 121.117 15.1247 120.781 15.2744C120.444 15.4242 120.146 15.6264 119.892 15.8809C119.638 16.143 119.436 16.4424 119.286 16.7869C119.137 17.1313 119.062 17.4982 119.062 17.895C119.062 18.2918 119.137 18.6587 119.286 19.0032C119.436 19.3476 119.638 19.647 119.892 19.9016C120.146 20.1637 120.444 20.3658 120.781 20.5156C121.117 20.6653 121.483 20.7402 121.864 20.7402C122.245 20.7402 122.611 20.6653 122.947 20.5156C123.283 20.3658 123.582 20.1637 123.836 19.9016C124.09 19.647 124.292 19.3476 124.441 19.0032C124.59 18.6587 124.665 18.2918 124.665 17.895ZM119.846 17.895C119.846 17.5955 119.899 17.3185 120.011 17.0565C120.123 16.7944 120.265 16.5697 120.452 16.3751C120.639 16.1879 120.848 16.0381 121.094 15.9258C121.341 15.8135 121.595 15.7611 121.864 15.7611C122.133 15.7611 122.387 15.8135 122.633 15.9258C122.88 16.0381 123.089 16.1879 123.276 16.3751C123.463 16.5697 123.605 16.7944 123.717 17.0565C123.828 17.3185 123.881 17.5955 123.881 17.895C123.881 18.1945 123.828 18.4715 123.717 18.7336C123.605 18.9956 123.463 19.2203 123.276 19.4075C123.089 19.6021 122.88 19.7519 122.633 19.8642C122.387 19.9765 122.133 20.0289 121.864 20.0289C121.595 20.0289 121.341 19.9765 121.094 19.8642C120.848 19.7519 120.639 19.6021 120.452 19.4075C120.265 19.2203 120.123 18.9956 120.011 18.7336C119.899 18.4715 119.846 18.1945 119.846 17.895Z" fill="black"/>
<path id="Vector_14" d="M128.812 14.6755C128.969 14.6755 129.119 14.6455 129.254 14.5931C129.381 14.5407 129.5 14.4659 129.597 14.3685C129.694 14.2712 129.768 14.1589 129.821 14.0241C129.873 13.8968 129.896 13.7471 129.896 13.5898H129.298C129.298 13.7396 129.254 13.8594 129.171 13.9417C129.081 14.0316 128.962 14.0765 128.812 14.0765C128.663 14.0765 128.544 14.0316 128.461 13.9417C128.372 13.8594 128.327 13.7396 128.327 13.5898H127.729C127.729 13.7471 127.759 13.8968 127.811 14.0241C127.864 14.1589 127.938 14.2712 128.036 14.3685C128.133 14.4659 128.245 14.5407 128.379 14.5931C128.506 14.6455 128.656 14.6755 128.812 14.6755ZM130.083 15.2745L127.542 19.2053H127.468V15.2745H126.684V20.5156H127.542L130.083 16.5848H130.157V20.5156H130.942V15.2745H130.083Z" fill="black"/>
<path id="Vector_15" d="M77.709 24.5423H79.4642V29.0721H80.2488V24.5423H82.0047V23.8311H77.709V24.5423Z" fill="black"/>
<path id="Vector_16" d="M88.2019 25.7413C88.2019 25.4792 88.1497 25.2321 88.053 25C87.9479 24.7679 87.8065 24.5658 87.6198 24.3935C87.4331 24.2213 87.2162 24.0791 86.9622 23.9817C86.7007 23.8844 86.4165 23.832 86.1103 23.832H83.832V29.0731H84.6166V27.6505H86.1103C86.4165 27.6505 86.7007 27.5981 86.9622 27.5008C87.2162 27.4035 87.4331 27.2612 87.6198 27.089C87.8065 26.9168 87.9479 26.7146 88.053 26.4825C88.1497 26.2504 88.2019 26.0033 88.2019 25.7413ZM87.418 25.7413C87.418 26.1007 87.3061 26.3927 87.0741 26.6098C86.8428 26.827 86.5215 26.9393 86.1103 26.9393H84.6166V24.5433H86.1103C86.5215 24.5433 86.8428 24.6556 87.0741 24.8727C87.3061 25.0899 87.418 25.3819 87.418 25.7413Z" fill="black"/>
<path id="Vector_17" d="M90.798 27.1254L91.4186 24.5423H92.5017L93.1141 27.1254H90.798ZM90.7836 23.8311L89.5137 29.0721H90.3353L90.6264 27.8368H93.2857L93.585 29.0721H94.4066L93.1367 23.8311H90.7836Z" fill="black"/>
<path id="Vector_18" d="M96.3145 23.8311V29.0721H97.0991V26.826H99.7515V29.0721H100.535V23.8311H99.7515V26.1146H97.0991V23.8311H96.3145Z" fill="black"/>
<path id="Vector_19" d="M105.279 29.2977C105.623 29.2977 105.937 29.2454 106.22 29.148C106.505 29.0432 106.751 28.9084 106.967 28.7362C107.184 28.5715 107.363 28.3843 107.505 28.1746C107.647 27.965 107.752 27.7554 107.819 27.5383L107.035 27.4259C106.967 27.5757 106.886 27.7179 106.781 27.8602C106.676 28.0024 106.549 28.1223 106.407 28.2271C106.265 28.3394 106.101 28.4217 105.914 28.4892C105.728 28.5565 105.511 28.5865 105.279 28.5865C105.025 28.5865 104.779 28.534 104.547 28.4217C104.316 28.3094 104.106 28.1597 103.927 27.965C103.748 27.7779 103.606 27.5532 103.501 27.2912C103.389 27.0291 103.337 26.7521 103.337 26.4526C103.337 26.1531 103.389 25.8761 103.501 25.614C103.606 25.3519 103.748 25.1273 103.927 24.9326C104.106 24.7454 104.316 24.5958 104.547 24.4834C104.779 24.3711 105.025 24.3187 105.279 24.3187C105.496 24.3187 105.69 24.3487 105.862 24.4086C106.034 24.4685 106.191 24.5433 106.325 24.6407C106.452 24.738 106.564 24.8503 106.661 24.9776C106.759 25.1048 106.833 25.2396 106.886 25.3669L107.669 25.2546C107.603 25.0525 107.505 24.8503 107.371 24.6481C107.236 24.4535 107.072 24.2813 106.87 24.124C106.669 23.9668 106.43 23.847 106.168 23.7496C105.907 23.6523 105.608 23.6074 105.279 23.6074C104.913 23.6074 104.569 23.6823 104.241 23.8321C103.912 23.9817 103.621 24.1839 103.374 24.4385C103.12 24.7005 102.919 25.0001 102.777 25.3445C102.627 25.6889 102.553 26.0557 102.553 26.4526C102.553 26.8494 102.627 27.2163 102.777 27.5607C102.919 27.9051 103.12 28.2046 103.374 28.4592C103.621 28.7212 103.912 28.9234 104.241 29.0731C104.569 29.2229 104.913 29.2977 105.279 29.2977Z" fill="black"/>
<path id="Vector_20" d="M112.187 24.7676V28.1369C111.881 28.1294 111.605 28.077 111.366 27.9872C111.119 27.9048 110.918 27.785 110.753 27.6353C110.589 27.4855 110.462 27.3058 110.379 27.1037C110.29 26.9015 110.245 26.6844 110.245 26.4523C110.245 26.2202 110.29 26.003 110.379 25.8009C110.462 25.5987 110.589 25.4265 110.753 25.2767C110.918 25.1271 111.119 25.0072 111.366 24.9173C111.605 24.8275 111.881 24.7751 112.187 24.7676ZM112.972 28.1369V24.7676C113.278 24.7751 113.554 24.8275 113.801 24.9173C114.04 25.0072 114.242 25.1271 114.406 25.2767C114.571 25.4265 114.698 25.5987 114.787 25.8009C114.869 26.003 114.914 26.2202 114.914 26.4523C114.914 26.6844 114.869 26.9015 114.787 27.1037C114.698 27.3058 114.571 27.4855 114.406 27.6353C114.242 27.785 114.04 27.9048 113.801 27.9872C113.554 28.077 113.278 28.1294 112.972 28.1369ZM112.972 29.3723V28.8482C113.383 28.8407 113.756 28.7658 114.092 28.6311C114.429 28.5038 114.712 28.3241 114.952 28.107C115.191 27.8898 115.377 27.6427 115.504 27.3583C115.631 27.0737 115.699 26.7742 115.699 26.4523C115.699 26.1303 115.631 25.8308 115.504 25.5463C115.377 25.2618 115.191 25.0072 114.952 24.7901C114.712 24.5729 114.429 24.4007 114.092 24.266C113.756 24.1387 113.383 24.0638 112.972 24.0563V23.5322H112.187V24.0563C111.776 24.0638 111.403 24.1387 111.067 24.266C110.731 24.4007 110.447 24.5729 110.208 24.7901C109.969 25.0072 109.782 25.2618 109.655 25.5463C109.528 25.8308 109.461 26.1303 109.461 26.4523C109.461 26.7742 109.528 27.0737 109.655 27.3583C109.782 27.6427 109.969 27.8898 110.208 28.107C110.447 28.3241 110.731 28.5038 111.067 28.6311C111.403 28.7658 111.776 28.8407 112.187 28.8482V29.3723H112.972Z" fill="black"/>
<path id="Vector_21" d="M123.017 26.4526C123.017 26.0557 122.942 25.6889 122.793 25.3445C122.643 25.0001 122.442 24.7005 122.188 24.4385C121.934 24.1839 121.635 23.9817 121.299 23.8321C120.962 23.6823 120.596 23.6074 120.215 23.6074C119.834 23.6074 119.469 23.6823 119.132 23.8321C118.796 23.9817 118.497 24.1839 118.243 24.4385C117.989 24.7005 117.787 25.0001 117.638 25.3445C117.489 25.6889 117.414 26.0557 117.414 26.4526C117.414 26.8494 117.489 27.2163 117.638 27.5607C117.787 27.9051 117.989 28.2046 118.243 28.4592C118.497 28.7212 118.796 28.9234 119.132 29.0731C119.469 29.2229 119.834 29.2977 120.215 29.2977C120.596 29.2977 120.962 29.2229 121.299 29.0731C121.635 28.9234 121.934 28.7212 122.188 28.4592C122.442 28.2046 122.643 27.9051 122.793 27.5607C122.942 27.2163 123.017 26.8494 123.017 26.4526ZM118.199 26.4526C118.199 26.1531 118.251 25.8761 118.363 25.614C118.475 25.3519 118.617 25.1273 118.803 24.9326C118.99 24.7454 119.199 24.5958 119.446 24.4834C119.692 24.3711 119.946 24.3187 120.215 24.3187C120.485 24.3187 120.738 24.3711 120.985 24.4834C121.231 24.5958 121.441 24.7454 121.627 24.9326C121.814 25.1273 121.956 25.3519 122.068 25.614C122.18 25.8761 122.232 26.1531 122.232 26.4526C122.232 26.7521 122.18 27.0291 122.068 27.2912C121.956 27.5532 121.814 27.7779 121.627 27.965C121.441 28.1597 121.231 28.3094 120.985 28.4217C120.738 28.534 120.485 28.5865 120.215 28.5865C119.946 28.5865 119.692 28.534 119.446 28.4217C119.199 28.3094 118.99 28.1597 118.803 27.965C118.617 27.7779 118.475 27.5532 118.363 27.2912C118.251 27.0291 118.199 26.7521 118.199 26.4526Z" fill="black"/>
<path id="Vector_22" d="M129.405 25.7403C129.405 25.4782 129.353 25.2312 129.256 24.9991C129.151 24.767 129.01 24.5648 128.823 24.3926C128.636 24.2204 128.419 24.0781 128.165 23.9807C127.904 23.8834 127.62 23.8311 127.313 23.8311H125.035V29.0721H125.82V27.6496H127.313C127.62 27.6496 127.904 27.5971 128.165 27.4998C128.419 27.4025 128.636 27.2602 128.823 27.088C129.01 26.9158 129.151 26.7137 129.256 26.4816C129.353 26.2494 129.405 26.0023 129.405 25.7403ZM128.621 25.7403C128.621 26.0997 128.509 26.3917 128.277 26.6088C128.046 26.826 127.725 26.9383 127.313 26.9383H125.82V24.5423H127.313C127.725 24.5423 128.046 24.6546 128.277 24.8718C128.509 25.0889 128.621 25.3809 128.621 25.7403Z" fill="black"/>
<path id="Vector_23" d="M134.152 27.2387L135.982 24.9551H136.057V29.0731H136.841V23.832H135.982L134.152 26.1156L132.322 23.832H131.463V29.0731H132.247V24.9551H132.322L134.152 27.2387Z" fill="black"/>
<path id="Vector_24" d="M140.035 27.1264L140.656 24.5433H141.739L142.351 27.1264H140.035ZM140.021 23.832L138.75 29.0731H139.572L139.863 27.8377H142.523L142.822 29.0731H143.644L142.374 23.832H140.021Z" fill="black"/>
<path id="Vector_25" d="M145.549 29.0721H149.434V29.9707H150.218V28.3608H149.621V23.8311H148.836V28.3608H146.333V23.8311H145.549V29.0721Z" fill="black"/>
<path id="Vector_26" d="M155.45 23.832L152.91 27.7629H152.835V23.832H152.051V29.0731H152.91L155.45 25.1423H155.525V29.0731H156.309V23.832H155.45Z" fill="black"/>
<path id="Vector_27" d="M161.985 23.8311L159.445 27.7619H159.37V23.8311H158.586V29.0721H159.445L161.985 25.1413H162.059V29.0721H162.844V23.8311H161.985Z" fill="black"/>
<path id="Vector_28" d="M34.4662 9.39739C33.9787 9.38861 33.4959 9.4789 33.0462 9.66112C32.8123 9.75589 32.676 9.99427 32.676 10.2479V23.4044C32.676 23.4618 32.6298 23.5083 32.5728 23.5083C32.5157 23.5083 32.4695 23.4618 32.4695 23.4044V15.5873C32.4695 15.5105 32.4075 15.4502 32.3318 15.4598C32.3005 15.4637 32.2693 15.4676 32.238 15.4697C32.2138 15.4714 32.1941 15.4515 32.1941 15.427C32.1941 15.4011 32.172 15.3807 32.1463 15.383C31.416 15.4481 30.8364 15.5898 30.6187 15.9554C30.5753 16.0283 30.5324 16.1029 30.4931 16.1781C30.4474 16.2657 30.4242 16.3641 30.4269 16.4644V23.7623C30.4269 23.8771 30.3344 23.9702 30.2203 23.9702H30.1286C30.0651 23.9702 30.0138 24.0218 30.0138 24.0857C30.0138 24.1494 29.9624 24.2011 29.899 24.2011H29.8072C29.6932 24.2011 29.6007 24.2942 29.6007 24.4089V25.4367C29.6007 25.4813 29.5647 25.5175 29.5203 25.5175C29.476 25.5175 29.44 25.5537 29.44 25.5984V25.8755C29.44 25.8946 29.4246 25.9102 29.4056 25.9102C29.3866 25.9102 29.3711 25.9256 29.3711 25.9448V26.961C29.3711 27.0694 29.2838 27.1573 29.1761 27.1573C29.0684 27.1573 28.981 27.0694 28.981 26.961V24.3069C28.981 24.2827 28.9771 24.2587 28.9695 24.2358L28.9682 24.2317C28.9615 24.2115 28.958 24.1903 28.958 24.1689V24.0059C28.958 23.9862 28.9422 23.9702 28.9226 23.9702C28.9038 23.9702 28.8883 23.9555 28.8871 23.9367L28.8663 23.6007L28.8505 23.4113C28.8459 23.3556 28.8892 23.3101 28.8892 23.2542C28.8892 23.2358 28.8819 23.2182 28.869 23.2052C28.8561 23.1922 28.8386 23.1849 28.8203 23.1849C28.8021 23.1849 28.7846 23.1922 28.7717 23.2052C28.7588 23.2182 28.7515 23.2358 28.7515 23.2542C28.7515 23.3083 28.7948 23.3546 28.7903 23.4084L28.7744 23.6007L28.7535 23.9367C28.7524 23.9555 28.7369 23.9702 28.7181 23.9702C28.6986 23.9702 28.6826 23.9862 28.6826 24.0059V24.0164C28.6826 24.0419 28.6621 24.0625 28.6367 24.0625H28.5022C28.4624 24.0625 28.4302 24.0301 28.4302 23.9901C28.4302 23.9635 28.4158 23.9392 28.3927 23.9265L28.2196 23.8315C28.1921 23.8164 28.1614 23.8085 28.1301 23.8085C28.101 23.8085 28.0724 23.8153 28.0464 23.8284L27.8497 23.9273C27.8257 23.9394 27.8105 23.9642 27.8105 23.9912C27.8105 24.0306 27.7788 24.0625 27.7396 24.0625H27.604C27.5786 24.0625 27.558 24.0419 27.558 24.0164V24.0059C27.558 23.9862 27.5422 23.9702 27.5226 23.9702C27.5038 23.9702 27.4883 23.9555 27.4871 23.9367L27.4663 23.6007L27.4506 23.4113C27.4459 23.3556 27.4892 23.3101 27.4892 23.2542C27.4892 23.2358 27.482 23.2182 27.4691 23.2052C27.4562 23.1922 27.4386 23.1849 27.4203 23.1849C27.4021 23.1849 27.3846 23.1922 27.3717 23.2052C27.3588 23.2182 27.3515 23.2358 27.3515 23.2542C27.3515 23.3083 27.3949 23.3546 27.3904 23.4084L27.3745 23.6007L27.3522 23.9583C27.3518 23.9647 27.3569 23.9702 27.3634 23.9702C27.3695 23.9702 27.3745 23.9751 27.3745 23.9814V24.1689C27.3745 24.1903 27.3711 24.2115 27.3643 24.2317L27.363 24.2358C27.3554 24.2587 27.3515 24.2827 27.3515 24.3069V25.2635C27.3515 25.3655 27.2693 25.4483 27.1679 25.4483C27.0665 25.4483 26.9843 25.3655 26.9843 25.2635V22.4575C26.9843 22.4511 26.9895 22.4459 26.9958 22.4459C27.0021 22.4459 27.0072 22.4408 27.0072 22.4343V22.0786C27.0072 22.0519 26.9858 22.0302 26.9592 22.0302C26.9344 22.0302 26.9137 22.0113 26.9113 21.9864L26.8695 21.5452L26.8545 21.3183C26.8495 21.2424 26.9155 21.1825 26.9155 21.1064C26.9155 21.0819 26.9058 21.0584 26.8886 21.0411C26.8713 21.0237 26.848 21.0141 26.8237 21.0141C26.7993 21.0141 26.776 21.0237 26.7588 21.0411C26.7415 21.0584 26.7318 21.0819 26.7318 21.1064C26.7318 21.1811 26.7975 21.2473 26.7925 21.3218L26.7778 21.5452L26.736 21.9864C26.7336 22.0113 26.7129 22.0302 26.6881 22.0302C26.6616 22.0302 26.6401 22.0519 26.6401 22.0786V22.1804C26.6401 22.2632 26.5733 22.3305 26.4909 22.3305H26.4105C26.3345 22.3305 26.2728 22.2684 26.2728 22.1919V22.1688C26.2728 22.105 26.2215 22.0533 26.1581 22.0533C26.0947 22.0533 26.0433 22.0016 26.0433 21.9378V19.7793C26.0433 19.7724 26.0379 19.7669 26.0311 19.7669C26.0249 19.7669 26.0197 19.7624 26.0189 19.7563L25.9992 19.6175C25.998 19.6094 25.9974 19.6011 25.9974 19.5929V19.5061C25.9974 19.4957 26.0015 19.4856 26.009 19.4782C26.0163 19.4709 26.0217 19.4597 26.0149 19.4517L26.0137 19.4503L26.0124 19.4492C26.0044 19.4423 25.9933 19.4478 25.986 19.4552L25.9831 19.4581C25.9776 19.4636 25.9737 19.4739 25.975 19.4816C25.9778 19.4977 25.9974 19.503 25.9974 19.5192V19.5976C25.9974 19.6027 25.9971 19.6078 25.9964 19.6129L25.976 19.7563C25.9751 19.7624 25.97 19.7669 25.9639 19.7669C25.9571 19.7669 25.9516 19.7724 25.9516 19.7793V19.8247C25.9516 19.8438 25.9361 19.8593 25.9171 19.8593C25.8981 19.8593 25.8827 19.8438 25.8827 19.8247V19.8131C25.8827 19.7876 25.8621 19.7669 25.8368 19.7669H25.8023C25.7833 19.7669 25.7679 19.7514 25.7679 19.7323C25.7679 19.7132 25.7525 19.6976 25.7335 19.6976H25.6867C25.6434 19.6976 25.6075 19.6604 25.6238 19.6199C25.6277 19.6101 25.6306 19.5998 25.6306 19.5893C25.6307 19.5315 25.6173 19.4744 25.5916 19.4226C25.5694 19.3779 25.5386 19.3384 25.5011 19.3062C25.4822 19.2899 25.4696 19.267 25.4696 19.2421V19.2019C25.4696 19.1823 25.4538 19.1664 25.4343 19.1664C25.4155 19.1664 25.4 19.1516 25.3991 19.1327L25.3318 17.7115L25.2874 16.972C25.2867 16.9619 25.2972 16.955 25.3061 16.9595L25.3102 16.9615C25.3226 16.9678 25.3342 16.9517 25.3244 16.9418C25.3176 16.9349 25.3208 16.9232 25.3297 16.9198C25.3656 16.9063 25.3965 16.8817 25.418 16.8493C25.4283 16.8338 25.436 16.8169 25.4413 16.7993C25.4566 16.7473 25.4545 16.6888 25.4352 16.6381C25.431 16.6273 25.4258 16.6168 25.4196 16.6069C25.4184 16.6048 25.417 16.6028 25.4157 16.6008C25.41 16.5924 25.4009 16.603 25.4054 16.6121C25.4218 16.645 25.4281 16.6819 25.4237 16.7184C25.4196 16.7684 25.3996 16.8158 25.3664 16.8533C25.3557 16.8655 25.3437 16.8765 25.3307 16.886C25.2773 16.9254 25.202 16.9301 25.1469 16.8934C25.1324 16.8837 25.1191 16.8722 25.1074 16.8589C25.0733 16.8203 25.0551 16.7701 25.0564 16.7184C25.0564 16.6825 25.0648 16.6472 25.0807 16.6151C25.0862 16.6041 25.0757 16.5927 25.0688 16.603C25.0674 16.6051 25.0659 16.6073 25.0645 16.6095C25.0443 16.6421 25.0335 16.6799 25.0335 16.7184C25.0343 16.7627 25.0476 16.8058 25.072 16.8427C25.093 16.8743 25.1213 16.9001 25.1544 16.918C25.1623 16.9223 25.1644 16.9332 25.158 16.9396C25.1477 16.9499 25.1598 16.9666 25.1727 16.9602L25.174 16.9595C25.183 16.955 25.1934 16.9619 25.1928 16.972L25.1483 17.7115L25.081 19.1327C25.0801 19.1516 25.0646 19.1664 25.0458 19.1664C25.0264 19.1664 25.0106 19.1823 25.0106 19.2019V19.2435C25.0106 19.2677 24.9989 19.2902 24.9811 19.3065C24.9446 19.3399 24.9145 19.3799 24.8923 19.4245C24.8644 19.4807 24.8499 19.5425 24.8499 19.6053C24.8499 19.6514 24.8499 19.6976 24.8729 19.6976H24.7467C24.7276 19.6976 24.7122 19.7132 24.7122 19.7323C24.7122 19.7514 24.6968 19.7669 24.6778 19.7669H24.6433C24.618 19.7669 24.5975 19.7876 24.5975 19.8131V19.8247C24.5975 19.8438 24.582 19.8593 24.563 19.8593C24.544 19.8593 24.5286 19.8438 24.5286 19.8247V19.7793C24.5286 19.7724 24.5231 19.7669 24.5164 19.7669C24.5102 19.7669 24.505 19.7624 24.5041 19.7563L24.4844 19.6175C24.4833 19.6094 24.4827 19.6011 24.4827 19.5929V19.5061C24.4827 19.4957 24.4868 19.4856 24.4942 19.4782C24.5015 19.4709 24.5069 19.4597 24.5002 19.4517L24.4989 19.4503C24.4947 19.4461 24.4888 19.4436 24.4827 19.4436C24.4693 19.4455 24.4567 19.4507 24.4459 19.4588C24.4397 19.4634 24.4361 19.4739 24.4374 19.4816C24.4401 19.4977 24.4598 19.503 24.4598 19.5193V19.5976C24.4598 19.6027 24.4594 19.6078 24.4587 19.6129L24.4383 19.7563C24.4375 19.7624 24.4323 19.7669 24.4262 19.7669C24.4194 19.7669 24.4139 19.7724 24.4139 19.7793V21.9494C24.4139 22.0195 24.3574 22.0764 24.2876 22.0764C24.2179 22.0764 24.1614 22.1332 24.1614 22.2034V22.215C24.1614 22.2915 24.0998 22.3535 24.0237 22.3535H23.9434C23.861 22.3535 23.7942 22.2863 23.7942 22.2034V22.1017C23.7942 22.0749 23.7727 22.0533 23.7461 22.0533C23.7213 22.0533 23.7006 22.0343 23.6983 22.0095L23.6565 21.5683L23.6415 21.3414C23.6364 21.2654 23.7024 21.2056 23.7024 21.1295C23.7024 21.105 23.6927 21.0815 23.6755 21.0642C23.6583 21.0469 23.635 21.0371 23.6106 21.0371C23.5862 21.0371 23.5629 21.0469 23.5457 21.0642C23.5285 21.0815 23.5188 21.105 23.5188 21.1295C23.5188 21.2042 23.5844 21.2704 23.5795 21.3449L23.5647 21.5683L23.5209 22.0314C23.5197 22.0439 23.5093 22.0533 23.4969 22.0533C23.4837 22.0533 23.4729 22.0642 23.4729 22.0775V22.4575C23.4729 22.4638 23.478 22.469 23.4844 22.469C23.4907 22.469 23.4958 22.4742 23.4958 22.4806V25.0787C23.4958 25.2955 23.3212 25.4713 23.1057 25.4713C22.8902 25.4713 22.7155 25.2955 22.7155 25.0787V24.33C22.7155 24.3058 22.7116 24.2818 22.7041 24.2588L22.7027 24.2548C22.696 24.2345 22.6925 24.2133 22.6925 24.192V24.029C22.6925 24.0093 22.6767 23.9932 22.6571 23.9932C22.6383 23.9932 22.6228 23.9786 22.6216 23.9597L22.6008 23.6238L22.5851 23.4344C22.5805 23.3787 22.6237 23.3332 22.6237 23.2773C22.6237 23.259 22.6165 23.2414 22.6036 23.2284C22.5907 23.2153 22.5731 23.2081 22.5548 23.2081C22.5366 23.2081 22.5191 23.2153 22.5062 23.2284C22.4933 23.2414 22.486 23.259 22.486 23.2773C22.486 23.3314 22.5294 23.3776 22.5249 23.4315L22.509 23.6238L22.4881 23.9597C22.487 23.9786 22.4714 23.9932 22.4527 23.9932C22.4331 23.9932 22.4172 24.0093 22.4172 24.029V24.0395C22.4172 24.0649 22.3966 24.0857 22.3713 24.0857H22.2511C22.2034 24.0857 22.1647 24.0467 22.1647 23.9987C22.1647 23.9669 22.1474 23.9376 22.1197 23.9224L21.9324 23.8196C21.9192 23.8123 21.9044 23.8085 21.8893 23.8085C21.8742 23.8085 21.8594 23.8123 21.8462 23.8196L21.6514 23.9265C21.6283 23.9392 21.6139 23.9635 21.6139 23.9901C21.6139 24.0301 21.5817 24.0625 21.5419 24.0625H21.4073C21.382 24.0625 21.3615 24.0419 21.3615 24.0164V24.0059C21.3615 23.9862 21.3455 23.9702 21.326 23.9702C21.3072 23.9702 21.2917 23.9555 21.2905 23.9367L21.2696 23.6007L21.254 23.4113C21.2494 23.3556 21.2926 23.3101 21.2926 23.2542C21.2926 23.2358 21.2853 23.2182 21.2724 23.2052C21.2595 23.1922 21.242 23.1849 21.2238 23.1849C21.2055 23.1849 21.188 23.1922 21.175 23.2052C21.1621 23.2182 21.1549 23.2358 21.1549 23.2542C21.1549 23.3083 21.1982 23.3546 21.1938 23.4084L21.1778 23.6007L21.157 23.9367C21.1558 23.9555 21.1403 23.9702 21.1216 23.9702C21.1019 23.9702 21.0861 23.9862 21.0861 24.0059V24.1689C21.0861 24.1903 21.0826 24.2115 21.0759 24.2317L21.0745 24.2358C21.067 24.2587 21.0631 24.2827 21.0631 24.3069V28.1815C21.0631 28.2281 21.0256 28.2658 20.9793 28.2658C20.9465 28.2658 20.9167 28.2851 20.9031 28.3152L20.8222 28.4943C20.8168 28.5062 20.8255 28.5199 20.8385 28.5199C20.8485 28.5199 20.8565 28.5279 20.8565 28.538V28.8778C20.8565 28.948 20.8 29.0048 20.7303 29.0048H20.6711C20.6341 29.0048 20.6041 29.035 20.6041 29.0723C20.6041 29.0884 20.5984 29.104 20.5879 29.1162L20.3616 29.3819C20.3407 29.4064 20.3102 29.4205 20.2781 29.4205C20.2173 29.4205 20.168 29.4701 20.168 29.5313V29.9287C20.168 29.9541 20.1475 29.9748 20.1221 29.9748C20.0968 29.9748 20.0762 29.9955 20.0762 30.021V30.1018C20.0762 30.1337 20.0505 30.1596 20.0189 30.1596C19.9871 30.1596 19.9615 30.1854 19.9615 30.2173V30.7023C19.9615 30.8108 19.8742 30.8986 19.7664 30.8986H19.6516C19.6073 30.8986 19.5713 30.9348 19.5713 30.9794V31.0257C19.5713 31.0448 19.5867 31.0603 19.6058 31.0603C19.6248 31.0603 19.6402 31.0758 19.6402 31.0949V31.4846C19.6402 31.6823 19.504 31.8539 19.3126 31.8986C12.2633 33.5465 6.01937 35.5297 0.84375 37.804C17.7124 32.3767 40.7316 29.0279 66.1148 29.0279C68.0561 29.0279 69.8338 29.0462 71.7229 29.0829C72.108 29.0904 72.4251 28.7774 72.4238 28.3892L72.4032 22.3305V22.1919L72.2199 19.536V19.0625C72.2199 18.9797 72.2865 18.9124 72.3689 18.9124H72.3805C72.456 18.9124 72.5178 18.8503 72.5178 18.7739V18.7161C72.5178 18.6714 72.4821 18.6353 72.4375 18.6353C72.3936 18.6353 72.3572 18.5991 72.3572 18.5544V18.312C72.3572 18.2864 72.3778 18.2658 72.4032 18.2658C72.4286 18.2658 72.4492 18.2451 72.4492 18.2195V18.1065C72.4492 18.0286 72.3867 17.9656 72.3091 17.9656C72.2336 17.9656 72.1718 17.9053 72.1691 17.8294L72.1046 15.9332V15.7138C72.1046 15.7074 72.1101 15.7022 72.1162 15.7022C72.1224 15.7022 72.1279 15.6971 72.1279 15.6907V15.4598C72.1279 15.4406 72.1121 15.4251 72.0936 15.4251C72.0744 15.4251 72.0593 15.4096 72.0593 15.3905V15.2288C72.0593 15.2096 72.0744 15.1942 72.0936 15.1942C72.1121 15.1942 72.1279 15.1786 72.1279 15.1595V14.9523C72.1279 14.9328 72.1121 14.917 72.0929 14.917C72.0737 14.917 72.0586 14.902 72.0579 14.883L71.994 13.2097C71.992 13.1584 72.0325 13.1156 72.084 13.1156C72.1334 13.1156 72.1739 13.0751 72.1739 13.025V12.9309C72.1739 12.9053 72.1945 12.8847 72.2199 12.8847C72.2453 12.8847 72.2659 12.864 72.2659 12.8385V12.342C72.2659 12.3228 72.2501 12.3073 72.2309 12.3073C72.2123 12.3073 72.1966 12.2918 72.1966 12.2727V12.2265C72.1966 12.2073 72.1814 12.1918 72.1622 12.1918C72.143 12.1918 72.1279 12.1763 72.1279 12.1572V11.7184C72.1279 11.6993 72.143 11.6837 72.1622 11.6837C72.1814 11.6837 72.1966 11.6683 72.1966 11.6491V11.4528C72.1966 11.4018 72.1554 11.3604 72.1046 11.3604C72.0545 11.3604 72.0133 11.3191 72.0133 11.268V10.8639C72.0133 10.8447 72.0284 10.8293 72.0476 10.8293C72.0668 10.8293 72.0819 10.8137 72.0819 10.7946V10.6098C72.0819 10.5907 72.0668 10.5752 72.0476 10.5752C72.0284 10.5752 72.0133 10.5597 72.0133 10.5405V10.0325C72.0133 10.0133 72.0284 9.99779 72.0476 9.99779C72.0668 9.99779 72.0819 9.98232 72.0819 9.96319V9.77841C72.0819 9.75928 72.0668 9.7438 72.0476 9.7438C72.0284 9.7438 72.0133 9.72826 72.0133 9.70913V9.22414C72.0133 9.16674 72.0593 9.12025 72.1162 9.12025C72.1732 9.12025 72.2199 9.0737 72.2199 9.01629V8.72763C72.2199 8.70207 72.2405 8.68142 72.2659 8.68142C72.2906 8.68142 72.3112 8.66076 72.3112 8.6352V8.21952C72.3112 8.20677 72.3009 8.19643 72.2885 8.19643C72.2755 8.19643 72.2659 8.18609 72.2659 8.17334V7.58442C72.2659 7.50151 72.1986 7.4343 72.1162 7.4343C72.0339 7.4343 71.9673 7.36709 71.9673 7.28419V6.75301C71.9673 6.73387 71.9824 6.71836 72.0016 6.71836C72.0208 6.71836 72.0359 6.70285 72.0359 6.68372V6.67217C72.0359 6.64666 72.0153 6.62598 71.9899 6.62598H71.9673C71.9288 6.62598 71.8986 6.59497 71.8986 6.5567V5.48279C71.8986 5.46366 71.9137 5.44815 71.933 5.44815C71.9515 5.44815 71.9673 5.43264 71.9673 5.41351V5.40196C71.9673 5.37645 71.9467 5.35577 71.9213 5.35577H71.8986C71.8602 5.35577 71.8293 5.32475 71.8293 5.28649V4.27031C71.8293 4.24481 71.8499 4.22413 71.8753 4.22413H71.8986C71.911 4.22413 71.9213 4.21379 71.9213 4.20103C71.9213 4.18828 71.911 4.17793 71.8986 4.17793H71.8636C71.832 4.17793 71.8066 4.15209 71.8066 4.12019V3.41581C71.8066 3.40305 71.8169 3.39272 71.8293 3.39272C71.8423 3.39272 71.8526 3.38238 71.8526 3.36962V3.33498C71.8526 3.31584 71.8369 3.30033 71.8183 3.30033C71.7991 3.30033 71.7833 3.28483 71.7833 3.26569V2.5844C71.7833 2.57164 71.7936 2.5613 71.8066 2.5613C71.819 2.5613 71.8293 2.55096 71.8293 2.5382V2.50356C71.8293 2.48443 71.8142 2.46892 71.795 2.46892C71.7758 2.46892 71.7607 2.45341 71.7607 2.43427V1.93774C71.7607 1.92499 71.771 1.91465 71.7833 1.91465C71.7964 1.91465 71.8066 1.90431 71.8066 1.89155V1.86845C71.8066 1.84294 71.7861 1.82227 71.7607 1.82227C71.7353 1.82227 71.7147 1.84294 71.7147 1.86845V1.89155C71.7147 1.90431 71.725 1.91465 71.738 1.91465C71.7504 1.91465 71.7607 1.92499 71.7607 1.93774V2.39964C71.7607 2.42515 71.7401 2.44582 71.7147 2.44582C71.6893 2.44582 71.6687 2.46651 71.6687 2.49202V2.53821C71.6687 2.55096 71.679 2.5613 71.692 2.5613C71.7044 2.5613 71.7147 2.57164 71.7147 2.5844V3.26568C71.7147 3.28482 71.6996 3.30033 71.6803 3.30033C71.6611 3.30033 71.646 3.31584 71.646 3.33498V3.36962C71.646 3.38237 71.6563 3.39272 71.6687 3.39272C71.6817 3.39272 71.692 3.40306 71.692 3.41581V4.07401C71.692 4.1059 71.6659 4.13174 71.6344 4.13174H71.6227C71.5973 4.13174 71.5774 4.15243 71.5774 4.17793C71.5774 4.20344 71.5973 4.22413 71.6227 4.22413C71.6481 4.22413 71.6687 4.24481 71.6687 4.27032V5.26339C71.6687 5.30165 71.6378 5.33268 71.6 5.33268H71.5774C71.552 5.33268 71.5314 5.35336 71.5314 5.37887V5.39041C71.5314 5.40954 71.5465 5.42506 71.5657 5.42506C71.5842 5.42506 71.6 5.44057 71.6 5.4597V6.52206C71.6 6.5667 71.5643 6.60289 71.5197 6.60289H71.4854C71.46 6.60289 71.4394 6.62357 71.4394 6.64908V6.66063C71.4394 6.67976 71.4545 6.69526 71.4737 6.69526C71.4929 6.69526 71.508 6.71078 71.508 6.72991V7.26109C71.508 7.344 71.4415 7.41121 71.3591 7.41121C71.2767 7.41121 71.2101 7.47841 71.2101 7.56132V8.15024C71.2101 8.163 71.1998 8.17334 71.1868 8.17334C71.1744 8.17334 71.1641 8.18368 71.1641 8.19643V8.61213C71.1641 8.63762 71.1847 8.65834 71.2101 8.65834C71.2348 8.65834 71.2554 8.679 71.2554 8.70449V8.99322C71.2554 9.05063 71.3021 9.09711 71.3591 9.09711C71.4161 9.09711 71.4621 9.14367 71.4621 9.20107V9.68606C71.4621 9.70519 71.447 9.72066 71.4277 9.72066C71.4085 9.72066 71.3934 9.7362 71.3934 9.75534V9.94012C71.3934 9.95925 71.4085 9.97472 71.4277 9.97472C71.447 9.97472 71.4621 9.99026 71.4621 10.0094V10.5175C71.4621 10.5366 71.447 10.5521 71.4277 10.5521C71.4085 10.5521 71.3934 10.5676 71.3934 10.5867V10.7715C71.3934 10.7906 71.4085 10.8061 71.4277 10.8061C71.447 10.8061 71.4621 10.8217 71.4621 10.8408V11.2565C71.4621 11.3011 71.4264 11.3373 71.3817 11.3373C71.3378 11.3373 71.3014 11.3735 71.3014 11.4181V11.626C71.3014 11.6451 71.3172 11.6607 71.3357 11.6607C71.355 11.6607 71.3708 11.6761 71.3708 11.6953V12.1341C71.3708 12.1532 71.355 12.1687 71.3357 12.1687C71.3172 12.1687 71.3014 12.1843 71.3014 12.2034V12.238C71.3014 12.2635 71.2808 12.2842 71.2554 12.2842C71.23 12.2842 71.2101 12.3049 71.2101 12.3304V12.8154C71.2101 12.8409 71.23 12.8616 71.2554 12.8616C71.2808 12.8616 71.3014 12.8823 71.3014 12.9078V13.0019C71.3014 13.052 71.3419 13.0925 71.3914 13.0925C71.4428 13.0925 71.4833 13.1352 71.482 13.1866L71.4174 14.86C71.4167 14.8789 71.4016 14.8939 71.3824 14.8939C71.3632 14.8939 71.3474 14.9097 71.3474 14.9293V15.1364C71.3474 15.1555 71.3632 15.1711 71.3817 15.1711C71.401 15.1711 71.4161 15.1866 71.4161 15.2057V15.3673C71.4161 15.3865 71.401 15.402 71.3817 15.402C71.3632 15.402 71.3474 15.4175 71.3474 15.4366V15.6676C71.3474 15.674 71.3529 15.6791 71.3591 15.6791C71.3653 15.6791 71.3708 15.6843 71.3708 15.6907V15.9101L71.3062 17.8063C71.3035 17.8822 71.2417 17.9424 71.1662 17.9424C71.0886 17.9424 71.0262 18.0055 71.0262 18.0834V18.1965C71.0262 18.222 71.0468 18.2427 71.0722 18.2427C71.0976 18.2427 71.1181 18.2633 71.1181 18.2888V18.566C71.1181 18.6042 71.0873 18.6353 71.0495 18.6353C71.0111 18.6353 70.9802 18.6663 70.9802 18.7046V18.7739C70.9802 18.8503 71.042 18.9124 71.1181 18.9124H71.1298C71.2122 18.9124 71.2788 18.9797 71.2788 19.0625V19.536L71.1868 22.1919V22.3305L71.1429 23.777C71.1422 23.8027 71.1147 23.8192 71.09 23.8137C71.0687 23.8091 71.0516 23.8279 71.0543 23.8495L71.0873 24.1323C71.0914 24.1689 71.0625 24.2011 71.0262 24.2011C70.9898 24.2011 70.961 24.1689 70.9658 24.1323L70.9836 23.9776C70.9912 23.9093 70.9108 23.8545 70.8429 23.8545C70.7742 23.8545 70.6939 23.9093 70.7015 23.9776L70.7159 24.0979C70.7221 24.1529 70.6795 24.2011 70.6246 24.2011C70.5697 24.2011 70.5271 24.1529 70.5333 24.0979L70.5477 23.9776C70.5553 23.9093 70.475 23.8545 70.4063 23.8545C70.3383 23.8545 70.2574 23.9093 70.2656 23.9776L70.2834 24.1323C70.2882 24.1689 70.2594 24.2011 70.223 24.2011C70.1867 24.2011 70.1578 24.1689 70.1619 24.1323L70.1805 23.9776C70.188 23.9093 70.1077 23.8545 70.0391 23.8545C69.9711 23.8545 69.8908 23.9093 69.8983 23.9776L69.9169 24.1323C69.921 24.1689 69.8922 24.2011 69.8558 24.2011C69.8194 24.2011 69.7906 24.1689 69.7947 24.1323L69.8132 23.9776C69.8208 23.9093 69.7405 23.8545 69.6718 23.8545C69.6039 23.8545 69.5236 23.9093 69.5311 23.9776L69.5476 24.1161C69.5531 24.1614 69.5174 24.2011 69.4723 24.2011C69.4306 24.2011 69.3968 24.167 69.3968 24.125V23.3582C69.3968 23.3518 69.4019 23.3466 69.4082 23.3466C69.4145 23.3466 69.4197 23.3414 69.4197 23.3351V23.2427C69.4197 23.1853 69.3735 23.1388 69.3164 23.1388H69.2667C69.1952 23.1388 69.1331 23.0888 69.1175 23.0186L69.1128 22.9979C69.0708 22.81 68.8047 22.81 68.7627 22.9979L68.7491 23.0587C68.7386 23.1055 68.6973 23.1388 68.6496 23.1388C68.5932 23.1388 68.5476 23.1847 68.5476 23.2414V23.3697C68.5476 23.3825 68.5579 23.3928 68.5706 23.3928C68.5832 23.3928 68.5935 23.4031 68.5935 23.4159V24.2269C68.5935 24.251 68.5741 24.2704 68.5502 24.2704C68.5244 24.2704 68.5043 24.2477 68.5073 24.2218L68.5278 24.0469C68.5358 23.9785 68.4553 23.9238 68.3869 23.9238C68.3186 23.9238 68.2381 23.9786 68.246 24.0469L68.2641 24.2016C68.2684 24.2383 68.24 24.2704 68.2033 24.2704C68.1667 24.2704 68.1382 24.2383 68.1425 24.2016L68.1606 24.0469C68.1686 23.9786 68.0881 23.9238 68.0197 23.9238C67.9514 23.9238 67.8709 23.9786 67.8788 24.0469L67.8956 24.1901C67.9006 24.2329 67.8674 24.2704 67.8246 24.2704C67.7819 24.2704 67.7487 24.2329 67.7537 24.1901L67.7704 24.0469C67.7784 23.9786 67.6979 23.9238 67.6296 23.9238C67.5612 23.9238 67.4807 23.9786 67.4887 24.0469L67.5054 24.1901C67.5104 24.2329 67.4773 24.2704 67.4345 24.2704C67.3917 24.2704 67.3586 24.2329 67.3635 24.1901L67.3803 24.0469C67.3883 23.9786 67.3078 23.9238 67.2394 23.9238C67.1711 23.9238 67.0905 23.9786 67.0985 24.0469L67.1166 24.2016C67.1209 24.2383 67.0925 24.2704 67.0558 24.2704C67.0191 24.2704 66.9907 24.2383 66.995 24.2016L67.0131 24.0469C67.0211 23.9785 66.9405 23.9238 66.8722 23.9238C66.8039 23.9238 66.7233 23.9786 66.7313 24.0469L66.7494 24.2016C66.7537 24.2383 66.7253 24.2704 66.6886 24.2704C66.652 24.2704 66.6235 24.2383 66.6278 24.2016L66.6459 24.0469C66.6539 23.9786 66.5734 23.9238 66.505 23.9238C66.4366 23.9238 66.3561 23.9786 66.3641 24.0469L66.3822 24.2016C66.3864 24.2383 66.358 24.2704 66.3214 24.2704C66.2847 24.2704 66.2563 24.2383 66.2606 24.2016L66.2925 23.928C66.2957 23.9013 66.2749 23.8819 66.2495 23.8904C66.2261 23.8982 66.2067 23.8807 66.2067 23.8559V19.3743L66.1607 18.7277V18.6815C66.1607 18.656 66.1813 18.6353 66.2067 18.6353C66.232 18.6353 66.2525 18.6146 66.2525 18.5891V18.4851C66.2525 18.466 66.268 18.4505 66.287 18.4505C66.306 18.4505 66.3214 18.435 66.3214 18.4159V18.0054C66.3214 17.9834 66.3037 17.9656 66.2818 17.9656C66.2644 17.9656 66.249 17.9541 66.2439 17.9374L66.1638 17.6754C66.1618 17.6687 66.1603 17.6618 66.1595 17.6548C66.1439 17.5192 65.9481 17.5192 65.9324 17.6548C65.9316 17.6618 65.9302 17.6687 65.9282 17.6754L65.848 17.9374C65.8429 17.9541 65.8275 17.9656 65.8102 17.9656H65.8067C65.7868 17.9656 65.7706 17.9818 65.7706 18.0019C65.7706 18.0283 65.7437 18.0459 65.7197 18.0352L65.5891 17.9767C65.5725 17.9694 65.5547 17.9656 65.5366 17.9656H65.5078C65.3614 17.9656 65.2427 17.8461 65.2427 17.6988V17.2265C65.2427 17.1882 65.2119 17.1572 65.1739 17.1572C65.1358 17.1572 65.105 17.1262 65.105 17.0879V15.8664C65.105 15.8523 65.0936 15.8408 65.0795 15.8408C65.0676 15.8408 65.0573 15.8325 65.0547 15.8207L64.974 15.4552C64.97 15.4376 64.9546 15.4251 64.9367 15.4251C64.9155 15.4251 64.8984 15.4079 64.8984 15.3867V14.8015C64.8984 14.7888 64.9087 14.7785 64.9214 14.7785C64.9341 14.7785 64.9444 14.7681 64.9444 14.7553V14.5129C64.9444 14.4937 64.9597 14.4782 64.9788 14.4782C64.9978 14.4782 65.0132 14.4627 65.0132 14.4436V14.0972C65.0132 14.078 64.9978 14.0625 64.9788 14.0625C64.9597 14.0625 64.9444 14.047 64.9444 14.0279V13.1357C64.9444 13.1246 64.9533 13.1156 64.9643 13.1156C64.9774 13.1156 64.9869 13.1031 64.9836 13.0904L64.8984 12.7692L64.7995 12.4849C64.7626 12.3785 64.6629 12.3073 64.5508 12.3073C64.4208 12.3073 64.3102 12.2117 64.2904 12.0824L63.7294 8.40216C63.7209 8.34695 63.7851 8.3108 63.8275 8.34688C63.8747 8.3871 63.9442 8.33784 63.9225 8.27955L63.8886 8.18873C63.8751 8.15241 63.8875 8.11146 63.9189 8.08891L63.9242 8.08508C64.0006 8.0302 63.9582 7.90898 63.8645 7.91423L63.8398 7.91561C63.8017 7.91774 63.7675 7.89203 63.7587 7.85461C63.7397 7.77313 63.6245 7.77313 63.6054 7.85461C63.5967 7.89203 63.5625 7.91774 63.5243 7.91561L63.4996 7.91423C63.4059 7.90898 63.3636 8.0302 63.44 8.08508L63.4453 8.08892C63.4767 8.11146 63.489 8.15241 63.4755 8.18873L63.4417 8.27955C63.42 8.33784 63.4895 8.3871 63.5367 8.34688C63.579 8.3108 63.6432 8.34695 63.6348 8.40216L63.0718 12.0949C63.0532 12.2171 62.9487 12.3073 62.8259 12.3073C62.7201 12.3073 62.6259 12.3746 62.591 12.475L62.4886 12.7692L62.4036 13.0904C62.4002 13.1031 62.4097 13.1156 62.4228 13.1156C62.4338 13.1156 62.4428 13.1246 62.4428 13.1357V14.0279C62.4428 14.047 62.4273 14.0625 62.4083 14.0625C62.3893 14.0625 62.3739 14.078 62.3739 14.0972V14.4436C62.3739 14.4627 62.3893 14.4782 62.4083 14.4782C62.4273 14.4782 62.4428 14.4937 62.4428 14.5129V14.7553C62.4428 14.7681 62.453 14.7785 62.4657 14.7785C62.4784 14.7785 62.4886 14.7888 62.4886 14.8015V15.456C62.4886 15.4772 62.4715 15.4944 62.4505 15.4944C62.4325 15.4944 62.417 15.5069 62.4132 15.5245L62.3347 15.88C62.3307 15.8976 62.3152 15.9101 62.2974 15.9101C62.2762 15.9101 62.2591 15.9273 62.2591 15.9485V17.1803C62.2591 17.2058 62.2386 17.2265 62.2132 17.2265C62.1879 17.2265 62.1674 17.2472 62.1674 17.2727V17.9205C62.1674 17.9837 62.1165 18.0348 62.0538 18.0348C62.0378 18.0348 62.0221 18.0382 62.0076 18.0446L61.8739 18.1045C61.85 18.1152 61.8231 18.0976 61.8231 18.0712C61.8231 18.0511 61.8069 18.0348 61.7869 18.0348H61.7835C61.7661 18.0348 61.7508 18.0234 61.7456 18.0067L61.6655 17.7446C61.6635 17.7379 61.662 17.7311 61.6613 17.7241C61.6455 17.5885 61.4498 17.5885 61.4341 17.7241C61.4334 17.731 61.4319 17.7379 61.4299 17.7446L61.3498 18.0067C61.3446 18.0234 61.3293 18.0348 61.3119 18.0348C61.29 18.0348 61.2723 18.0527 61.2723 18.0747V18.4851C61.2723 18.5043 61.2877 18.5198 61.3067 18.5198C61.3257 18.5198 61.3412 18.5353 61.3412 18.5544V18.6584C61.3412 18.6839 61.3617 18.7046 61.387 18.7046C61.4124 18.7046 61.433 18.7252 61.433 18.7507V18.7969L61.387 19.4436V24.2731C61.387 24.2971 61.3677 24.3166 61.3439 24.3166C61.318 24.3166 61.2979 24.2939 61.3009 24.268L61.3213 24.0931C61.3294 24.0247 61.2489 23.97 61.1805 23.97C61.1121 23.97 61.0316 24.0247 61.0396 24.0931L61.0577 24.2478C61.062 24.2844 61.0335 24.3166 60.9969 24.3166C60.9603 24.3166 60.9318 24.2844 60.9361 24.2478L60.9542 24.0931C60.9621 24.0247 60.8816 23.97 60.8133 23.97C60.7449 23.97 60.6644 24.0247 60.6724 24.0931L60.6905 24.2478C60.6948 24.2844 60.6663 24.3166 60.6297 24.3166C60.593 24.3166 60.5646 24.2844 60.5689 24.2478L60.587 24.0931C60.5949 24.0247 60.5144 23.97 60.4461 23.97C60.3778 23.97 60.2972 24.0247 60.3052 24.0931L60.3232 24.2478C60.3276 24.2844 60.2991 24.3166 60.2625 24.3166C60.2258 24.3166 60.1974 24.2844 60.2017 24.2478L60.2197 24.0931C60.2278 24.0247 60.1472 23.97 60.0789 23.97C60.0105 23.97 59.93 24.0247 59.9379 24.0931L59.9561 24.2478C59.9603 24.2844 59.9319 24.3166 59.8952 24.3166C59.8586 24.3166 59.8302 24.2844 59.8344 24.2478L59.8526 24.0931C59.8605 24.0247 59.78 23.97 59.7116 23.97C59.6433 23.97 59.5628 24.0247 59.5708 24.0931L59.5835 24.2019C59.5906 24.263 59.5432 24.3166 59.4822 24.3166C59.4211 24.3166 59.3737 24.263 59.3808 24.2019L59.3935 24.0931C59.4015 24.0247 59.321 23.97 59.2527 23.97C59.1843 23.97 59.1038 24.0247 59.1117 24.0931L59.1285 24.2363C59.1335 24.2791 59.1004 24.3166 59.0576 24.3166C59.0148 24.3166 58.9817 24.2791 58.9866 24.2363L59.0034 24.0931C59.0114 24.0247 58.9309 23.97 58.8625 23.97C58.7941 23.97 58.7136 24.0247 58.7216 24.0931L58.742 24.268C58.7451 24.2939 58.725 24.3166 58.6991 24.3166C58.6753 24.3166 58.656 24.2971 58.656 24.2731V23.4505C58.656 23.4442 58.6611 23.439 58.6674 23.439C58.6737 23.439 58.6789 23.4338 58.6789 23.4274V23.312C58.6789 23.2418 58.6224 23.1849 58.5526 23.1849H58.5004C58.4169 23.1849 58.3445 23.1266 58.3262 23.0446C58.2842 22.8567 58.018 22.8561 57.976 23.044L57.9646 23.0948C57.9528 23.1476 57.9064 23.1849 57.8527 23.1849C57.7893 23.1849 57.7379 23.2367 57.7379 23.3004V23.4159C57.7379 23.4287 57.7482 23.439 57.7609 23.439C57.7735 23.439 57.7838 23.4493 57.7838 23.4621V24.2731C57.7838 24.2971 57.7645 24.3166 57.7406 24.3166C57.7148 24.3166 57.6947 24.2939 57.6977 24.268L57.7181 24.0931C57.7262 24.0247 57.6456 23.97 57.5773 23.97C57.5089 23.97 57.4284 24.0247 57.4363 24.0931L57.4545 24.2478C57.4587 24.2844 57.4303 24.3166 57.3937 24.3166C57.357 24.3166 57.3286 24.2844 57.3328 24.2478L57.351 24.0931C57.3589 24.0247 57.2784 23.97 57.21 23.97C57.1417 23.97 57.0612 24.0247 57.0692 24.0931L57.0873 24.2478C57.0915 24.2844 57.0631 24.3166 57.0265 24.3166C56.9898 24.3166 56.9613 24.2844 56.9657 24.2478L56.9837 24.0931C56.9917 24.0247 56.9112 23.97 56.8429 23.97C56.7745 23.97 56.694 24.0247 56.702 24.0931L56.716 24.2134C56.7225 24.2683 56.6798 24.3166 56.6248 24.3166C56.5699 24.3166 56.5272 24.2683 56.5336 24.2134L56.5477 24.0931C56.5557 24.0247 56.4751 23.97 56.4068 23.97C56.3385 23.97 56.2579 24.0247 56.2659 24.0931L56.284 24.2478C56.2883 24.2844 56.2599 24.3166 56.2232 24.3166C56.1865 24.3166 56.1581 24.2844 56.1624 24.2478L56.1804 24.0931C56.1885 24.0247 56.108 23.97 56.0396 23.97C55.9712 23.97 55.8907 24.0247 55.8987 24.0931L55.9168 24.2478C55.9211 24.2844 55.8926 24.3166 55.856 24.3166C55.8193 24.3166 55.7909 24.2844 55.7952 24.2478L55.8133 24.0931C55.8212 24.0247 55.7407 23.97 55.6724 23.97C55.604 23.97 55.5235 24.0247 55.5315 24.0931L55.5496 24.2478C55.5539 24.2844 55.5254 24.3166 55.4888 24.3166C55.4521 24.3166 55.4237 24.2844 55.428 24.2478L55.4461 24.0931C55.454 24.0247 55.3735 23.97 55.3052 23.97C55.2369 23.97 55.1563 24.0247 55.1643 24.0931L55.1824 24.2478C55.1867 24.2844 55.1582 24.3166 55.1215 24.3166C55.0849 24.3166 55.0565 24.2844 55.0608 24.2478L55.0788 24.0931C55.0869 24.0247 55.0064 23.97 54.938 23.97C54.8696 23.97 54.7891 24.0247 54.7971 24.0931L54.8152 24.2478C54.8194 24.2844 54.791 24.3166 54.7544 24.3166C54.7177 24.3166 54.6893 24.2844 54.6935 24.2478L54.7117 24.0931C54.7196 24.0247 54.6391 23.97 54.5707 23.97C54.5024 23.97 54.4219 24.0247 54.4299 24.0931L54.4479 24.2478C54.4523 24.2844 54.4238 24.3166 54.3872 24.3166C54.3505 24.3166 54.322 24.2844 54.3264 24.2478L54.3444 24.0931C54.3524 24.0247 54.2719 23.97 54.2036 23.97C54.1352 23.97 54.0547 24.0247 54.0626 24.0931L54.076 24.2073C54.0828 24.2655 54.0376 24.3166 53.9794 24.3166C53.9258 24.3166 53.8822 24.2728 53.8822 24.2188V23.9586C53.8822 23.9267 53.8566 23.9009 53.8248 23.9009C53.7932 23.9009 53.7675 23.8751 53.7675 23.8431V23.5891C53.7675 23.5827 53.7726 23.5775 53.779 23.5775C53.7853 23.5775 53.7905 23.5724 53.7905 23.566V23.3812C53.7905 23.3621 53.775 23.3466 53.756 23.3466C53.737 23.3466 53.7216 23.3311 53.7216 23.312V23.2651C53.7216 23.2579 53.7206 23.2507 53.7187 23.2437L53.5219 22.5174C53.5184 22.5047 53.528 22.4921 53.5411 22.4921C53.5521 22.4921 53.5609 22.4832 53.5609 22.4721V22.4228C53.5609 22.4101 53.5507 22.3997 53.538 22.3997C53.5253 22.3997 53.5151 22.3894 53.5151 22.3767V21.8223C53.5151 21.8096 53.5253 21.7993 53.538 21.7993C53.5507 21.7993 53.5609 21.7889 53.5609 21.7762V21.753C53.5609 21.7276 53.5404 21.7069 53.5151 21.7069H53.4532C53.4077 21.7069 53.3671 21.6781 53.3518 21.6349L53.3312 21.5768C53.2696 21.4035 53.026 21.4035 52.9645 21.5768L52.9439 21.6349C52.9286 21.6781 52.8879 21.7069 52.8424 21.7069H52.7806C52.7552 21.7069 52.7347 21.7276 52.7347 21.753V21.7762C52.7347 21.7889 52.745 21.7993 52.7576 21.7993C52.7703 21.7993 52.7806 21.8096 52.7806 21.8223V22.3767C52.7806 22.3894 52.7703 22.3997 52.7576 22.3997C52.745 22.3997 52.7347 22.4101 52.7347 22.4228V22.4721C52.7347 22.4832 52.7436 22.4921 52.7546 22.4921C52.7677 22.4921 52.7772 22.5047 52.7738 22.5174L52.5769 23.2437C52.575 23.2507 52.5741 23.2579 52.5741 23.2651V23.312C52.5741 23.3311 52.5586 23.3466 52.5396 23.3466C52.5206 23.3466 52.5052 23.3621 52.5052 23.3812V23.4967C52.5052 23.5031 52.5104 23.5083 52.5167 23.5083C52.523 23.5083 52.5282 23.5134 52.5282 23.5198V23.7739C52.5282 23.8058 52.5025 23.8316 52.4708 23.8316C52.4391 23.8316 52.4134 23.8574 52.4134 23.8894V25.4251C52.4134 25.5144 52.3415 25.5868 52.2528 25.5868H52.138C52.1127 25.5868 52.0921 25.6075 52.0921 25.633C52.0921 25.6585 52.0715 25.6792 52.0462 25.6792H52.0118C51.9674 25.6792 51.9314 25.643 51.9314 25.5984V25.4944C51.9314 25.4306 51.8801 25.379 51.8167 25.379C51.7533 25.379 51.702 25.4306 51.702 25.4944V25.6907C51.702 25.7737 51.6352 25.8409 51.5528 25.8409C51.4704 25.8409 51.4036 25.9081 51.4036 25.991V26.499C51.4036 26.6075 51.3162 26.6954 51.2085 26.6954C51.1008 26.6954 51.0135 26.6075 51.0135 26.499V25.6446C51.0135 25.4341 50.8439 25.2635 50.6348 25.2635H50.4053C50.3228 25.2635 50.256 25.3307 50.256 25.4136V25.4598C50.256 25.5172 50.2098 25.5637 50.1528 25.5637C50.0958 25.5637 50.0495 25.5172 50.0495 25.4598C50.0495 25.4024 50.0033 25.3558 49.9462 25.3558H49.6135C49.3727 25.3558 49.1774 25.1594 49.1774 24.9171V24.1594C49.1774 24.0549 49.0932 23.9702 48.9893 23.9702C48.889 23.9702 48.8063 23.8909 48.8014 23.7902L48.3315 14.13C48.3297 14.0922 48.2987 14.0625 48.261 14.0625H48.2135C48.2008 14.0625 48.1905 14.0522 48.1905 14.0394C48.1905 14.0266 48.1802 14.0163 48.1675 14.0163H48.1102C48.0658 14.0163 48.0298 13.9802 48.0298 13.9355V13.9009C48.0298 13.8371 47.9785 13.7854 47.9151 13.7854H47.7705C47.6424 13.7854 47.534 13.6912 47.5123 13.5642C47.4319 13.0955 47.3494 12.8154 47.2496 12.8154C47.1654 12.8154 47.1046 12.9078 47.0205 12.9078H45.0688C44.9868 12.9078 44.9217 12.8154 44.8398 12.8154C44.5644 12.8154 44.3578 14.9401 44.3578 17.5499C44.3578 18.2118 44.3751 18.8389 44.3947 19.4161C44.3995 19.5553 44.2852 19.6689 44.147 19.6623C44.0209 19.6562 43.9218 19.5516 43.9218 19.4246V17.9656C43.9218 17.94 43.9423 17.9193 43.9676 17.9193C43.993 17.9193 44.0135 17.8987 44.0135 17.8731V14.7323C44.0135 14.7068 43.993 14.686 43.9676 14.686C43.9423 14.686 43.9218 14.6654 43.9218 14.6399V12.3997C43.9218 12.3741 43.9423 12.3535 43.9676 12.3535C43.993 12.3535 44.0135 12.3328 44.0135 12.3073V9.68606C44.0135 9.52663 43.8851 9.39739 43.7267 9.39739H43.6004C43.5117 9.39739 43.4398 9.325 43.4398 9.23568C43.4398 9.14643 43.3679 9.07404 43.2791 9.07404H42.5906C42.5019 9.07404 42.43 9.14643 42.43 9.23568V9.30496C42.43 9.35601 42.3889 9.39739 42.3382 9.39739C42.2875 9.39739 42.2464 9.43869 42.2464 9.48974V19.3859C42.2464 19.4499 42.2113 19.5086 42.1552 19.5387C42.0406 19.6002 41.9021 19.5166 41.9021 19.3859V18.9355C41.9021 18.91 41.9226 18.8893 41.948 18.8893C41.9734 18.8893 41.9939 18.8686 41.9939 18.8432V15.4828C41.9939 15.4254 41.9477 15.3789 41.8907 15.3789C41.8336 15.3789 41.7873 15.3324 41.7873 15.275V12.4343C41.7873 12.4152 41.8028 12.3997 41.8218 12.3997C41.8408 12.3997 41.8562 12.3842 41.8562 12.365V8.93548C41.8562 8.7824 41.7329 8.65834 41.5808 8.65834H41.489C41.3876 8.65834 41.3054 8.57561 41.3054 8.47357C41.3054 8.37153 41.2232 8.28881 41.1218 8.28881H40.3415C40.24 8.28881 40.1579 8.37153 40.1579 8.47357V8.53131C40.1579 8.60143 40.1014 8.65834 40.0316 8.65834C39.962 8.65834 39.9054 8.71519 39.9054 8.78538V12.2957C39.9054 12.3404 39.8694 12.3766 39.8251 12.3766C39.7807 12.3766 39.7448 12.4128 39.7448 12.4574V15.6676C39.7448 15.6995 39.7705 15.7254 39.8022 15.7254C39.8338 15.7254 39.8595 15.7512 39.8595 15.7831V18.6623C39.8595 18.7029 39.8383 18.7404 39.8038 18.7613C39.7273 18.8074 39.63 18.752 39.63 18.6623V16.6149C39.63 16.2279 39.3081 15.9077 38.9407 16.022C38.6535 16.1113 38.3834 16.2522 38.144 16.4392C38.0165 16.5387 37.9443 16.6902 37.9285 16.8518C37.738 18.7921 37.6684 22.3928 37.6578 23.0035C37.6569 23.0543 37.6157 23.0926 37.5652 23.0926C37.5141 23.0926 37.4727 23.0509 37.4727 22.9995V19.7262C37.4727 19.6614 37.4746 19.6107 37.4328 19.5613C37.3561 19.4706 37.2837 19.3537 37.2238 19.251C37.1776 19.1718 37.1097 19.0956 37.019 19.0224C36.8115 18.855 36.6465 18.6261 36.6465 18.3586V10.4366C36.6465 10.3856 36.6053 10.3443 36.5547 10.3443C36.5039 10.3443 36.4628 10.3029 36.4628 10.2519V10.1133C36.4628 10.0878 36.4423 10.0671 36.417 10.0671C36.3916 10.0671 36.3711 10.0464 36.3711 10.0209V9.90986C36.3711 9.85046 36.3381 9.79561 36.2839 9.77205C36.2154 9.74228 36.1448 9.71742 36.0727 9.69759C35.5559 9.51419 35.0139 9.41293 34.4662 9.39739Z" fill="black"/>
</g>
</g>
<defs>
<clipPath id="clip0_551_17096">
<rect width="163" height="40" fill="black" transform="translate(0.84375)"/>
</clipPath>
</defs>
</svg>
