<?xml version="1.0" encoding="UTF-8" standalone="no"?>
<!-- Created with Inkscape (http://www.inkscape.org/) -->

<svg
   version="1.1"
   id="svg156"
   width="117.98932"
   height="80.000153"
   viewBox="0 0 117.98932 80.000153"
   xmlns="http://www.w3.org/2000/svg"
   xmlns:svg="http://www.w3.org/2000/svg">
  <defs
     id="defs160" />
  <g
     id="g164"
     transform="matrix(1.3333333,0,0,-1.3333333,-283.05466,436.85114)">
    <g
       id="g166"
       transform="scale(0.1)">
      <path
         d="m 2705.29,3067.34 c -102.5,157.84 -248.3,245.07 -325.65,194.84 -37.25,-24.19 -51.83,-75.85 -45.5,-140.53 2.41,7.86 6.04,15.08 10.94,21.55 44.89,59.24 179.84,32.57 301.43,-59.56 47.6,-36.07 86.1,-76.82 112.63,-116.62 -14.18,33.11 -32.18,66.95 -53.85,100.32"
         style="fill:#006ba5;fill-opacity:1;fill-rule:nonzero;stroke:none"
         id="path198" />
      <path
         d="m 2425.18,2885.43 c -21.66,33.35 -39.66,67.19 -53.84,100.3 26.53,-39.8 65.03,-80.54 112.62,-116.61 121.59,-92.13 256.55,-118.8 301.43,-59.56 4.9,6.47 8.53,13.7 10.94,21.56 6.34,-64.69 -8.25,-116.34 -45.5,-140.53 -77.35,-50.24 -223.15,37 -325.65,194.84"
         style="fill:#006ba5;fill-opacity:1;fill-rule:nonzero;stroke:none"
         id="path200" />
      <path
         d="m 2815.89,3016.4 c 15.79,-34.89 27.82,-69.68 36.05,-103.4 l 155.89,350.7 h -383.4 c 27.4,-21.23 54.22,-46.35 79.6,-74.94 h 188.48 l -76.62,-172.36"
         style="fill:#006ba5;fill-opacity:1;fill-rule:nonzero;stroke:none"
         id="path202" />
      <path
         d="m 2238.23,2764.02 76.49,172.07 c -15.8,34.85 -27.84,69.61 -36.09,103.31 l -155.72,-350.32 h 383.12 c -27.4,21.23 -54.22,46.36 -79.6,74.94 h -188.2"
         style="fill:#006ba5;fill-opacity:1;fill-rule:nonzero;stroke:none"
         id="path204" />
    </g>
  </g>
</svg>
